<?xml version="1.0" standalone="no"?>
<!DOCTYPE svg PUBLIC "-//W3C//DTD SVG 1.1//EN" "http://www.w3.org/Graphics/SVG/1.1/DTD/svg11.dtd" >
<svg xmlns="http://www.w3.org/2000/svg" xmlns:xlink="http://www.w3.org/1999/xlink" version="1.1">
<metadata>
Created by FontForge 20161116 at Sun Apr  8 05:07:37 2012
 By Jimmy Warting
Copyright (c) 2011, Sorkin Type Co. (www.sorkintype.com)with Reserved Font Name "Hammersmith".This Font Software is licensed under the SIL Open Font License,Version 1.1. This license is available with a FAQ at:http://scripts.sil.org/OFL
</metadata>
<defs>
<font id="HammersmithOne-Regular" horiz-adv-x="1193" >
  <font-face 
    font-family="HammersmithOne"
    font-weight="400"
    font-stretch="normal"
    units-per-em="2048"
    panose-1="2 1 7 3 3 5 1 6 5 4"
    ascent="1638"
    descent="-410"
    x-height="1045"
    cap-height="1338"
    bbox="-145 -716 3056 1843"
    underline-thickness="50"
    underline-position="-100"
    unicode-range="U+0001-FB02"
  />
<missing-glyph horiz-adv-x="0" 
 />
    <glyph glyph-name=".notdef" horiz-adv-x="0" 
 />
    <glyph glyph-name=".null" horiz-adv-x="0" 
 />
    <glyph glyph-name="nonmarkingreturn" horiz-adv-x="0" 
 />
    <glyph glyph-name="uni0001" horiz-adv-x="0" 
 />
    <glyph glyph-name="uni0002" horiz-adv-x="0" 
 />
    <glyph glyph-name="uni0003" horiz-adv-x="0" 
 />
    <glyph glyph-name="uni0004" horiz-adv-x="0" 
 />
    <glyph glyph-name="uni0005" horiz-adv-x="0" 
 />
    <glyph glyph-name="uni0006" horiz-adv-x="0" 
 />
    <glyph glyph-name="uni0007" horiz-adv-x="0" 
 />
    <glyph glyph-name="uni0008" horiz-adv-x="0" 
 />
    <glyph glyph-name="uni0009" unicode="&#x9;" horiz-adv-x="0" 
 />
    <glyph glyph-name="uni0010" horiz-adv-x="0" 
 />
    <glyph glyph-name="uni0011" horiz-adv-x="0" 
 />
    <glyph glyph-name="uni0012" horiz-adv-x="0" 
 />
    <glyph glyph-name="uni0013" horiz-adv-x="0" 
 />
    <glyph glyph-name="uni0014" horiz-adv-x="0" 
 />
    <glyph glyph-name="uni0015" horiz-adv-x="0" 
 />
    <glyph glyph-name="uni0016" horiz-adv-x="0" 
 />
    <glyph glyph-name="uni0017" horiz-adv-x="0" 
 />
    <glyph glyph-name="uni0018" horiz-adv-x="0" 
 />
    <glyph glyph-name="uni0019" horiz-adv-x="0" 
 />
    <glyph glyph-name="space" unicode=" " horiz-adv-x="679" 
 />
    <glyph glyph-name="exclam" unicode="!" horiz-adv-x="684" 
d="M468 374q-51 6 -175 6h-80l-2 978l91 -4h22q116 0 148 8zM474 240q-4 -50 -4 -127.5t4 -112.5h-265q8 62 8 122.5t-6 117.5h263z" />
    <glyph glyph-name="quotedbl" unicode="&#x22;" horiz-adv-x="1026" 
d="M203 1110q-7 230 -16 320h251q-12 -111 -17 -321l-3 -132h-211zM604 1110q-7 230 -16 320h251q-12 -111 -17 -321l-3 -132h-211z" />
    <glyph glyph-name="numbersign" unicode="#" horiz-adv-x="1535" 
d="M1253 491q-48 5 -124 5h-94l-44 -319h-226l44 319h-184l-44 -319h-226l44 319h-41q-76 0 -124 -5l3 207q23 -6 132 -6h58l28 201h-70q-76 0 -124 -5l3 207q22 -6 132 -6h86l45 321h226l-45 -321h184l45 321h226l-45 -321h47q109 0 132 6l3 -207q-48 5 -124 5h-85
l-28 -201h55q110 0 132 6zM837 692l28 201h-184l-28 -201h184z" />
    <glyph glyph-name="dollar" unicode="$" 
d="M412 -195q9 34 9 135v47q-92 16 -166 49.5t-111 73.5l29 252l7 6q38 -57 150 -104q117 -49 232 -49q155 0 212 94q17 28 17 57t-10.5 51t-36.5 43q-50 40 -167.5 86.5t-188 89.5t-112.5 91q-78 88 -78 223q0 120 87 226q91 111 236 155v80q0 101 -9 135h269
q-4 -58 -4 -124v-74q102 -15 197 -64l-31 -247l-7 -2q-149 81 -275 81q-90 0 -152 -44q-55 -40 -55 -95q0 -49 38 -81q70 -58 184.5 -95.5t183.5 -77t111 -85.5q78 -87 78 -220q0 -143 -91 -260q-104 -135 -281 -170v-59q4 -121 4 -124h-269z" />
    <glyph glyph-name="percent" unicode="%" horiz-adv-x="2214" 
d="M551 612q-90 0 -163 27t-126 75q-114 105 -114 263q0 150 103 257q117 121 316 121q182 0 294 -113q104 -106 104 -257q0 -154 -115 -261q-119 -112 -299 -112zM1346 1330h245l-750 -1330h-245zM562 816q47 0 83 14t61 38q53 48 53 120q0 67 -53 116q-56 53 -149 53
q-91 0 -147 -52q-51 -48 -51 -120q0 -70 53 -117q57 -52 150 -52zM1249 334q0 74 25.5 141.5t77.5 121.5q117 121 316 121q182 0 294 -114q104 -105 104 -256q0 -154 -114 -261q-120 -112 -306 -112q-171 0 -283 103q-114 104 -114 256zM1461 348q0 -34 13.5 -64.5
t39.5 -53.5q57 -52 152 -52q87 0 142 52q53 48 53 120q0 67 -53 116q-56 53 -149 53q-91 0 -147 -52q-51 -48 -51 -119z" />
    <glyph glyph-name="ampersand" unicode="&#x26;" horiz-adv-x="1364" 
d="M988 118q-165 -143 -399 -143q-230 0 -380 137q-147 133 -147 330q0 178 154 296q46 36 99 60q-57 96 -57 188t30 157t83 112q113 100 290 100q126 0 231 -60q-5 -85 -5 -131q0 -63 1.5 -79t1 -22.5t-1.5 -10.5q-4 -6 -2 -14l-5 -7q-40 60 -155 86q-35 8 -90 8t-90.5 -33
t-35.5 -83q0 -86 122 -219q38 -42 92 -95l235 -215q32 87 32 183q0 59 -30 98q-7 9 -11 12v12l145 -58q42 -17 68 -26t39 -15q23 -10 23 -22q0 -180 -81 -342q102 -84 131 -95t44 -13q48 -6 56 4l5 -6l-103 -225q-17 -12 -58 -12q-63 0 -231 143zM595.5 215
q116.5 0 209.5 64l-108 99q-173 157 -275 274q-109 -79 -109 -186t83 -179t199.5 -72z" />
    <glyph glyph-name="quotesingle" unicode="'" horiz-adv-x="684" 
d="M232 1110q-7 230 -16 320h251q-12 -111 -17 -321l-3 -132h-211z" />
    <glyph glyph-name="parenleft" unicode="(" horiz-adv-x="929" 
d="M500 -100q-318 274 -318 780q0 337 180 596q59 86 138 154h256v-6q-249 -226 -302 -528q-18 -102 -18 -221q0 -435 310 -769v-6h-246z" />
    <glyph glyph-name="parenright" unicode=")" horiz-adv-x="929" 
d="M427 -100q318 274 318 780q0 337 -180 596q-59 86 -138 154h-256v-6q249 -226 302 -528q18 -102 18 -221q0 -435 -310 -769v-6h246z" />
    <glyph glyph-name="asterisk" unicode="*" 
d="M483 759l32 282l-258 -199l-128 191l289 133l-288 170l157 180l225 -217l-40 306h244l-42 -318l228 201l151 -181l-303 -146l313 -150l-134 -186l-254 206l37 -307h-233q0 1 4 35z" />
    <glyph glyph-name="plus" unicode="+" horiz-adv-x="1364" 
d="M351 500q-76 0 -124 -5l3 247q22 -6 132 -6h202v192q0 110 -6 132l247 3q-5 -48 -5 -124v-203h201q109 0 132 6l3 -247q-48 5 -124 5h-212v-222q0 -76 5 -124l-247 3q6 23 6 132v211h-213z" />
    <glyph glyph-name="comma" unicode="," horiz-adv-x="510" 
d="M158 66.5q0 73.5 -11 153.5l249 40l8 -51q8 -56 8 -115.5t-6 -110t-16 -93.5q-23 -94 -52 -112q-49 -31 -235 -70l-6 6q34 60 47.5 169.5t13.5 183z" />
    <glyph glyph-name="hyphen" unicode="-" horiz-adv-x="1016" 
d="M302 500q-76 0 -124 -5l3 247q23 -6 132 -6h389q110 0 132 6l3 -247q-48 5 -124 5h-411z" />
    <glyph glyph-name="period" unicode="." horiz-adv-x="510" 
d="M109 0q9 61 9 108t-0.5 64.5t-1.5 34.5t-2 32l-3 25h290q-3 -38 -3 -62l-2 -42v-71.5t5 -88.5h-292z" />
    <glyph glyph-name="slash" unicode="/" horiz-adv-x="855" 
d="M599 1530h256l-599 -1700h-256z" />
    <glyph glyph-name="zero" unicode="0" horiz-adv-x="1364" 
d="M106 646q0 151 44.5 282t124.5 226q171 201 433 201q251 0 402 -189q147 -184 147 -487q0 -342 -178 -533q-159 -171 -408 -171q-241 0 -402 186q-163 189 -163 485zM561 241.5q61 -31.5 124.5 -31.5t118.5 28t99 84q99 128 99 335q0 212 -84 339q-85 125 -230 125
q-146 0 -236 -130q-91 -131 -91 -339q0 -199 95 -322q44 -57 105 -88.5z" />
    <glyph glyph-name="one" unicode="1" horiz-adv-x="689" 
d="M217 1330h255v-1330h-255v1330z" />
    <glyph glyph-name="two" unicode="2" 
d="M553 600q148 188 170 297q7 34 7 65q0 73 -55 117t-158 44q-97 0 -201 -51q-95 -47 -135 -107l-13 -2l8 300q88 57 246 83q49 9 94 9q252 0 376 -121q106 -101 106 -270q0 -116 -72 -250q-62 -112 -163 -242l-196 -242h324q66 0 103.5 5.5t63.5 25.5l7 -3l-73 -273
l-109 6q-283 16 -800 2z" />
    <glyph glyph-name="three" unicode="3" 
d="M872 778q241 -102 241 -346q0 -194 -159 -322q-167 -135 -442 -135q-265 0 -426 123l-4 267l10 12q120 -163 418 -163q348 0 348 231q0 83 -102 130q-92 42 -214 42q-168 0 -258 -57l-6 7l10 236q121 33 254 33h52q28 0 55 -2q64 38 83 114q6 21 6 42.5t-13 44t-39 39.5
q-57 39 -128.5 39t-120.5 -8t-95 -23q-99 -33 -148 -82l-5 5l-12 256q161 94 391 94q181 0 302 -83q130 -90 130 -240q0 -82 -36 -147.5t-92 -106.5zM556 809q25 0 42 4z" />
    <glyph glyph-name="four" unicode="4" 
d="M922 563q152 0 252 26l5 -7l-73 -232h-184v-350h-255v350h-616l-4 74l553 904l322 2v-767zM667 563v474l-273 -474h273z" />
    <glyph glyph-name="five" unicode="5" horiz-adv-x="1364" 
d="M483 875q99 21 218 21t219.5 -33t167.5 -89q136 -112 136 -288q0 -224 -166 -368q-167 -143 -421 -143q-285 0 -451 138l-11 283l10 7q142 -195 456 -195q142 0 227 66t85 168q0 167 -173 224q-58 19 -122 19t-119.5 -5.5t-108.5 -15.5q-110 -21 -182 -60v726h627
q192 0 227 32l4 -3l-24 -244q-44 -21 -203 -21h-396v-219z" />
    <glyph glyph-name="six" unicode="6" horiz-adv-x="1364" 
d="M155 358q-36 114 -36 226t18 205t55 177t94 155t134 123q166 111 398 111q175 0 301 -59l9 -246l-4 -6q-110 81 -324 81q-161 0 -278 -109q-112 -105 -147 -268q124 124 313 160q56 10 132 10t161 -30t145 -86q128 -120 128 -318q0 -220 -166 -366q-161 -143 -394 -143
q-275 0 -431 184q-72 85 -108 199zM384 444q33 -111 109 -174.5t193 -63.5q134 0 221 72q91 74 91 198q0 93 -60 153q-65 65 -176 65q-141 0 -246 -74q-99 -71 -132 -176z" />
    <glyph glyph-name="seven" unicode="7" horiz-adv-x="1031" 
d="M582 128q0 -68 7 -128h-304q0 148 103 478q121 392 284 627l-492 -8q-109 0 -138 -25l-7 5l-8 260l520 -3h164.5t130.5 1q130 2 205 6l-172 -350q-293 -594 -293 -863z" />
    <glyph glyph-name="eight" unicode="8" horiz-adv-x="1364" 
d="M1036 710q115 -40 176 -130q56 -80 56 -180.5t-40 -179.5t-114 -134q-151 -114 -419 -114q-242 0 -413 105q-187 115 -187 323q0 146 125 259q39 36 89 61q-123 98 -123 254q0 164 129 270q138 113 379 113q235 0 375 -119q127 -107 127 -270.5t-160 -257.5zM458 1036
q-17 -27 -17 -58.5t19.5 -61.5t61.5 -57q91 -57 278 -86q95 48 129 137q43 114 -53 174q-68 43 -195 43q-168 0 -223 -91zM485 604q-124 -72 -124 -179q0 -219 345 -223q221 -3 277 92q20 34 20 76.5t-18 67.5t-54 44q-57 29 -157 48.5t-135 27.5t-63 16q-51 13 -91 30z" />
    <glyph glyph-name="nine" unicode="9" horiz-adv-x="1364" 
d="M244 286q110 -81 324 -81q155 0 268 100q109 97 146 250q-115 -107 -305 -135q-54 -8 -129.5 -8t-160.5 30t-145 86q-128 120 -128 318q0 220 166 366q161 143 394 143q275 0 431 -184q144 -170 144 -442q0 -312 -167 -520q-188 -234 -532 -234q-175 0 -301 59l-9 246z
M614 636q67 0 129.5 18t110.5 48q98 63 127 163q-47 186 -191 241q-48 18 -110.5 18t-119.5 -18.5t-99 -53.5q-91 -74 -91 -198q0 -93 60 -153q65 -65 184 -65z" />
    <glyph glyph-name="colon" unicode=":" horiz-adv-x="510" 
d="M396 770v-71.5t5 -88.5h-292q9 61 9 108t-0.5 64.5t-1.5 34.5t-2 32l-3 25h290q-3 -38 -3 -62zM396 160v-71.5t5 -88.5h-292q9 61 9 108t-0.5 64.5t-1.5 34.5t-2 32l-3 25h290q-3 -38 -3 -62z" />
    <glyph glyph-name="semicolon" unicode=";" horiz-adv-x="518" 
d="M402 690q-4 -50 -4 -127.5t4 -112.5h-265q8 62 8 122.5t-6 117.5h263zM162 66.5q0 73.5 -11 153.5l249 40l8 -51q8 -56 8 -115.5t-6 -110t-16 -93.5q-23 -94 -52 -112q-49 -31 -235 -70l-6 6q34 60 47.5 169.5t13.5 183z" />
    <glyph glyph-name="less" unicode="&#x3c;" horiz-adv-x="1364" 
d="M344 648l675 417v-281l-440 -248l440 -271v-280l-675 449v214z" />
    <glyph glyph-name="equal" unicode="=" horiz-adv-x="1364" 
d="M351 720q-76 0 -124 -5l3 247q22 -6 132 -6h639q109 0 132 6l3 -247q-48 5 -124 5h-661zM351 300q-76 0 -124 -5l3 247q22 -6 132 -6h639q109 0 132 6l3 -247q-48 5 -124 5h-661z" />
    <glyph glyph-name="greater" unicode="&#x3e;" horiz-adv-x="1359" 
d="M342 265l439 271l-439 248v281l675 -417v-214l-675 -449v280z" />
    <glyph glyph-name="question" unicode="?" horiz-adv-x="1026" 
d="M610 456q-87 -65 -188 -113q-125 48 -125 178q0 56 29 103q58 90 169 183q81 68 103 100q33 48 33 89t-17 69.5t-47 48.5q-61 41 -154 41q-122 0 -219 -83q-33 -28 -54 -68l-7 -2q3 44 -9 89l-42 150q142 134 367 134q191 0 319 -109q120 -104 120 -249q0 -72 -30 -124
q-49 -86 -128 -155.5t-109 -100.5t-45 -52q-23 -32 -23 -61t17.5 -46.5t39.5 -21.5zM588 240q-4 -50 -4 -127.5t4 -112.5h-265q8 62 8 122.5t-6 117.5h263z" />
    <glyph glyph-name="at" unicode="@" horiz-adv-x="2385" 
d="M1021 840q100 35 208.5 35t204.5 -39l2 19h253l-43 -455q-4 -34 -4 -80q0 -105 112 -105q134 0 192 148q30 77 30 194.5t-48.5 226t-140.5 187.5q-197 169 -522 169q-373 0 -607 -217q-251 -231 -251 -570q0 -276 199 -447q209 -179 571 -179q209 0 405 51
q183 46 245 104l6 -3l-95 -240q-250 -126 -590 -126q-463 0 -729 211q-269 215 -269 599q0 37 8.5 131t54.5 209.5t121 217.5t175.5 188t220.5 149q254 131 544 131q304 0 533 -109q207 -99 321 -278q107 -169 107 -371q0 -166 -56.5 -283t-126.5 -185q-144 -138 -324 -138
t-272 101q-152 -101 -333 -101q-213 0 -339 122q-118 114 -118 284q0 113 52 203t127.5 150.5t175.5 95.5zM1411 598q-75 47 -194 47q-121 0 -201 -61q-77 -58 -85 -150q-16 -148 129 -198q49 -16 139 -16t185 56q-2 28 2 56z" />
    <glyph glyph-name="A" unicode="A" horiz-adv-x="1197" 
d="M269 -8q-86 8 -201 8h-79l435 1219q29 82 29 95.5t-1 16.5l1 2q65 -3 138 -3q60 0 144 2l1 -2q-2 -4 -2 -11q0 -19 30 -101l444 -1221q-20 1 -47 1l-52 2h-45h-155l-94 288h-452zM737 528l-151 465l-147 -465h298z" />
    <glyph glyph-name="B" unicode="B" horiz-adv-x="1197" 
d="M822 7q-117 -32 -287.5 -32t-362.5 31v1318q194 31 336.5 31t234 -27t149.5 -73q114 -89 114 -230.5t-103 -234.5q122 -38 189 -144q61 -95 61 -210.5t-33.5 -197.5t-107 -140.5t-190.5 -90.5zM437 827q42 -7 105 -7t103.5 16.5t62.5 41.5q36 41 36 114q0 153 -180 153
q-76 0 -127 -6v-312zM585 613q-84 0 -148 -11v-393q70 -18 147 -18t135.5 18.5t98.5 50.5q81 66 81 168q0 185 -314 185z" />
    <glyph glyph-name="C" unicode="C" horiz-adv-x="1188" 
d="M768 1355q187 0 319 -65v-306l-2 -2q-56 86 -236 114q-53 9 -134 9t-159 -30.5t-128 -86.5q-97 -109 -97 -311q0 -235 123 -350q102 -96 270 -96q190 0 308 81q43 29 73 72l3 -2v-280q-153 -127 -412 -127q-305 0 -478 194q-166 185 -166 490q0 323 182 509
q184 187 534 187z" />
    <glyph glyph-name="D" unicode="D" horiz-adv-x="1364" 
d="M496 -25q-162 0 -305 26v1338q132 16 306.5 16t316 -47.5t236.5 -135.5q192 -176 192 -493q0 -355 -214 -539q-192 -165 -532 -165zM451 219q65 -12 130 -12t140 25.5t130 79.5q118 114 118 332q0 358 -261 440q-86 27 -199 27h-27q-15 0 -31 -1v-891z" />
    <glyph glyph-name="E" unicode="E" horiz-adv-x="1026" 
d="M841 240q62 0 86 12l4 -1l-10 -251h-749v1337q27 -2 60 -3l70 -2q70 -2 152 -2q229 0 453 8q-11 -88 -11 -235q0 -16 2 -24l-2 -3q-52 15 -148 15h-315v-255h237q110 0 132 6l3 -247q-48 5 -124 5h-248v-360h408z" />
    <glyph glyph-name="F" unicode="F" horiz-adv-x="1022" 
d="M873 575q-48 5 -124 5h-303v-580h-274v1337q27 -2 62 -3l74 -2q76 -2 158 -2q246 0 470 8q-11 -88 -11 -235q0 -16 2 -24l-2 -3q-53 15 -148 15h-331v-275h292q110 0 132 6z" />
    <glyph glyph-name="G" unicode="G" horiz-adv-x="1364" 
d="M1268 802q-19 -34 -19 -163v-310q0 -141 -146 -245q-151 -109 -370 -109q-304 0 -485 191q-175 182 -175 464q0 300 178 500q199 225 548 225q233 0 369 -90l-16 -295l-8 -2q-35 61 -138 100q-98 37 -205.5 37t-188 -34t-136.5 -97q-118 -129 -118 -341q0 -185 104 -297
q104 -111 268 -111q181 0 244 94q20 30 20 68v166h-129q-104 0 -113 -18l-3 1l-9 261q28 -8 227 -8h118q110 0 180 15z" />
    <glyph glyph-name="H" unicode="H" horiz-adv-x="1364" 
d="M442 -6q-96 6 -228 6h-32v1335q62 -5 88 -5h41q79 0 131 8v-533h470v530q83 -5 161.5 -5t98.5 8v-1344q-48 6 -190 6h-70v565h-470v-571z" />
    <glyph glyph-name="I" unicode="I" horiz-adv-x="684" 
d="M203 1334q100 -4 121 -4h72q53 0 85 8l-1 -1338h-277v1334z" />
    <glyph glyph-name="J" unicode="J" horiz-adv-x="860" 
d="M448 1335q62 -5 90 -5h78q49 0 97 8v-896q0 -220 -117 -346q-111 -121 -300 -121q-130 0 -218 52q-33 19 -66 46v289l7 2q42 -66 98.5 -108t140.5 -42q190 0 190 220v901z" />
    <glyph glyph-name="K" unicode="K" 
d="M427 -6q-69 6 -176 6h-79v1334l40 -2q42 -2 63 -2h29q88 0 123 8v-565l405 561q64 -4 108 -4h55q103 0 147 8l-386 -504l380 -754q24 -55 45 -80h-61q-211 0 -263 -8q-11 67 -30 117l-255 486l-145 -190v-411z" />
    <glyph glyph-name="L" unicode="L" horiz-adv-x="855" 
d="M367 0q-147 0 -195 -6v1342q24 -6 99.5 -6t175.5 4v-1094h207q90 0 144 6q-7 -234 -7 -243v-10q-98 7 -329 7h-95z" />
    <glyph glyph-name="M" unicode="M" horiz-adv-x="1539" 
d="M442 -6q-48 6 -185 6h-80v1334q64 -4 141 -4t109 8l336 -571l323 571q32 -8 122 -8t154 4v-1334h-80q-137 0 -185 -6v896l-327 -585l-328 538v-849z" />
    <glyph glyph-name="N" unicode="N" horiz-adv-x="1359" 
d="M181 0q6 34 6 74v1256h200l530 -834v766q0 55 -10 68h270q-5 -40 -5 -88v-1242h-208l-522 801v-801h-261z" />
    <glyph glyph-name="O" unicode="O" horiz-adv-x="1535" 
d="M137.5 367q-52.5 122 -52.5 267.5t49 275.5t140 229t220 157.5t289 58.5q276 0 465 -174q202 -186 202 -502q0 -306 -208 -509q-128 -125 -305 -172q-87 -23 -203.5 -23t-239 48t-213.5 135t-143.5 209zM363 648q0 -93 31 -171t86 -134q117 -118 301 -118q175 0 281 113
q108 117 108 319q0 190 -103 317q-111 136 -304 136q-187 0 -297 -138q-103 -129 -103 -324z" />
    <glyph glyph-name="P" unicode="P" horiz-adv-x="1026" 
d="M153 1337q139 18 285 18q272 0 413.5 -127.5t141.5 -381.5q0 -227 -155 -359q-145 -124 -373 -124q-26 0 -57 3v-366h-255v1337zM468 1114q-30 0 -60 -2v-526q32 -4 78 -4t96 19.5t84 54.5q71 73 71 192q0 266 -269 266z" />
    <glyph glyph-name="Q" unicode="Q" horiz-adv-x="1535" 
d="M918 -6q-84 -19 -194 -19t-232.5 48t-213.5 135q-196 187 -196 479q0 296 190 502q200 216 510 216q282 0 468 -178q197 -190 197 -498q0 -247 -140 -432q-44 -58 -98 -104q36 -10 87 -33q109 -51 206 -53h20q52 0 69 14l4 -3l-76 -191q-14 -43 -53 -43q-57 0 -116 24
t-105.5 45t-88.5 37t-80 27q-65 18 -158 27zM350 648q0 -93 32.5 -172.5t89.5 -137.5q122 -123 306 -123q176 0 287 119q115 122 115 323q0 190 -108 317q-117 136 -310 136q-188 0 -304 -138q-108 -130 -108 -324z" />
    <glyph glyph-name="R" unicode="R" 
d="M602 517q-30 -2 -64 -2t-101 5v-520h-265v1337q140 18 344 18q278 0 414.5 -102.5t136.5 -316.5q0 -166 -125 -284q-41 -38 -94 -66l204 -430q60 -133 92 -158l-5 -5q-97 16 -305 -1zM535 1119q-51 0 -98 -5v-382q49 -7 115 -7t111 11.5t78 35.5q71 53 71 159t-74 149
q-69 39 -203 39z" />
    <glyph glyph-name="S" unicode="S" 
d="M975 1256l-19 -294l-7 -2q-74 111 -252 144q-56 11 -107.5 11t-88 -9t-62.5 -26q-55 -36 -55 -94q0 -76 48 -114q60 -46 199 -64.5t223 -50.5t138 -81q102 -92 102 -260q0 -220 -166 -339q-142 -102 -358 -102q-174 0 -344 66q-56 22 -98 51l11 334l4 3
q124 -214 407 -214q201 0 266 97q22 33 22 73.5t-13 67t-43 45.5q-58 38 -195 51t-224 49t-139 89q-94 96 -94 268q0 178 125 288q127 112 342.5 112t377.5 -99z" />
    <glyph glyph-name="T" unicode="T" horiz-adv-x="1026" 
d="M652 -6q-48 6 -247 6h-32v1106h-198q-88 0 -104 -9t-25 -16l-3 1v256l3 3q33 -11 178 -11h627q88 0 104 9t25 16l3 -1v-256l-3 -3q-33 11 -178 11h-150v-1112z" />
    <glyph glyph-name="U" unicode="U" horiz-adv-x="1368" 
d="M930 1335q62 -5 103 -5h83q42 0 88 8v-827q0 -246 -149 -395q-141 -141 -354 -141q-233 0 -377 121q-161 136 -161 392v847q83 -5 156.5 -5t121.5 8v-863q0 -126 77 -196q72 -64 180 -64q160 0 213 164q19 59 19 146v810z" />
    <glyph glyph-name="V" unicode="V" 
d="M741 -4q-32 4 -105 4h-110q-27 0 -49 -2l-1 2q4 7 4 16t-1.5 19t-8.5 36t-22 75l-42 134l-372 1054q62 -4 158 -4t123 8l301 -909l264 905q60 -4 148 -4q120 0 140 8l-365 -1055l-35 -117q-29 -100 -29 -129.5t4 -37.5z" />
    <glyph glyph-name="W" unicode="W" horiz-adv-x="1710" 
d="M648 -4q-30 4 -102 4h-116q-34 0 -56 -2l-1 2q4 7 4 16t-1.5 19t-8 36t-19.5 75l-340 1188q64 -4 155 -4t118 8l236 -905l230 901q15 -1 27 -2h22q33 -2 83 -2t103 8l234 -905l201 901q60 -4 157 -4t118 8l-288 -1055q-55 -182 -58 -216t-3 -47t4 -21l-2 -3q-32 4 -101 4
h-109t-71 -2l-1 2q4 7 4 16t-1 18t-5.5 34.5t-14.5 75.5l-27 136l-164 623l-156 -620q-48 -191 -50 -220q-4 -55 1 -64z" />
    <glyph glyph-name="X" unicode="X" 
d="M779 1233q21 44 21 65.5t-4 31.5h360q-11 -12 -28 -28.5t-38 -39.5q-50 -56 -92 -130l-241 -440l225 -423l27 -55q76 -158 129 -214h-326q-4 35 -34 94l-196 376q-207 -419 -212 -432q-5 -17 -8 -38h-326q37 38 76 107l120 213l213 361l-280 527q-45 85 -79 122h336
q-4 -10 -4 -22q0 -27 25 -75l167 -334z" />
    <glyph glyph-name="Y" unicode="Y" 
d="M451 0q13 39 13 182v278q-173 381 -221 475.5t-81 149.5q-104 176 -125.5 202t-43.5 43h345q11 -20 30 -59l242 -511q17 42 40 94q218 469 221 476h330q-51 -41 -125 -172q-23 -39 -46 -89l-226 -471q-38 -85 -65 -153v-287q0 -100 12 -158h-300z" />
    <glyph glyph-name="Z" unicode="Z" horiz-adv-x="1189" 
d="M143 1240q0 33 -3 90h948l-582 -1090h363q142 0 167.5 8.5t40.5 15.5v-279q-43 4 -71 7t-59 5q-47 3 -182 3h-673l602 1090h-315q-195 0 -248 -21q12 50 12 141v30z" />
    <glyph glyph-name="bracketleft" unicode="[" horiz-adv-x="929" 
d="M195 -110q4 64 4 76v1224q0 140 -5 240h320t194 5l-3 -247q-24 6 -122 6h-129l9 -1068h67q151 0 175 6l3 -247q-75 5 -146 5h-367z" />
    <glyph glyph-name="backslash" unicode="\" horiz-adv-x="855" 
d="M256 1530h-256l599 -1700h256z" />
    <glyph glyph-name="bracketright" unicode="]" horiz-adv-x="929" 
d="M706 -110q-4 64 -4 76v1224q0 140 5 240h-320t-194 5l3 -247q24 6 122 6h129l-9 -1068h-67q-151 0 -175 6l-3 -247q75 5 146 5h367z" />
    <glyph glyph-name="asciicircum" unicode="^" 
d="M480 1415h214l417 -905h-282l-240 611l-227 -611h-281z" />
    <glyph glyph-name="underscore" unicode="_" horiz-adv-x="1353" 
d="M1384 -174v-160h-1413v160h1413z" />
    <glyph glyph-name="grave" unicode="`" horiz-adv-x="803" 
d="M132 1520q170 -17 320 -17l169 -313h-226l-262 323z" />
    <glyph glyph-name="a" unicode="a" 
d="M837 62q-142 -77 -257 -77t-197 21.5t-139 63.5q-116 85 -116 246q0 144 142 240q154 104 418 104l40 -1q12 -1 27 -1.5t27 -2.5q-8 160 -138 187q-43 9 -91.5 9t-95 -8.5t-90.5 -22.5q-97 -31 -139 -71l-3 2l-30 221q177 93 387 93q326 0 417 -235q29 -75 29 -169v-362
q0 -116 82 -158l-181 -166q-57 30 -92 87zM783 475q-27 5 -56 5h-40q-221 0 -281 -98q-18 -29 -18 -61t11.5 -56.5t38.5 -40.5q52 -30 154.5 -30t191.5 49q-1 11 -1 23v209z" />
    <glyph glyph-name="b" unicode="b" horiz-adv-x="1187" 
d="M397 1007q112 58 229 58t201.5 -36.5t148.5 -104.5q139 -151 139 -382q0 -253 -151 -408q-145 -149 -361 -149q-190 0 -313 99q-138 112 -138 309v1095h245v-481zM397 396q0 -176 219 -176q107 0 180 94q74 96 74 239q0 144 -78 217q-70 65 -188 65q-71 0 -157 -48
q-27 -15 -50 -33v-358z" />
    <glyph glyph-name="c" unicode="c" horiz-adv-x="1026" 
d="M964 97q-112 -112 -351 -112q-232 0 -379 141q-149 143 -149 380q0 241 147 396q156 163 417 163q185 0 310 -81l-40 -256l-7 1q-48 58 -101 76q-86 30 -172 30t-135 -22t-84 -61q-70 -80 -70 -212q0 -234 162 -306q56 -24 118.5 -24t109 11t84.5 30q81 40 110 93l7 -3z
" />
    <glyph glyph-name="d" unicode="d" horiz-adv-x="1197" 
d="M864 56q-127 -71 -254 -71t-222 40t-162 110q-138 144 -138 374q0 238 160 396q161 160 412 160q77 0 151 -20v445h245v-1069q0 -133 12.5 -174t28 -60t39.5 -36l-188 -166q-52 28 -84 71zM657 215q84 0 154 32v554q-70 29 -152 29t-140.5 -22t-100.5 -61
q-88 -82 -88 -213q0 -143 80 -228q86 -91 247 -91z" />
    <glyph glyph-name="e" unicode="e" horiz-adv-x="1197" 
d="M97 514q0 117 40 217t113 175q156 159 408 159q213 0 342 -141q127 -136 127 -342q0 -79 -12 -108q-100 -28 -407 -28h-352q26 -107 121 -166.5t247 -59.5q159 0 273 57q30 15 45 28q-2 -42 -5 -86l-11 -156q-76 -52 -246 -72q-50 -6 -96 -6q-254 0 -420 148
q-167 149 -167 381zM861 640q-41 215 -234 215q-152 0 -231 -131q-24 -40 -37 -88q24 -1 59 -2h74q37 -1 71 -1h57q51 0 100 1l82 3q33 1 59 3z" />
    <glyph glyph-name="f" unicode="f" horiz-adv-x="684" 
d="M646 930q-8 -29 -8 -146v-88h-241v-696h-245v696h-147q1 66 2 117l2 107v10h143v62q0 240 112 386q117 151 322 151q87 0 115 -12l1 -251l-2 -5q-38 38 -96.5 38t-94.5 -19.5t-61 -55.5q-51 -72 -51 -197v-97h249z" />
    <glyph glyph-name="g" unicode="g" 
d="M422 278q-37 -49 -37 -77.5t9 -44t39 -29.5q66 -31 217 -54.5t236.5 -58.5t138.5 -86q99 -97 99 -275t-125 -273.5t-371 -95.5q-248 0 -400 108t-156 287q-6 208 163 301q-46 38 -61.5 89.5t-15.5 117.5q0 111 97 188q-113 107 -113 266q0 178 128 298q135 126 350 126
q113 0 212 -42q130 55 191 96.5t78 60.5l6 -1q9 -24 21 -68l18 -72q24 -89 29 -122q-44 -48 -155 -68q43 -83 43 -176t-32 -168.5t-91 -132.5q-131 -123 -334 -123q-99 0 -184 29zM396 728q-14 -36 -14 -73t15.5 -71t45.5 -61q67 -60 175 -60q82 0 142 55q63 60 63 144.5
t-57 136.5t-157 52q-165 0 -213 -123zM641 -504q246 0 246 172q0 82 -80 132q-90 57 -309 89l-52 9q-66 -35 -97 -90t-30.5 -104.5t23.5 -85.5t64 -63q91 -59 235 -59z" />
    <glyph glyph-name="h" unicode="h" 
d="M418 112q0 -86 4 -112h-249v1430h245v-463q129 98 266 98q168 0 270 -111q100 -111 100 -294v-398q0 -169 5 -203t13.5 -44t14.5 -18l-2 -4q-81 7 -118 7h-71q-33 0 -87 -3v579q0 138 -61 204q-46 50 -125 50q-117 0 -205 -135v-583z" />
    <glyph glyph-name="i" unicode="i" horiz-adv-x="513" 
d="M115 1343q80 125 167 220l215 -169q-43 -53 -80 -104l-77 -109zM378 112q0 -86 4 -112h-254v1045h250v-933z" />
    <glyph glyph-name="j" unicode="j" horiz-adv-x="513" 
d="M95 1336q65 104 149 196l191 -151q-50 -64 -68 -88l-35 -49q-17 -23 -36 -52zM-16 -155q148 0 148 220v980h243v-908q0 -420 -239 -497q-78 -25 -177 -25l-104 263l2 5q57 -38 127 -38z" />
    <glyph glyph-name="k" unicode="k" 
d="M407 132q0 -86 7 -132h-252v1430h245v-876l457 491h297l-394 -415l225 -307q73 -116 110 -170l66 -93q30 -39 50 -60h-158q-88 0 -151 -15l-312 456l-190 -202v-107z" />
    <glyph glyph-name="l" unicode="l" horiz-adv-x="513" 
d="M379 112q0 -86 4 -112h-254v1490h250v-1378z" />
    <glyph glyph-name="m" unicode="m" horiz-adv-x="1710" 
d="M417 289q0 -225 8 -289h-261v1045h253v-90q137 110 281 110q170 0 247 -147q77 79 128 104q85 43 170.5 43t145.5 -29t99 -82q79 -107 79 -294v-398q0 -169 5 -203t13.5 -44t14.5 -18l-2 -4q-80 7 -118 7h-75q-37 0 -91 -3v541q0 234 -72 278q-24 14 -56.5 14t-57.5 -7.5
t-47 -24.5q-37 -27 -84 -106q1 -8 1 -16v-264t12 -412h-144.5t-113.5 -3v542q0 163 -19.5 212t-41.5 64t-54 15q-132 0 -220 -127v-414z" />
    <glyph glyph-name="n" unicode="n" horiz-adv-x="1197" 
d="M410 128q0 -88 8 -128h-251v1045h243v-89q132 109 282 109q164 0 262 -111.5t98 -293.5v-398q0 -169 5 -203t13.5 -44t14.5 -18l-2 -4q-81 7 -118 7h-70q-32 0 -86 -3v545q0 293 -178 293q-132 0 -221 -136v-571z" />
    <glyph glyph-name="o" unicode="o" horiz-adv-x="1197" 
d="M71 517q0 110 37.5 210.5t107.5 175.5q153 162 397 162q243 0 386 -153q137 -146 137 -379t-141 -386q-149 -162 -395 -162q-254 0 -398 159q-131 145 -131 373zM314 523q0 -63 21 -122t60 -101q83 -91 218 -91q125 0 197 89q70 86 70 224q0 140 -72 226q-77 92 -211 92
q-136 0 -213 -98q-70 -90 -70 -219z" />
    <glyph glyph-name="p" unicode="p" 
d="M407 21v-294q0 -86 4 -112h-249v1430h245v-65q121 85 232 85t197 -31t151 -96q143 -141 143 -402q0 -173 -81 -309q-69 -115 -191 -184q-108 -61 -234 -61t-217 39zM407 273q76 -64 197 -64q198 0 256 191q20 65 20 139.5t-14 119t-36.5 77t-50.5 54t-57 34.5
q-51 23 -105 23t-112 -25t-98 -67v-482z" />
    <glyph glyph-name="q" unicode="q" 
d="M844 -385q4 26 4 112v365q-124 -107 -275 -107q-207 0 -336 133q-135 138 -135 368q0 260 144 418q140 151 355 151q164 0 258 -52l234 42v-1430h-249zM848 769q-72 69 -230 69q-124 0 -198 -94q-73 -93 -73 -233q0 -208 148 -277q50 -24 118 -24q141 0 235 130v429z" />
    <glyph glyph-name="r" unicode="r" horiz-adv-x="684" 
d="M383 112q0 -86 4 -112h-249v1045h245v-77q85 97 178.5 97t147.5 -23l-18 -269l-4 -3q-35 62 -145 62q-42 0 -85.5 -28.5t-73.5 -75.5v-616z" />
    <glyph glyph-name="s" unicode="s" horiz-adv-x="1026" 
d="M499 -15q-282 0 -425 103q2 30 6 68l9 72q8 71 10 88.5t3 19t16 -16t57 -42.5t97 -44q119 -41 248 -41q173 0 173 115q0 37 -33 55q-59 30 -173.5 45.5t-187.5 45.5t-119 72q-85 79 -85 207q0 156 120 245q119 88 329 88q208 0 355 -118q-7 -26 -15 -50q-23 -66 -34 -95
l-23 -59q-2 -8 -3 -8q-2 0 -16 21q-63 73 -196 96q-41 8 -84 8q-182 0 -182 -110q0 -38 38 -58q71 -38 194.5 -56t187.5 -48.5t103 -73.5q72 -78 72 -207q0 -141 -113 -229q-118 -93 -329 -93z" />
    <glyph glyph-name="t" unicode="t" horiz-adv-x="855" 
d="M611 220q129 0 177 67h8l3 -232q-49 -49 -182 -65q-36 -5 -89.5 -5t-116 20t-106.5 65q-91 93 -91 291v454h-151q-1 29 -1 59v154q0 17 1 17h151v285h245v-285h275v-230h-275v-408q0 -157 87 -179q28 -8 65 -8z" />
    <glyph glyph-name="u" unicode="u" 
d="M773 91q-128 -106 -279 -106q-162 0 -254 109q-88 106 -88 291v397q0 200 -8.5 229.5t-12.5 37.5q46 -4 96 -4h83q33 0 87 3v-579q0 -206 112 -239q34 -10 74 -10q118 0 190 86v739h248v-917q0 -88 8 -128h-256v91z" />
    <glyph glyph-name="v" unicode="v" horiz-adv-x="1031" 
d="M-4 1045h283l244 -688l236 688h277l-413 -1045h-206z" />
    <glyph glyph-name="w" unicode="w" horiz-adv-x="1535" 
d="M7 1045h269l186 -751l200 751h230l207 -767l186 767h242l-308 -1045h-259l-198 685l-184 -685h-257z" />
    <glyph glyph-name="x" unicode="x" horiz-adv-x="1031" 
d="M374 533l-354 512h313l185 -319l200 319h291q-1 0 -22 -29l-326 -465l370 -551h-310l-200 339l-198 -339h-313z" />
    <glyph glyph-name="y" unicode="y" horiz-adv-x="1025" 
d="M51 -348l66 53q149 121 247 357l46 111l-383 872h280l240 -604l223 604h288q-52 -72 -127 -268l-150 -371q-301 -708 -472 -844z" />
    <glyph glyph-name="z" unicode="z" horiz-adv-x="1024" 
d="M145 998l-2 47h845l-510 -845h393q88 0 119 25l-66 -240q-44 3 -106 5l-124 6q-115 4 -217 4q-226 0 -421 -15l523 864h-248q-116 0 -190 -26q4 78 4 121v54z" />
    <glyph glyph-name="braceleft" unicode="{" horiz-adv-x="1026" 
d="M767 -93q-69 -12 -150 -12t-150 21t-113 57q-87 70 -87 187q0 114 86 203q27 61 41.5 98.5t14.5 72.5q0 81 -187 114v55q136 24 172 59q15 14 15 32t-2.5 33.5t-8.5 33.5q-12 32 -44 96q-87 83 -87 209q0 108 84 186q100 93 280 93q59 0 136 -12l-10 -203l-4 -2
q-28 7 -48.5 8.5t-45.5 4t-51 -4t-45 -18.5q-40 -27 -40 -65q0 -79 100 -175q58 -122 58 -185q0 -78 -159 -128q159 -51 159 -119q0 -60 -50 -171l-49 -57q-59 -69 -59 -115t43 -77q45 -34 108 -26q20 2 38.5 3.5t40.5 8.5l4 -2z" />
    <glyph glyph-name="bar" unicode="|" horiz-adv-x="929" 
d="M333 -170q4 64 4 119v1459q0 22 -5 122h265q-5 -100 -5 -183v-1405q0 -86 4 -112h-263z" />
    <glyph glyph-name="braceright" unicode="}" horiz-adv-x="1026" 
d="M221 -93q69 -12 150 -12t150 21t113 57q87 70 87 187q0 114 -86 203q-27 61 -41.5 98.5t-14.5 72.5q0 81 187 114v55q-136 24 -172 59q-15 14 -15 32t2.5 33.5t8.5 33.5q12 32 44 96q87 83 87 209q0 108 -84 186q-100 93 -280 93q-59 0 -136 -12l10 -203l4 -2
q28 7 48.5 8.5t45.5 4t51 -4t45 -18.5q40 -27 40 -65q0 -79 -100 -175q-58 -122 -58 -185q0 -78 159 -128q-159 -51 -159 -119q0 -60 50 -171l49 -57q59 -69 59 -115t-43 -77q-45 -34 -108 -26q-20 2 -38.5 3.5t-40.5 8.5l-4 -2z" />
    <glyph glyph-name="asciitilde" unicode="~" horiz-adv-x="1535" 
d="M1093 543q212 0 283 205l6 -3l19 -273q-87 -159 -338 -159q-136 0 -319 133q-113 82 -176 107t-114 25t-93 -9t-79 -31q-74 -43 -134 -145l-6 3l-8 276q122 142 347 142q121 0 319 -135.5t293 -135.5z" />
    <glyph glyph-name="nonbreakingspace" unicode="&#xa0;" horiz-adv-x="440" 
 />
    <glyph glyph-name="exclamdown" unicode="&#xa1;" horiz-adv-x="684" 
d="M214 988q51 -6 175 -6h80l2 -978l-91 4h-22q-116 0 -148 -8zM208 1122q4 50 4 127.5t-4 112.5h265q-8 -62 -8 -122.5t6 -117.5h-263z" />
    <glyph glyph-name="cent" unicode="&#xa2;" horiz-adv-x="1364" 
d="M650 -195q9 34 9 135v37q-225 18 -367 164q-141 145 -141 355q0 215 139 369q136 150 362 189v67q0 101 -9 135h269q-4 -58 -4 -124v-72q167 -13 264 -51l-28 -272l-9 -9q-80 68 -261 90q-53 7 -122 7t-137 -23.5t-113 -63.5q-89 -79 -89 -206q0 -138 100 -224
q107 -93 278 -93q204 0 330 113q39 35 59 79l7 -6l-14 -295q-85 -79 -258 -111v-66q4 -121 4 -124h-269z" />
    <glyph glyph-name="sterling" unicode="&#xa3;" horiz-adv-x="1359" 
d="M656 576q4 -40 4 -125.5t-36 -189.5q59 -11 86 -15t49.5 -9t48.5 -10q62 -12 120.5 -12t95 3t64.5 10q57 14 89 40l6 1l-8 -260q-84 -34 -202 -34q-43 0 -123 13l-117 20q-54 9 -86 15l-55 10q-40 7 -71 7q-45 0 -77 -7q-84 -43 -212 -59l-50 254q49 28 171 43
q52 117 52 190t-4 115h-175l-13 240h145q-12 77 -12 160t32 155t90 121q122 103 324 103q188 0 310 -43l-36 -250l-2 -5q-76 33 -163.5 45.5t-115.5 12.5q-184 0 -184 -163q0 -84 8 -136h256q109 0 132 6l3 -251q-48 5 -124 5h-220z" />
    <glyph glyph-name="currency" unicode="&#xa4;" horiz-adv-x="1535" 
d="M1167 865q60 -98 60 -214t-68 -215l77 -76q46 -47 91 -85l-191 -190q-22 36 -89 101l-90 90q-91 -37 -193 -37t-187 34l-88 -88q-72 -72 -89 -102l-190 191q23 19 46 40l122 122q-59 92 -59 205.5t57 209.5l-75 75q-65 67 -101 89l190 191q38 -45 85 -91l92 -93
q99 43 209 43t194 -35q137 136 173 179l191 -190q-30 -17 -102 -89zM569 652q0 -38 17 -71t46 -57q60 -49 147 -49q85 0 143 48q61 50 61 133q0 71 -57 123q-62 56 -153 56q-90 0 -149 -55q-55 -52 -55 -128z" />
    <glyph glyph-name="yen" unicode="&#xa5;" horiz-adv-x="1535" 
d="M662 0q13 39 13 182v188h-351v196h351v94h-351v196h217l-168 238q-116 167 -205 236h355q7 -31 52 -100l221 -368l218 368q45 81 42 100h310q-22 -12 -156 -230l-159 -244h83q110 0 132 6v-207q-48 5 -122 5h-214v-94h202q110 0 132 6v-207q-48 5 -130 5h-204v-212
q0 -100 12 -158h-280z" />
    <glyph glyph-name="brokenbar" unicode="&#xa6;" horiz-adv-x="929" 
d="M592 963q0 -86 4 -112h-263q4 64 4 77v480q0 22 -5 122h265q-5 -100 -5 -183v-384zM592 -58q0 -86 4 -112h-263l2 33q2 34 2 73v449q0 22 -5 122h265q-5 -100 -5 -183v-382z" />
    <glyph glyph-name="section" unicode="&#xa7;" horiz-adv-x="1364" 
d="M1020 175q135 -106 135 -247q0 -186 -163 -290q-145 -94 -346 -94q-163 0 -318 70q-45 21 -75 45l-11 306l3 2q47 -79 175 -137q126 -57 255 -57q95 0 145 24.5t69 45.5t19 47q0 105 -308 161q-316 57 -418 229q-34 56 -34 120q0 210 204 325q-145 116 -145 258
q0 160 139 263q146 109 397 109q172 0 305 -62q38 -18 63 -37l-38 -288l-5 -3q-81 108 -252 145q-58 12 -118.5 12t-103 -9.5t-72.5 -25.5q-62 -33 -62 -82q0 -82 166 -136q52 -17 146 -32.5t183 -51.5t147 -82q113 -91 113 -208q0 -208 -195 -320zM407 513
q-15 -23 -15 -50.5t27 -52t69.5 -44.5t94.5 -35t101 -26q77 -17 154 -28l56 39q52 36 65.5 62.5t13.5 54.5t-37 56t-96 51q-104 41 -273 72q-114 -29 -160 -99z" />
    <glyph glyph-name="dieresis" unicode="&#xa8;" horiz-adv-x="869" 
d="M787 1430q-4 -50 -4 -127.5t4 -112.5h-265q8 62 8 122.5t-6 117.5h263zM357 1430q-4 -50 -4 -127.5t4 -112.5h-265q8 62 8 122.5t-6 117.5h263z" />
    <glyph glyph-name="copyright" unicode="&#xa9;" horiz-adv-x="1877" 
d="M230.5 519q-57.5 127 -57.5 264t31 232.5t85 170.5t127.5 130t159.5 90q265 110 558 47q192 -41 334 -151q147 -114 206 -291q29 -89 29 -191.5t-27.5 -193.5t-78 -169t-120.5 -141.5t-155 -107.5q-177 -93 -363.5 -93t-326.5 48.5t-242 138.5t-159.5 217zM408 799
q0 -98 38 -181t107 -146q150 -137 380 -137q248 0 395 131q140 127 140 325q0 214 -144 349q-148 136 -388 136q-246 0 -390 -138q-138 -132 -138 -339zM1198 545q-76 -64 -237 -64q-171 0 -277 93q-102 90 -102 226q0 141 110 236q114 99 292 99q118 0 204 -40v-227h-1
q-44 41 -147 56q-29 5 -54 5q-90 0 -135.5 -34t-45.5 -88t52.5 -87t140.5 -33q85 0 162 39q23 12 36 25l2 -1v-205z" />
    <glyph glyph-name="ordfeminine" unicode="&#xaa;" 
d="M773 671q-101 -94 -229.5 -94t-206 32t-125.5 85q-92 100 -92 263q0 171 112 283q115 115 304 115q107 0 200 -58v64h255v-463q0 -169 81 -204l-2 -5l-198 -129q-52 17 -99 111zM736 1093q-90 42 -174.5 42t-135.5 -45t-51 -121t58 -124q60 -49 143.5 -49t159.5 42v255z
" />
    <glyph glyph-name="guillemotleft" unicode="&#xab;" horiz-adv-x="1364" 
d="M229 449q-28 49 -28 68q0 34 23 78l201 320h255l-227 -388l233 -387h-255zM706 449q-28 49 -28 68q0 34 23 78l201 320h255l-227 -388l233 -387h-255z" />
    <glyph glyph-name="logicalnot" unicode="&#xac;" horiz-adv-x="1535" 
d="M386 500q-76 0 -124 -5l3 247q23 -6 132 -6h739q110 0 132 6v-404q0 -76 5 -124l-247 3q6 23 6 132v151h-646z" />
    <glyph glyph-name="uni00AD" unicode="&#xad;" horiz-adv-x="1229" 
 />
    <glyph glyph-name="registered" unicode="&#xae;" horiz-adv-x="1872" 
d="M228.5 519q-57.5 127 -57.5 264t31 232.5t85 170.5t127.5 130t159.5 90q265 110 558 47q192 -41 334 -151q147 -114 206 -291q29 -89 29 -191.5t-27.5 -193.5t-78 -169t-120.5 -141.5t-155 -107.5q-177 -93 -363.5 -93t-326.5 48.5t-242 138.5t-159.5 217zM406 799
q0 -98 38 -181t107 -146q150 -137 380 -137q248 0 395 131q140 127 140 325q0 214 -144 349q-148 136 -388 136q-246 0 -390 -138q-138 -132 -138 -339zM986 639q-32 -4 -53 -4h-30q-9 0 -17 2v-142h-225v610q100 27 215 27t184 -20t114 -54q87 -67 87 -169t-82 -171
l54 -104q8 -15 19 -34q48 -80 56 -86l-2 -2q-23 3 -39 3h-43q-108 0 -164 -4zM932 804q113 0 113 89q0 33 -35.5 53t-71.5 20h-42q-5 0 -10 -1v-159q13 -2 24 -2h22z" />
    <glyph glyph-name="macron" unicode="&#xaf;" horiz-adv-x="929" 
d="M802 1523q-4 -50 -4 -76v-34q0 -8 4 -60h-675l3 26q5 33 5 60t-6 84h673z" />
    <glyph glyph-name="degree" unicode="&#xb0;" horiz-adv-x="1026" 
d="M505 732q-79 0 -143 26t-110 72q-99 96 -99 243q0 146 96 246q103 107 273 107q151 0 253 -108q97 -102 97 -238q0 -150 -103 -248q-106 -100 -264 -100zM451.5 936.5q30.5 -11.5 66 -11.5t63.5 11.5t49 32.5q43 45 43 114q0 105 -91 143q-30 13 -67.5 13t-66.5 -13
t-50 -34q-42 -45 -42 -95t11.5 -78.5t32.5 -49.5t51.5 -32.5z" />
    <glyph glyph-name="plusminus" unicode="&#xb1;" horiz-adv-x="1364" 
d="M800 578q0 -76 5 -124l-247 3q6 23 6 132v211h-213q-76 0 -124 -5l3 247q22 -6 132 -6h202v192q0 110 -6 132l247 3q-5 -48 -5 -124v-203h201q109 0 132 6l3 -247q-48 5 -124 5h-212v-222zM351 100q-76 0 -124 -5l3 227q22 -6 132 -6h639q109 0 132 6l3 -227
q-48 5 -124 5h-661z" />
    <glyph glyph-name="twosuperior" unicode="&#xb2;" horiz-adv-x="855" 
d="M657 603q-139 9 -252 9q-188 0 -306 -8l91 145q184 294 184 369q0 29 -17 52t-37 23t-41.5 -3.5t-42.5 -11.5q-48 -16 -77 -41l-7 -1l5 229q58 40 208 40q117 0 197 -57q82 -58 82 -158q0 -139 -140 -378h156q69 0 91 17l5 -2z" />
    <glyph glyph-name="threesuperior" unicode="&#xb3;" horiz-adv-x="855" 
d="M593 1054q61 -32 98 -86.5t37 -115.5t-23.5 -107.5t-67.5 -78.5q-91 -68 -247 -68q-179 0 -276 73l-2 199l5 6q50 -50 188 -72q40 -7 78 -7q114 0 114 63q0 25 -20 40q-37 29 -71.5 29t-50.5 -2t-29 -4q-28 -4 -31 -7l-3 5l5 155q30 15 91 15h1q52 20 52 55
q0 66 -93.5 66t-164.5 -42l-2 3l-7 190q78 52 234 52q123 0 200 -51q76 -52 76 -148t-91 -162z" />
    <glyph glyph-name="acute" unicode="&#xb4;" horiz-adv-x="855" 
d="M412 1503q150 0 320 17l-1 -7l-262 -323h-226z" />
    <glyph glyph-name="mu" unicode="&#xb5;" horiz-adv-x="1364" 
d="M356 -407q-113 84 -113 362v865q0 142 -13 229q46 -4 92 -4h79q33 0 87 3v-746q66 -82 197 -82q86 0 149 61v764h245v-671q0 -154 106 -154q53 0 81 32h8l-57 -248q-33 -19 -106 -19q-137 0 -215 100q-125 -100 -263 -100q-86 0 -168 41q6 -238 92 -297v-5z" />
    <glyph glyph-name="mu" unicode="&#x3bc;" horiz-adv-x="1364" 
d="M356 -407q-113 84 -113 362v865q0 142 -13 229q46 -4 92 -4h79q33 0 87 3v-746q66 -82 197 -82q86 0 149 61v764h245v-671q0 -154 106 -154q53 0 81 32h8l-57 -248q-33 -19 -106 -19q-137 0 -215 100q-125 -100 -263 -100q-86 0 -168 41q6 -238 92 -297v-5z" />
    <glyph glyph-name="paragraph" unicode="&#xb6;" horiz-adv-x="1364" 
d="M538 22q-59 -22 -141 -22t-146 28v239l7 2q54 -30 97.5 -30t60.5 6t28 21q23 29 23 103v194q-168 6 -265 124q-86 104 -86 257q0 279 286 360q94 26 219 26h569q-8 -82 -8 -239v-979q0 -86 4 -112h-249v1092q-48 3 -83 3h-67q-32 0 -65 -1v-627q0 -374 -184 -445z" />
    <glyph glyph-name="periodcentered" unicode="&#xb7;" horiz-adv-x="510" 
d="M109 600q9 61 9 108t-0.5 64.5t-1.5 34.5t-2 32l-3 25h290q-3 -38 -3 -62l-2 -42v-71.5t5 -88.5h-292z" />
    <glyph glyph-name="cedilla" unicode="&#xb8;" horiz-adv-x="673" 
d="M449 40l7 -51q9 -56 9 -140t-22.5 -139t-51.5 -72q-59 -38 -215 -70l-6 6q70 99 70 426z" />
    <glyph glyph-name="onesuperior" unicode="&#xb9;" horiz-adv-x="684" 
d="M219 1390h245v-790h-245v790z" />
    <glyph glyph-name="ordmasculine" unicode="&#xba;" 
d="M584 577q-102 0 -183.5 34t-134.5 88q-106 106 -106 258q0 169 125 283q126 115 316 115q185 0 307 -107q124 -109 124 -276q0 -163 -127 -278q-128 -117 -321 -117zM522.5 806q37.5 -13 79 -13t75 13t57.5 36q54 49 54 117q0 75 -58 125q-56 51 -122 51t-101.5 -16
t-59.5 -41q-47 -49 -47 -100t15.5 -82t42.5 -54t64.5 -36z" />
    <glyph glyph-name="guillemotright" unicode="&#xbb;" horiz-adv-x="1364" 
d="M657 449q28 49 28 68q0 34 -23 78l-201 320h-255l227 -388l-233 -387h255zM1134 449q28 49 28 68q0 34 -23 78l-201 320h-255l227 -388l-233 -387h255z" />
    <glyph glyph-name="onequarter" unicode="&#xbc;" horiz-adv-x="2038" 
d="M250 1390h245v-790h-245v790zM1102 1330h245l-750 -1330h-245zM1636 363q94 0 148 14l3 -3l-62 -231h-110v-143h-245v143h-386l-20 44l311 583l340 -1v-406h21zM1370 363v237l-96 -237h96z" />
    <glyph glyph-name="onehalf" unicode="&#xbd;" horiz-adv-x="2043" 
d="M277 1390h245v-790h-245v790zM1105 1330h245l-750 -1330h-245zM1666 -8q-293 19 -558 1l91 145q184 294 184 369q0 29 -17 52t-37 23t-41.5 -3.5t-43.5 -10.5q-47 -17 -76 -42l-7 -1l5 229q58 40 208 40q117 0 196 -56q83 -59 83 -159q0 -139 -140 -378h156q69 0 91 17
l5 -2z" />
    <glyph glyph-name="threequarters" unicode="&#xbe;" horiz-adv-x="2214" 
d="M1314 1330h245l-750 -1330h-245zM1846 363q94 0 148 14l3 -3l-62 -231h-110v-143h-245v143h-386l-20 44l311 583l340 -1v-406h21zM1580 363v237l-96 -237h96zM697 1054q61 -32 98 -86.5t37 -115.5t-23.5 -107.5t-67.5 -78.5q-91 -68 -247 -68q-179 0 -276 73l-2 199l5 6
q50 -50 188 -72q40 -7 78 -7q114 0 114 63q0 25 -20 40q-37 29 -71.5 29t-50.5 -2t-29 -4q-28 -4 -31 -7l-3 5l5 155q30 15 91 15h1q52 20 52 55q0 66 -93.5 66t-164.5 -42l-2 3l-7 190q78 52 234 52q123 0 200 -51q76 -52 76 -148t-91 -162z" />
    <glyph glyph-name="questiondown" unicode="&#xbf;" horiz-adv-x="1026" 
d="M359 877q87 65 188 113q125 -48 125 -178q0 -56 -29 -103q-58 -90 -169 -183q-81 -68 -103 -100q-33 -48 -33 -89t17 -69.5t47 -48.5q61 -41 154 -41q122 0 219 83q33 28 54 68l7 2q-3 -44 9 -89l42 -150q-142 -134 -367 -134q-191 0 -319 109q-120 104 -120 249
q0 72 30 124q49 86 128 155.5t109 100.5t45 52q23 32 23 61t-17.5 46.5t-39.5 21.5zM381 1093q4 50 4 127.5t-4 112.5h265q-8 -62 -8 -122.5t6 -117.5h-263z" />
    <glyph glyph-name="Agrave" unicode="&#xc0;" horiz-adv-x="1197" 
d="M269 -8q-86 8 -201 8h-79l435 1219q29 82 29 95.5t-1 16.5l1 2q65 -3 138 -3q60 0 144 2l1 -2q-2 -4 -2 -11q0 -19 30 -101l444 -1221q-20 1 -47 1l-52 2h-45h-155l-94 288h-452zM737 528l-151 465l-147 -465h298zM354 1805q170 -17 320 -17l169 -313h-226l-262 323z" />
    <glyph glyph-name="Aacute" unicode="&#xc1;" horiz-adv-x="1197" 
d="M269 -8q-86 8 -201 8h-79l435 1219q29 82 29 95.5t-1 16.5l1 2q65 -3 138 -3q60 0 144 2l1 -2q-2 -4 -2 -11q0 -19 30 -101l444 -1221q-20 1 -47 1l-52 2h-45h-155l-94 288h-452zM737 528l-151 465l-147 -465h298zM523 1788q150 0 320 17l-1 -7l-262 -323h-226z" />
    <glyph glyph-name="Acircumflex" unicode="&#xc2;" horiz-adv-x="1197" 
d="M269 -8q-86 8 -201 8h-79l435 1219q29 82 29 95.5t-1 16.5l1 2q65 -3 138 -3q60 0 144 2l1 -2q-2 -4 -2 -11q0 -19 30 -101l444 -1221q-20 1 -47 1l-52 2h-45h-155l-94 288h-452zM737 528l-151 465l-147 -465h298zM497 1473q-215 0 -263 -3l-3 3l242 331q24 -3 66 -3h51
l121 3l255 -331l-4 -3l-255 3l-113 177z" />
    <glyph glyph-name="Atilde" unicode="&#xc3;" horiz-adv-x="1197" 
d="M269 -8q-86 8 -201 8h-79l435 1219q29 82 29 95.5t-1 16.5l1 2q65 -3 138 -3q60 0 144 2l1 -2q-2 -4 -2 -11q0 -19 30 -101l444 -1221q-20 1 -47 1l-52 2h-45h-155l-94 288h-452zM737 528l-151 465l-147 -465h298zM435 1565q-94 0 -167 -75l-4 1l-4 199q68 80 185 80
q92 0 171 -54.5t163 -54.5q119 0 156 84l2 -2l-10 -216q-17 -30 -61 -49.5t-92 -19.5t-77.5 8t-54.5 20t-46.5 25.5t-45.5 25.5q-56 28 -115 28z" />
    <glyph glyph-name="Adieresis" unicode="&#xc4;" horiz-adv-x="1197" 
d="M269 -8q-86 8 -201 8h-79l435 1219q29 82 29 95.5t-1 16.5l1 2q65 -3 138 -3q60 0 144 2l1 -2q-2 -4 -2 -11q0 -19 30 -101l444 -1221q-20 1 -47 1l-52 2h-45h-155l-94 288h-452zM737 528l-151 465l-147 -465h298zM946 1715q-4 -50 -4 -127.5t4 -112.5h-265q8 62 8 122.5
t-6 117.5h263zM516 1715q-4 -50 -4 -127.5t4 -112.5h-265q8 62 8 122.5t-6 117.5h263z" />
    <glyph glyph-name="Aring" unicode="&#xc5;" horiz-adv-x="1197" 
d="M269 -8q-86 8 -201 8h-79l435 1219q29 82 29 95.5t-1 16.5l1 2q65 -3 138 -3q60 0 144 2l1 -2q-2 -4 -2 -11q0 -19 30 -101l444 -1221q-20 1 -47 1l-52 2h-45h-155l-94 288h-452zM737 528l-151 465l-147 -465h298zM592 1367q-61 0 -111 16t-86 46q-76 63 -76 172
q0 107 75 173q76 69 212 69q120 0 196 -69q75 -67 75 -168q0 -110 -80 -175q-78 -64 -205 -64zM546 1516q23 -8 49.5 -8t47.5 7.5t37 20.5q35 30 35 59.5t-7.5 47t-22.5 31.5q-34 33 -77.5 33t-65.5 -9t-36 -24q-28 -27 -28 -57t7.5 -48t22.5 -31.5t38 -21.5z" />
    <glyph glyph-name="AE" unicode="&#xc6;" horiz-adv-x="1706" 
d="M279 -8q-108 8 -215 8h-79l702 1219l33 55q17 26 17 38.5t-2 18.5l1 2q64 -3 138 -3h209h119l119 2q131 1 267 6q-11 -88 -11 -235q0 -16 2 -24l-2 -3q-53 15 -148 15h-331v-255h262q110 0 132 6l3 -247q-48 5 -124 5h-273v-360h424q62 0 86 12l4 -1l-10 -251h-759l2 288
h-407zM847 528l4 529l-284 -529h280z" />
    <glyph glyph-name="Ccedilla" unicode="&#xc7;" horiz-adv-x="1188" 
d="M790 -20q7 -56 7 -135.5t-22.5 -134.5t-51.5 -72q-59 -38 -215 -70l-6 6q49 70 66 298q4 61 4 112q-247 37 -387 224q-133 179 -133 451q0 323 182 509q184 187 515 187q206 0 338 -65v-306l-2 -2q-56 86 -236 114q-53 9 -134 9t-159 -30.5t-128 -86.5q-97 -109 -97 -311
q0 -235 123 -350q102 -96 270 -96q190 0 308 81q43 29 73 72l3 -2v-280q-122 -102 -318 -122z" />
    <glyph glyph-name="Egrave" unicode="&#xc8;" horiz-adv-x="1026" 
d="M841 240q62 0 86 12l4 -1l-10 -251h-749v1337q27 -2 60 -3l70 -2q70 -2 152 -2q229 0 453 8q-11 -88 -11 -235q0 -16 2 -24l-2 -3q-52 15 -148 15h-315v-255h237q110 0 132 6l3 -247q-48 5 -124 5h-248v-360h408zM292 1805q170 -17 320 -17l169 -313h-226l-262 323z" />
    <glyph glyph-name="Eacute" unicode="&#xc9;" horiz-adv-x="1026" 
d="M841 240q62 0 86 12l4 -1l-10 -251h-749v1337q27 -2 60 -3l70 -2q70 -2 152 -2q229 0 453 8q-11 -88 -11 -235q0 -16 2 -24l-2 -3q-52 15 -148 15h-315v-255h237q110 0 132 6l3 -247q-48 5 -124 5h-248v-360h408zM461 1788q150 0 320 17l-1 -7l-262 -323h-226z" />
    <glyph glyph-name="Ecircumflex" unicode="&#xca;" horiz-adv-x="1026" 
d="M841 240q62 0 86 12l4 -1l-10 -251h-749v1337q27 -2 60 -3l70 -2q70 -2 152 -2q229 0 453 8q-11 -88 -11 -235q0 -16 2 -24l-2 -3q-52 15 -148 15h-315v-255h237q110 0 132 6l3 -247q-48 5 -124 5h-248v-360h408zM435 1473q-215 0 -263 -3l-3 3l242 331q24 -3 66 -3h51
l121 3l255 -331l-4 -3l-255 3l-113 177z" />
    <glyph glyph-name="Edieresis" unicode="&#xcb;" horiz-adv-x="1026" 
d="M841 240q62 0 86 12l4 -1l-10 -251h-749v1337q27 -2 60 -3l70 -2q70 -2 152 -2q229 0 453 8q-11 -88 -11 -235q0 -16 2 -24l-2 -3q-52 15 -148 15h-315v-255h237q110 0 132 6l3 -247q-48 5 -124 5h-248v-360h408zM884 1715q-4 -50 -4 -127.5t4 -112.5h-265q8 62 8 122.5
t-6 117.5h263zM454 1715q-4 -50 -4 -127.5t4 -112.5h-265q8 62 8 122.5t-6 117.5h263z" />
    <glyph glyph-name="Igrave" unicode="&#xcc;" horiz-adv-x="684" 
d="M203 1334q100 -4 121 -4h72q53 0 85 8l-1 -1338h-277v1334zM86 1805q170 -17 320 -17l169 -313h-226l-262 323z" />
    <glyph glyph-name="Iacute" unicode="&#xcd;" horiz-adv-x="684" 
d="M203 1334q100 -4 121 -4h72q53 0 85 8l-1 -1338h-277v1334zM255 1788q150 0 320 17l-1 -7l-262 -323h-226z" />
    <glyph glyph-name="Icircumflex" unicode="&#xce;" horiz-adv-x="684" 
d="M203 1334q100 -4 121 -4h72q53 0 85 8l-1 -1338h-277v1334zM229 1473q-215 0 -263 -3l-3 3l242 331q24 -3 66 -3h51l121 3l255 -331l-4 -3l-255 3l-113 177z" />
    <glyph glyph-name="Idieresis" unicode="&#xcf;" horiz-adv-x="684" 
d="M203 1334q100 -4 121 -4h72q53 0 85 8l-1 -1338h-277v1334zM678 1715q-4 -50 -4 -127.5t4 -112.5h-265q8 62 8 122.5t-6 117.5h263zM248 1715q-4 -50 -4 -127.5t4 -112.5h-265q8 62 8 122.5t-6 117.5h263z" />
    <glyph glyph-name="Eth" unicode="&#xd0;" horiz-adv-x="1364" 
d="M496 -25q-162 0 -305 26v547h-99v236h99v555q132 16 306.5 16t316 -47.5t236.5 -135.5q192 -176 192 -493q0 -355 -214 -539q-192 -165 -532 -165zM451 219q65 -12 130 -12t140 25.5t130 79.5q118 114 118 332q0 358 -261 440q-86 27 -199 27h-27q-15 0 -31 -1v-326h300
v-236h-300v-329z" />
    <glyph glyph-name="Ntilde" unicode="&#xd1;" horiz-adv-x="1359" 
d="M181 0q6 34 6 74v1256h200l530 -834v766q0 55 -10 68h270q-5 -40 -5 -88v-1242h-208l-522 801v-801h-261zM516 1565q-94 0 -167 -75l-4 1l-4 199q68 80 185 80q92 0 171 -54.5t163 -54.5q119 0 156 84l2 -2l-10 -216q-17 -30 -61 -49.5t-92 -19.5t-77.5 8t-54.5 20
t-46.5 25.5t-45.5 25.5q-56 28 -115 28z" />
    <glyph glyph-name="Ograve" unicode="&#xd2;" horiz-adv-x="1535" 
d="M137.5 367q-52.5 122 -52.5 267.5t49 275.5t140 229t220 157.5t289 58.5q276 0 465 -174q202 -186 202 -502q0 -306 -208 -509q-128 -125 -305 -172q-87 -23 -203.5 -23t-239 48t-213.5 135t-143.5 209zM363 648q0 -93 31 -171t86 -134q117 -118 301 -118q175 0 281 113
q108 117 108 319q0 190 -103 317q-111 136 -304 136q-187 0 -297 -138q-103 -129 -103 -324zM523 1805q170 -17 320 -17l169 -313h-226l-262 323z" />
    <glyph glyph-name="Oacute" unicode="&#xd3;" horiz-adv-x="1535" 
d="M137.5 367q-52.5 122 -52.5 267.5t49 275.5t140 229t220 157.5t289 58.5q276 0 465 -174q202 -186 202 -502q0 -306 -208 -509q-128 -125 -305 -172q-87 -23 -203.5 -23t-239 48t-213.5 135t-143.5 209zM363 648q0 -93 31 -171t86 -134q117 -118 301 -118q175 0 281 113
q108 117 108 319q0 190 -103 317q-111 136 -304 136q-187 0 -297 -138q-103 -129 -103 -324zM692 1788q150 0 320 17l-1 -7l-262 -323h-226z" />
    <glyph glyph-name="Ocircumflex" unicode="&#xd4;" horiz-adv-x="1535" 
d="M137.5 367q-52.5 122 -52.5 267.5t49 275.5t140 229t220 157.5t289 58.5q276 0 465 -174q202 -186 202 -502q0 -306 -208 -509q-128 -125 -305 -172q-87 -23 -203.5 -23t-239 48t-213.5 135t-143.5 209zM363 648q0 -93 31 -171t86 -134q117 -118 301 -118q175 0 281 113
q108 117 108 319q0 190 -103 317q-111 136 -304 136q-187 0 -297 -138q-103 -129 -103 -324zM666 1473q-215 0 -263 -3l-3 3l242 331q24 -3 66 -3h51l121 3l255 -331l-4 -3l-255 3l-113 177z" />
    <glyph glyph-name="Otilde" unicode="&#xd5;" horiz-adv-x="1535" 
d="M137.5 367q-52.5 122 -52.5 267.5t49 275.5t140 229t220 157.5t289 58.5q276 0 465 -174q202 -186 202 -502q0 -306 -208 -509q-128 -125 -305 -172q-87 -23 -203.5 -23t-239 48t-213.5 135t-143.5 209zM363 648q0 -93 31 -171t86 -134q117 -118 301 -118q175 0 281 113
q108 117 108 319q0 190 -103 317q-111 136 -304 136q-187 0 -297 -138q-103 -129 -103 -324zM604 1565q-94 0 -167 -75l-4 1l-4 199q68 80 185 80q92 0 171 -54.5t163 -54.5q119 0 156 84l2 -2l-10 -216q-17 -30 -61 -49.5t-92 -19.5t-77.5 8t-54.5 20t-46.5 25.5
t-45.5 25.5q-56 28 -115 28z" />
    <glyph glyph-name="Odieresis" unicode="&#xd6;" horiz-adv-x="1535" 
d="M137.5 367q-52.5 122 -52.5 267.5t49 275.5t140 229t220 157.5t289 58.5q276 0 465 -174q202 -186 202 -502q0 -306 -208 -509q-128 -125 -305 -172q-87 -23 -203.5 -23t-239 48t-213.5 135t-143.5 209zM363 648q0 -93 31 -171t86 -134q117 -118 301 -118q175 0 281 113
q108 117 108 319q0 190 -103 317q-111 136 -304 136q-187 0 -297 -138q-103 -129 -103 -324zM1115 1715q-4 -50 -4 -127.5t4 -112.5h-265q8 62 8 122.5t-6 117.5h263zM685 1715q-4 -50 -4 -127.5t4 -112.5h-265q8 62 8 122.5t-6 117.5h263z" />
    <glyph glyph-name="multiply" unicode="&#xd7;" horiz-adv-x="1364" 
d="M271 384q23 13 97 89l142 142l-135 136q-74 76 -97 89l172 177q38 -45 85 -91l143 -143l142 142q76 74 89 97l177 -172q-45 -38 -91 -85l-150 -150l157 -156q46 -47 91 -85l-177 -172q-13 23 -89 97l-149 149l-150 -150q-47 -46 -85 -91z" />
    <glyph glyph-name="Oslash" unicode="&#xd8;" horiz-adv-x="1535" 
d="M730 -25q-120 0 -248 53l-116 -198h-196l165 282q-115 88 -182.5 221t-67.5 290t49 287t140 229t220 157.5t276 58.5t266 -45l128 220h196l-175 -299q265 -189 265 -552q0 -306 -208 -509q-199 -195 -512 -195zM905 1087q-66 23 -153 23t-161.5 -37.5t-124.5 -100.5
q-103 -129 -103 -324q0 -181 111 -298zM615 255q81 -30 166.5 -30t157 29t123.5 84q108 117 108 319q0 209 -123 338z" />
    <glyph glyph-name="Ugrave" unicode="&#xd9;" horiz-adv-x="1368" 
d="M930 1335q62 -5 103 -5h83q42 0 88 8v-827q0 -246 -149 -395q-141 -141 -354 -141q-233 0 -377 121q-161 136 -161 392v847q83 -5 156.5 -5t121.5 8v-863q0 -126 77 -196q72 -64 180 -64q160 0 213 164q19 59 19 146v810zM439 1805q170 -17 320 -17l169 -313h-226
l-262 323z" />
    <glyph glyph-name="Uacute" unicode="&#xda;" horiz-adv-x="1368" 
d="M930 1335q62 -5 103 -5h83q42 0 88 8v-827q0 -246 -149 -395q-141 -141 -354 -141q-233 0 -377 121q-161 136 -161 392v847q83 -5 156.5 -5t121.5 8v-863q0 -126 77 -196q72 -64 180 -64q160 0 213 164q19 59 19 146v810zM608 1788q150 0 320 17l-1 -7l-262 -323h-226z
" />
    <glyph glyph-name="Ucircumflex" unicode="&#xdb;" horiz-adv-x="1368" 
d="M930 1335q62 -5 103 -5h83q42 0 88 8v-827q0 -246 -149 -395q-141 -141 -354 -141q-233 0 -377 121q-161 136 -161 392v847q83 -5 156.5 -5t121.5 8v-863q0 -126 77 -196q72 -64 180 -64q160 0 213 164q19 59 19 146v810zM582 1473q-215 0 -263 -3l-3 3l242 331
q24 -3 66 -3h51l121 3l255 -331l-4 -3l-255 3l-113 177z" />
    <glyph glyph-name="Udieresis" unicode="&#xdc;" horiz-adv-x="1368" 
d="M930 1335q62 -5 103 -5h83q42 0 88 8v-827q0 -246 -149 -395q-141 -141 -354 -141q-233 0 -377 121q-161 136 -161 392v847q83 -5 156.5 -5t121.5 8v-863q0 -126 77 -196q72 -64 180 -64q160 0 213 164q19 59 19 146v810zM1031 1715q-4 -50 -4 -127.5t4 -112.5h-265
q8 62 8 122.5t-6 117.5h263zM601 1715q-4 -50 -4 -127.5t4 -112.5h-265q8 62 8 122.5t-6 117.5h263z" />
    <glyph glyph-name="Yacute" unicode="&#xdd;" 
d="M451 0q13 39 13 182v278q-173 381 -221 475.5t-81 149.5q-104 176 -125.5 202t-43.5 43h345q11 -20 30 -59l242 -511q17 42 40 94q218 469 221 476h330q-51 -41 -125 -172q-23 -39 -46 -89l-226 -471q-38 -85 -65 -153v-287q0 -100 12 -158h-300zM521 1788q150 0 320 17
l-1 -7l-262 -323h-226z" />
    <glyph glyph-name="Thorn" unicode="&#xde;" 
d="M738.5 223q-107.5 -31 -197 -31t-114.5 3v-195h-255v1330h255v-196q309 0 481 -132q164 -126 164 -339q0 -227 -152 -349q-74 -60 -181.5 -91zM628.5 883.5q-57.5 20.5 -112.5 20.5t-89 -4v-476q39 -3 71 -3q146 0 227 57t81 164q0 115 -80 186q-40 35 -97.5 55.5z" />
    <glyph glyph-name="germandbls" unicode="&#xdf;" 
d="M774 213q161 0 161 146q0 92 -190 187q-115 68 -150 111q-58 70 -58 134t21 110t57 85.5t50.5 61.5t22.5 40q15 32 15 56t-8.5 39t-24.5 27q-36 26 -87.5 26t-89 -17.5t-64.5 -62.5q-57 -93 -57 -307v-894q0 -152 -22 -217q-35 -104 -91 -145l-201 131v5q46 31 58 146
q11 100 11 396v539q0 635 475 635q148 0 248 -81t100 -202q0 -82 -56 -156q-22 -29 -48 -55.5t-37 -39.5t-17 -23q-11 -20 -11 -35t8.5 -28.5t30.5 -32.5q49 -42 131 -92.5t123.5 -91.5t65.5 -86q42 -79 42 -170.5t-24 -151.5t-72 -108q-107 -107 -291 -107q-165 0 -248 55
l-10 250l4 5q50 -49 107 -65.5t126 -16.5z" />
    <glyph glyph-name="agrave" unicode="&#xe0;" 
d="M837 62q-142 -77 -257 -77t-197 21.5t-139 63.5q-116 85 -116 246q0 144 142 240q154 104 418 104l40 -1q12 -1 27 -1.5t27 -2.5q-8 160 -138 187q-43 9 -91.5 9t-95 -8.5t-90.5 -22.5q-97 -31 -139 -71l-3 2l-30 221q177 93 387 93q326 0 417 -235q29 -75 29 -169v-362
q0 -116 82 -158l-181 -166q-57 30 -92 87zM783 475q-27 5 -56 5h-40q-221 0 -281 -98q-18 -29 -18 -61t11.5 -56.5t38.5 -40.5q52 -30 154.5 -30t191.5 49q-1 11 -1 23v209zM280 1520q170 -17 320 -17l169 -313h-226l-262 323z" />
    <glyph glyph-name="aacute" unicode="&#xe1;" 
d="M837 62q-142 -77 -257 -77t-197 21.5t-139 63.5q-116 85 -116 246q0 144 142 240q154 104 418 104l40 -1q12 -1 27 -1.5t27 -2.5q-8 160 -138 187q-43 9 -91.5 9t-95 -8.5t-90.5 -22.5q-97 -31 -139 -71l-3 2l-30 221q177 93 387 93q326 0 417 -235q29 -75 29 -169v-362
q0 -116 82 -158l-181 -166q-57 30 -92 87zM783 475q-27 5 -56 5h-40q-221 0 -281 -98q-18 -29 -18 -61t11.5 -56.5t38.5 -40.5q52 -30 154.5 -30t191.5 49q-1 11 -1 23v209zM569 1503q150 0 320 17l-1 -7l-262 -323h-226z" />
    <glyph glyph-name="acircumflex" unicode="&#xe2;" 
d="M837 62q-142 -77 -257 -77t-197 21.5t-139 63.5q-116 85 -116 246q0 144 142 240q154 104 418 104l40 -1q12 -1 27 -1.5t27 -2.5q-8 160 -138 187q-43 9 -91.5 9t-95 -8.5t-90.5 -22.5q-97 -31 -139 -71l-3 2l-30 221q177 93 387 93q326 0 417 -235q29 -75 29 -169v-362
q0 -116 82 -158l-181 -166q-57 30 -92 87zM783 475q-27 5 -56 5h-40q-221 0 -281 -98q-18 -29 -18 -61t11.5 -56.5t38.5 -40.5q52 -30 154.5 -30t191.5 49q-1 11 -1 23v209zM483 1188q-215 0 -263 -3l-3 3l242 331q24 -3 66 -3h51l121 3l255 -331l-4 -3l-255 3l-113 177z
" />
    <glyph glyph-name="atilde" unicode="&#xe3;" 
d="M837 62q-142 -77 -257 -77t-197 21.5t-139 63.5q-116 85 -116 246q0 144 142 240q154 104 418 104l40 -1q12 -1 27 -1.5t27 -2.5q-8 160 -138 187q-43 9 -91.5 9t-95 -8.5t-90.5 -22.5q-97 -31 -139 -71l-3 2l-30 221q177 93 387 93q326 0 417 -235q29 -75 29 -169v-362
q0 -116 82 -158l-181 -166q-57 30 -92 87zM783 475q-27 5 -56 5h-40q-221 0 -281 -98q-18 -29 -18 -61t11.5 -56.5t38.5 -40.5q52 -30 154.5 -30t191.5 49q-1 11 -1 23v209zM421 1280q-94 0 -167 -75l-4 1l-4 199q68 80 185 80q92 0 171 -54.5t163 -54.5q119 0 156 84l2 -2
l-10 -216q-17 -30 -61 -49.5t-92 -19.5t-77.5 8t-54.5 20t-46.5 25.5t-45.5 25.5q-56 28 -115 28z" />
    <glyph glyph-name="adieresis" unicode="&#xe4;" 
d="M837 62q-142 -77 -257 -77t-197 21.5t-139 63.5q-116 85 -116 246q0 144 142 240q154 104 418 104l40 -1q12 -1 27 -1.5t27 -2.5q-8 160 -138 187q-43 9 -91.5 9t-95 -8.5t-90.5 -22.5q-97 -31 -139 -71l-3 2l-30 221q177 93 387 93q326 0 417 -235q29 -75 29 -169v-362
q0 -116 82 -158l-181 -166q-57 30 -92 87zM783 475q-27 5 -56 5h-40q-221 0 -281 -98q-18 -29 -18 -61t11.5 -56.5t38.5 -40.5q52 -30 154.5 -30t191.5 49q-1 11 -1 23v209zM932 1430q-4 -50 -4 -127.5t4 -112.5h-265q8 62 8 122.5t-6 117.5h263zM502 1430q-4 -50 -4 -127.5
t4 -112.5h-265q8 62 8 122.5t-6 117.5h263z" />
    <glyph glyph-name="aring" unicode="&#xe5;" 
d="M837 62q-142 -77 -257 -77t-197 21.5t-139 63.5q-116 85 -116 246q0 144 142 240q154 104 418 104l40 -1q12 -1 27 -1.5t27 -2.5q-8 160 -138 187q-43 9 -91.5 9t-95 -8.5t-90.5 -22.5q-97 -31 -139 -71l-3 2l-30 221q177 93 387 93q326 0 417 -235q29 -75 29 -169v-362
q0 -116 82 -158l-181 -166q-57 30 -92 87zM783 475q-27 5 -56 5h-40q-221 0 -281 -98q-18 -29 -18 -61t11.5 -56.5t38.5 -40.5q52 -30 154.5 -30t191.5 49q-1 11 -1 23v209zM578 1180q-61 0 -111 16t-86 46q-76 63 -76 172q0 107 75 174q76 68 212 68q120 0 196 -69
q75 -67 75 -168q0 -110 -80 -175q-78 -64 -205 -64zM532 1329q23 -8 49.5 -8t47.5 7.5t37 21.5q35 29 35 58.5t-7.5 47t-22.5 32.5q-34 32 -77.5 32t-65.5 -9t-36 -23q-28 -28 -28 -58t7.5 -48t22.5 -31.5t38 -21.5z" />
    <glyph glyph-name="ae" unicode="&#xe6;" horiz-adv-x="1877" 
d="M892 104q-154 -119 -369 -119q-183 0 -292 99q-106 97 -106 248q0 165 149 276q152 113 380 113q30 0 47 -3q-37 141 -211 141q-117 0 -216 -83q-31 -26 -54 -57l-3 2l-30 231q143 113 354.5 113t329.5 -149q153 149 407 149q202 0 340 -135q139 -135 139 -348
q0 -58 -12 -106q-111 -30 -417 -30h-166.5t-121 0.5t-81.5 0.5q26 -108 123 -167.5t273 -59.5t306 106q-5 -111 -15 -263q-80 -52 -244 -72q-50 -6 -98 -6q-257 0 -412 119zM978 666q27 -1 64 -2h73q37 -1 71 -1h54q56 0 112 1l92 3q36 1 64 3q-34 114 -170 153
q-43 12 -89.5 12t-87 -12t-75.5 -33q-71 -44 -108 -124zM765 271q-58 98 -58 241q-20 3 -68 3t-101.5 -12t-91.5 -33q-76 -44 -76 -115t48.5 -113.5t122.5 -42.5q138 0 224 72z" />
    <glyph glyph-name="ccedilla" unicode="&#xe7;" horiz-adv-x="1026" 
d="M632 -15q8 -54 8 -137t-22.5 -138t-51.5 -72q-59 -38 -215 -70l-6 6q70 99 70 426l33 6q-165 44 -264 176q-99 133 -99 324q0 241 147 396q156 163 417 163q185 0 310 -81l-40 -256l-7 1q-48 58 -101 76q-86 30 -172 30t-135 -22t-84 -61q-70 -80 -70 -212
q0 -234 162 -306q56 -24 118.5 -24t109 11t84.5 30q81 40 110 93l7 -3l23 -244q-108 -108 -332 -112z" />
    <glyph glyph-name="egrave" unicode="&#xe8;" horiz-adv-x="1197" 
d="M97 514q0 117 40 217t113 175q156 159 408 159q213 0 342 -141q127 -136 127 -342q0 -79 -12 -108q-100 -28 -407 -28h-352q26 -107 121 -166.5t247 -59.5q159 0 273 57q30 15 45 28q-2 -42 -5 -86l-11 -156q-76 -52 -246 -72q-50 -6 -96 -6q-254 0 -420 148
q-167 149 -167 381zM861 640q-41 215 -234 215q-152 0 -231 -131q-24 -40 -37 -88q24 -1 59 -2h74q37 -1 71 -1h57q51 0 100 1l82 3q33 1 59 3zM308 1520q170 -17 320 -17l169 -313h-226l-262 323z" />
    <glyph glyph-name="eacute" unicode="&#xe9;" horiz-adv-x="1197" 
d="M97 514q0 117 40 217t113 175q156 159 408 159q213 0 342 -141q127 -136 127 -342q0 -79 -12 -108q-100 -28 -407 -28h-352q26 -107 121 -166.5t247 -59.5q159 0 273 57q30 15 45 28q-2 -42 -5 -86l-11 -156q-76 -52 -246 -72q-50 -6 -96 -6q-254 0 -420 148
q-167 149 -167 381zM861 640q-41 215 -234 215q-152 0 -231 -131q-24 -40 -37 -88q24 -1 59 -2h74q37 -1 71 -1h57q51 0 100 1l82 3q33 1 59 3zM597 1503q150 0 320 17l-1 -7l-262 -323h-226z" />
    <glyph glyph-name="ecircumflex" unicode="&#xea;" horiz-adv-x="1197" 
d="M97 514q0 117 40 217t113 175q156 159 408 159q213 0 342 -141q127 -136 127 -342q0 -79 -12 -108q-100 -28 -407 -28h-352q26 -107 121 -166.5t247 -59.5q159 0 273 57q30 15 45 28q-2 -42 -5 -86l-11 -156q-76 -52 -246 -72q-50 -6 -96 -6q-254 0 -420 148
q-167 149 -167 381zM861 640q-41 215 -234 215q-152 0 -231 -131q-24 -40 -37 -88q24 -1 59 -2h74q37 -1 71 -1h57q51 0 100 1l82 3q33 1 59 3zM511 1188q-215 0 -263 -3l-3 3l242 331q24 -3 66 -3h51l121 3l255 -331l-4 -3l-255 3l-113 177z" />
    <glyph glyph-name="edieresis" unicode="&#xeb;" horiz-adv-x="1197" 
d="M97 514q0 117 40 217t113 175q156 159 408 159q213 0 342 -141q127 -136 127 -342q0 -79 -12 -108q-100 -28 -407 -28h-352q26 -107 121 -166.5t247 -59.5q159 0 273 57q30 15 45 28q-2 -42 -5 -86l-11 -156q-76 -52 -246 -72q-50 -6 -96 -6q-254 0 -420 148
q-167 149 -167 381zM861 640q-41 215 -234 215q-152 0 -231 -131q-24 -40 -37 -88q24 -1 59 -2h74q37 -1 71 -1h57q51 0 100 1l82 3q33 1 59 3zM960 1430q-4 -50 -4 -127.5t4 -112.5h-265q8 62 8 122.5t-6 117.5h263zM530 1430q-4 -50 -4 -127.5t4 -112.5h-265q8 62 8 122.5
t-6 117.5h263z" />
    <glyph glyph-name="igrave" unicode="&#xec;" horiz-adv-x="513" 
d="M378 112q0 -86 4 -112h-254v1045h250v-933zM-61 1520q170 -17 320 -17l169 -313h-226l-262 323z" />
    <glyph glyph-name="iacute" unicode="&#xed;" horiz-adv-x="513" 
d="M378 112q0 -86 4 -112h-254v1045h250v-933zM228 1503q150 0 320 17l-1 -7l-262 -323h-226z" />
    <glyph glyph-name="icircumflex" unicode="&#xee;" horiz-adv-x="513" 
d="M378 112q0 -86 4 -112h-254v1045h250v-933zM142 1188q-215 0 -263 -3l-3 3l242 331q24 -3 66 -3h51l121 3l255 -331l-4 -3l-255 3l-113 177z" />
    <glyph glyph-name="idieresis" unicode="&#xef;" horiz-adv-x="513" 
d="M378 112q0 -86 4 -112h-254v1045h250v-933zM591 1430q-4 -50 -4 -127.5t4 -112.5h-265q8 62 8 122.5t-6 117.5h263zM161 1430q-4 -50 -4 -127.5t4 -112.5h-265q8 62 8 122.5t-6 117.5h263z" />
    <glyph glyph-name="eth" unicode="&#xf0;" 
d="M799 1162q275 -323 275 -658q0 -225 -150 -376q-144 -143 -349 -143q-207 0 -347 136q-137 134 -137 322q0 223 149 345q130 107 329 107q72 0 156 -30q-60 105 -152 212l-307 -116l-57 182l222 80q-55 51 -117 103l-133 104h320q84 -59 157 -124l239 87l56 -173z
M830 496l-1 16q-42 85 -103 119t-127 34t-107 -12.5t-72 -36.5q-71 -55 -71 -151q0 -99 70 -171q72 -74 179 -74q93 0 157 64q75 77 75 212z" />
    <glyph glyph-name="ntilde" unicode="&#xf1;" horiz-adv-x="1197" 
d="M410 128q0 -88 8 -128h-251v1045h243v-89q132 109 282 109q164 0 262 -111.5t98 -293.5v-398q0 -169 5 -203t13.5 -44t14.5 -18l-2 -4q-81 7 -118 7h-70q-32 0 -86 -3v545q0 293 -178 293q-132 0 -221 -136v-571zM483 1280q-94 0 -167 -75l-4 1l-4 199q68 80 185 80
q92 0 171 -54.5t163 -54.5q119 0 156 84l2 -2l-10 -216q-17 -30 -61 -49.5t-92 -19.5t-77.5 8t-54.5 20t-46.5 25.5t-45.5 25.5q-56 28 -115 28z" />
    <glyph glyph-name="ograve" unicode="&#xf2;" horiz-adv-x="1197" 
d="M71 517q0 110 37.5 210.5t107.5 175.5q153 162 397 162q243 0 386 -153q137 -146 137 -379t-141 -386q-149 -162 -395 -162q-254 0 -398 159q-131 145 -131 373zM314 523q0 -63 21 -122t60 -101q83 -91 218 -91q125 0 197 89q70 86 70 224q0 140 -72 226q-77 92 -211 92
q-136 0 -213 -98q-70 -90 -70 -219zM294 1520q170 -17 320 -17l169 -313h-226l-262 323z" />
    <glyph glyph-name="oacute" unicode="&#xf3;" horiz-adv-x="1197" 
d="M71 517q0 110 37.5 210.5t107.5 175.5q153 162 397 162q243 0 386 -153q137 -146 137 -379t-141 -386q-149 -162 -395 -162q-254 0 -398 159q-131 145 -131 373zM314 523q0 -63 21 -122t60 -101q83 -91 218 -91q125 0 197 89q70 86 70 224q0 140 -72 226q-77 92 -211 92
q-136 0 -213 -98q-70 -90 -70 -219zM583 1503q150 0 320 17l-1 -7l-262 -323h-226z" />
    <glyph glyph-name="ocircumflex" unicode="&#xf4;" horiz-adv-x="1197" 
d="M71 517q0 110 37.5 210.5t107.5 175.5q153 162 397 162q243 0 386 -153q137 -146 137 -379t-141 -386q-149 -162 -395 -162q-254 0 -398 159q-131 145 -131 373zM314 523q0 -63 21 -122t60 -101q83 -91 218 -91q125 0 197 89q70 86 70 224q0 140 -72 226q-77 92 -211 92
q-136 0 -213 -98q-70 -90 -70 -219zM497 1188q-215 0 -263 -3l-3 3l242 331q24 -3 66 -3h51l121 3l255 -331l-4 -3l-255 3l-113 177z" />
    <glyph glyph-name="otilde" unicode="&#xf5;" horiz-adv-x="1197" 
d="M71 517q0 110 37.5 210.5t107.5 175.5q153 162 397 162q243 0 386 -153q137 -146 137 -379t-141 -386q-149 -162 -395 -162q-254 0 -398 159q-131 145 -131 373zM314 523q0 -63 21 -122t60 -101q83 -91 218 -91q125 0 197 89q70 86 70 224q0 140 -72 226q-77 92 -211 92
q-136 0 -213 -98q-70 -90 -70 -219zM435 1280q-94 0 -167 -75l-4 1l-4 199q68 80 185 80q92 0 171 -54.5t163 -54.5q119 0 156 84l2 -2l-10 -216q-17 -30 -61 -49.5t-92 -19.5t-77.5 8t-54.5 20t-46.5 25.5t-45.5 25.5q-56 28 -115 28z" />
    <glyph glyph-name="odieresis" unicode="&#xf6;" horiz-adv-x="1197" 
d="M71 517q0 110 37.5 210.5t107.5 175.5q153 162 397 162q243 0 386 -153q137 -146 137 -379t-141 -386q-149 -162 -395 -162q-254 0 -398 159q-131 145 -131 373zM314 523q0 -63 21 -122t60 -101q83 -91 218 -91q125 0 197 89q70 86 70 224q0 140 -72 226q-77 92 -211 92
q-136 0 -213 -98q-70 -90 -70 -219zM946 1430q-4 -50 -4 -127.5t4 -112.5h-265q8 62 8 122.5t-6 117.5h263zM516 1430q-4 -50 -4 -127.5t4 -112.5h-265q8 62 8 122.5t-6 117.5h263z" />
    <glyph glyph-name="divide" unicode="&#xf7;" horiz-adv-x="1364" 
d="M826 1044q-1 -18 -1 -70.5t5 -88.5h-292q9 61 9 108t-0.5 64.5t-1.5 34.5t-3 32l-2 25h290q-3 -38 -3 -62zM351 500q-76 0 -124 -5l3 247q22 -6 132 -6h639q109 0 132 6l3 -247q-48 5 -124 5h-661zM826 256q-1 -18 -1 -70.5t5 -88.5h-292q9 61 9 108t-0.5 64.5t-1.5 34.5
t-3 32l-2 25h290q-3 -38 -3 -62z" />
    <glyph glyph-name="oslash" unicode="&#xf8;" horiz-adv-x="1197" 
d="M826.5 28.5q-99.5 -43.5 -215.5 -43.5t-210 30l-102 -185h-176l141 257q-193 149 -193 425q0 236 145 391q153 162 397 162q92 0 175 -25l83 150h176l-119 -217q101 -71 154.5 -185t53.5 -240.5t-36 -226t-105 -174.5t-168.5 -118.5zM673 831q-35 9 -91 9t-109.5 -27
t-88.5 -71q-70 -90 -70 -213q0 -132 73 -220zM515 223q47 -14 104 -14t107 23.5t84 65.5q70 86 70 224q0 142 -75 229z" />
    <glyph glyph-name="ugrave" unicode="&#xf9;" 
d="M773 91q-128 -106 -279 -106q-162 0 -254 109q-88 106 -88 291v397q0 200 -8.5 229.5t-12.5 37.5q46 -4 96 -4h83q33 0 87 3v-579q0 -206 112 -239q34 -10 74 -10q118 0 190 86v739h248v-917q0 -88 8 -128h-256v91zM266 1520q170 -17 320 -17l169 -313h-226l-262 323z
" />
    <glyph glyph-name="uacute" unicode="&#xfa;" 
d="M773 91q-128 -106 -279 -106q-162 0 -254 109q-88 106 -88 291v397q0 200 -8.5 229.5t-12.5 37.5q46 -4 96 -4h83q33 0 87 3v-579q0 -206 112 -239q34 -10 74 -10q118 0 190 86v739h248v-917q0 -88 8 -128h-256v91zM555 1503q150 0 320 17l-1 -7l-262 -323h-226z" />
    <glyph glyph-name="ucircumflex" unicode="&#xfb;" 
d="M773 91q-128 -106 -279 -106q-162 0 -254 109q-88 106 -88 291v397q0 200 -8.5 229.5t-12.5 37.5q46 -4 96 -4h83q33 0 87 3v-579q0 -206 112 -239q34 -10 74 -10q118 0 190 86v739h248v-917q0 -88 8 -128h-256v91zM469 1188q-215 0 -263 -3l-3 3l242 331q24 -3 66 -3h51
l121 3l255 -331l-4 -3l-255 3l-113 177z" />
    <glyph glyph-name="udieresis" unicode="&#xfc;" 
d="M773 91q-128 -106 -279 -106q-162 0 -254 109q-88 106 -88 291v397q0 200 -8.5 229.5t-12.5 37.5q46 -4 96 -4h83q33 0 87 3v-579q0 -206 112 -239q34 -10 74 -10q118 0 190 86v739h248v-917q0 -88 8 -128h-256v91zM918 1430q-4 -50 -4 -127.5t4 -112.5h-265
q8 62 8 122.5t-6 117.5h263zM488 1430q-4 -50 -4 -127.5t4 -112.5h-265q8 62 8 122.5t-6 117.5h263z" />
    <glyph glyph-name="yacute" unicode="&#xfd;" horiz-adv-x="1025" 
d="M51 -348l66 53q149 121 247 357l46 111l-383 872h280l240 -604l223 604h288q-52 -72 -127 -268l-150 -371q-301 -708 -472 -844zM554 1503q150 0 320 17l-1 -7l-262 -323h-226z" />
    <glyph glyph-name="thorn" unicode="&#xfe;" 
d="M726 -2q-58 -16 -147 -16t-172 37v-292q0 -86 4 -112h-249v1815h249q-4 -26 -4 -112v-313q112 60 222.5 60t197 -32t153.5 -97q145 -144 145 -400q0 -253 -175 -412q-101 -92 -224 -126zM407 293q81 -73 187 -73q126 0 204 88q82 91 82 244q0 197 -158 262
q-51 21 -105 21t-112 -23.5t-98 -65.5v-453z" />
    <glyph glyph-name="ydieresis" unicode="&#xff;" horiz-adv-x="1025" 
d="M51 -348l66 53q149 121 247 357l46 111l-383 872h280l240 -604l223 604h288q-52 -72 -127 -268l-150 -371q-301 -708 -472 -844zM917 1430q-4 -50 -4 -127.5t4 -112.5h-265q8 62 8 122.5t-6 117.5h263zM487 1430q-4 -50 -4 -127.5t4 -112.5h-265q8 62 8 122.5t-6 117.5
h263z" />
    <glyph glyph-name="Amacron" unicode="&#x100;" horiz-adv-x="1197" 
d="M269 -8q-86 8 -201 8h-79l435 1219q29 82 29 95.5t-1 16.5l1 2q65 -3 138 -3q60 0 144 2l1 -2q-2 -4 -2 -11q0 -19 30 -101l444 -1221q-20 1 -47 1l-52 2h-45h-155l-94 288h-452zM737 528l-151 465l-147 -465h298zM942 1700q-4 -50 -4 -76v-34q0 -8 4 -60h-675l3 26
q5 33 5 60t-6 84h673z" />
    <glyph glyph-name="amacron" unicode="&#x101;" 
d="M837 62q-142 -77 -257 -77t-197 21.5t-139 63.5q-116 85 -116 246q0 144 142 240q154 104 418 104l40 -1q12 -1 27 -1.5t27 -2.5q-8 160 -138 187q-43 9 -91.5 9t-95 -8.5t-90.5 -22.5q-97 -31 -139 -71l-3 2l-30 221q177 93 387 93q326 0 417 -235q29 -75 29 -169v-362
q0 -116 82 -158l-181 -166q-57 30 -92 87zM783 475q-27 5 -56 5h-40q-221 0 -281 -98q-18 -29 -18 -61t11.5 -56.5t38.5 -40.5q52 -30 154.5 -30t191.5 49q-1 11 -1 23v209zM922 1523q-4 -50 -4 -76v-34q0 -8 4 -60h-675l3 26q5 33 5 60t-6 84h673z" />
    <glyph glyph-name="Abreve" unicode="&#x102;" horiz-adv-x="1197" 
d="M269 -8q-86 8 -201 8h-79l435 1219q29 82 29 95.5t-1 16.5l1 2q65 -3 138 -3q60 0 144 2l1 -2q-2 -4 -2 -11q0 -19 30 -101l444 -1221q-20 1 -47 1l-52 2h-45h-155l-94 288h-452zM737 528l-151 465l-147 -465h298zM943 1806q10 -10 10 -68t-20.5 -114.5t-63.5 -101.5
q-97 -101 -271 -101t-271 101q-84 88 -84 215q0 59 10 69l133 -3q10 -79 37 -117q59 -84 175 -84t171 78q31 44 41 123z" />
    <glyph glyph-name="abreve" unicode="&#x103;" 
d="M837 62q-142 -77 -257 -77t-197 21.5t-139 63.5q-116 85 -116 246q0 144 142 240q154 104 418 104l40 -1q12 -1 27 -1.5t27 -2.5q-8 160 -138 187q-43 9 -91.5 9t-95 -8.5t-90.5 -22.5q-97 -31 -139 -71l-3 2l-30 221q177 93 387 93q326 0 417 -235q29 -75 29 -169v-362
q0 -116 82 -158l-181 -166q-57 30 -92 87zM783 475q-27 5 -56 5h-40q-221 0 -281 -98q-18 -29 -18 -61t11.5 -56.5t38.5 -40.5q52 -30 154.5 -30t191.5 49q-1 11 -1 23v209zM929 1610q10 -10 10 -68t-20.5 -114.5t-63.5 -101.5q-97 -101 -271 -101t-271 101q-84 88 -84 215
q0 59 10 69l133 -3q10 -79 37 -117q59 -84 175 -84t171 78q31 44 41 123z" />
    <glyph glyph-name="Aogonek" unicode="&#x104;" horiz-adv-x="1197" 
d="M269 -8q-86 8 -201 8h-79l435 1219q29 82 29 95.5t-1 16.5l1 2q65 -3 138 -3q60 0 144 2l1 -2q-2 -4 -2 -11q0 -19 30 -101l444 -1221q-108 0 -186 -69q-73 -65 -73 -146q0 -105 191 -105q37 0 59 16l2 -5l-104 -243q-266 0 -359 162q-34 59 -34 147q0 103 92 207
q38 42 99 81l-80 246h-452zM737 528l-151 465l-147 -465h298z" />
    <glyph glyph-name="aogonek" unicode="&#x105;" 
d="M705 7q-77 -22 -158.5 -22t-163.5 21.5t-139 63.5q-116 85 -116 246q0 144 142 240q154 104 418 104l40 -1q12 -1 27 -1.5t27 -2.5q-8 160 -138 187q-43 9 -91.5 9t-95 -8.5t-90.5 -22.5q-97 -31 -139 -71l-3 2l-30 221q177 93 387 93q326 0 417 -235q29 -75 29 -169
v-362q0 -116 82 -158l-181 -166q-57 30 -92 87q-64 -34 -132 -55q45 45 109 85l215 49h81l-142 -130q-102 -94 -126.5 -143.5t-24.5 -85.5q0 -105 191 -105q37 0 59 16l2 -5l-104 -243q-266 0 -359 162q-34 59 -34 147q0 73 70 178q26 38 63 75zM783 475q-27 5 -56 5h-40
q-221 0 -281 -98q-18 -29 -18 -61t11.5 -56.5t38.5 -40.5q52 -30 154.5 -30t191.5 49q-1 11 -1 23v209z" />
    <glyph glyph-name="Cacute" unicode="&#x106;" horiz-adv-x="1188" 
d="M768 1355q187 0 319 -65v-306l-2 -2q-56 86 -236 114q-53 9 -134 9t-159 -30.5t-128 -86.5q-97 -109 -97 -311q0 -235 123 -350q102 -96 270 -96q190 0 308 81q43 29 73 72l3 -2v-280q-153 -127 -412 -127q-305 0 -478 194q-166 185 -166 490q0 323 182 509
q184 187 534 187zM594 1788q150 0 320 17l-1 -7l-262 -323h-226z" />
    <glyph glyph-name="cacute" unicode="&#x107;" horiz-adv-x="1026" 
d="M964 97q-112 -112 -351 -112q-232 0 -379 141q-149 143 -149 380q0 241 147 396q156 163 417 163q185 0 310 -81l-40 -256l-7 1q-48 58 -101 76q-86 30 -172 30t-135 -22t-84 -61q-70 -80 -70 -212q0 -234 162 -306q56 -24 118.5 -24t109 11t84.5 30q81 40 110 93l7 -3z
M572 1503q150 0 320 17l-1 -7l-262 -323h-226z" />
    <glyph glyph-name="Ccircumflex" unicode="&#x108;" horiz-adv-x="1188" 
d="M768 1355q187 0 319 -65v-306l-2 -2q-56 86 -236 114q-53 9 -134 9t-159 -30.5t-128 -86.5q-97 -109 -97 -311q0 -235 123 -350q102 -96 270 -96q190 0 308 81q43 29 73 72l3 -2v-280q-153 -127 -412 -127q-305 0 -478 194q-166 185 -166 490q0 323 182 509
q184 187 534 187zM568 1473q-215 0 -263 -3l-3 3l242 331q24 -3 66 -3h51l121 3l255 -331l-4 -3l-255 3l-113 177z" />
    <glyph glyph-name="ccircumflex" unicode="&#x109;" horiz-adv-x="1026" 
d="M964 97q-112 -112 -351 -112q-232 0 -379 141q-149 143 -149 380q0 241 147 396q156 163 417 163q185 0 310 -81l-40 -256l-7 1q-48 58 -101 76q-86 30 -172 30t-135 -22t-84 -61q-70 -80 -70 -212q0 -234 162 -306q56 -24 118.5 -24t109 11t84.5 30q81 40 110 93l7 -3z
M486 1188q-215 0 -263 -3l-3 3l242 331q24 -3 66 -3h51l121 3l255 -331l-4 -3l-255 3l-113 177z" />
    <glyph glyph-name="Cdotaccent" unicode="&#x10a;" horiz-adv-x="1188" 
d="M768 1355q187 0 319 -65v-306l-2 -2q-56 86 -236 114q-53 9 -134 9t-159 -30.5t-128 -86.5q-97 -109 -97 -311q0 -235 123 -350q102 -96 270 -96q190 0 308 81q43 29 73 72l3 -2v-280q-153 -127 -412 -127q-305 0 -478 194q-166 185 -166 490q0 323 182 509
q184 187 534 187zM499 1618q65 104 149 196l191 -151q-50 -64 -68 -88l-35 -49q-17 -23 -36 -52z" />
    <glyph glyph-name="cdotaccent" unicode="&#x10b;" horiz-adv-x="1026" 
d="M964 97q-112 -112 -351 -112q-232 0 -379 141q-149 143 -149 380q0 241 147 396q156 163 417 163q185 0 310 -81l-40 -256l-7 1q-48 58 -101 76q-86 30 -172 30t-135 -22t-84 -61q-70 -80 -70 -212q0 -234 162 -306q56 -24 118.5 -24t109 11t84.5 30q81 40 110 93l7 -3z
M417 1336q65 104 149 196l191 -151q-50 -64 -68 -88l-35 -49q-17 -23 -36 -52z" />
    <glyph glyph-name="Ccaron" unicode="&#x10c;" horiz-adv-x="1188" 
d="M768 1355q187 0 319 -65v-306l-2 -2q-56 86 -236 114q-53 9 -134 9t-159 -30.5t-128 -86.5q-97 -109 -97 -311q0 -235 123 -350q102 -96 270 -96q190 0 308 81q43 29 73 72l3 -2v-280q-153 -127 -412 -127q-305 0 -478 194q-166 185 -166 490q0 323 182 509
q184 187 534 187zM661 1369h-51q-42 0 -66 -3l-242 331l3 3q48 -3 263 -3l97 -177l113 177l255 3l4 -3l-255 -331z" />
    <glyph glyph-name="ccaron" unicode="&#x10d;" horiz-adv-x="1026" 
d="M964 97q-112 -112 -351 -112q-232 0 -379 141q-149 143 -149 380q0 241 147 396q156 163 417 163q185 0 310 -81l-40 -256l-7 1q-48 58 -101 76q-86 30 -172 30t-135 -22t-84 -61q-70 -80 -70 -212q0 -234 162 -306q56 -24 118.5 -24t109 11t84.5 30q81 40 110 93l7 -3z
M579 1188h-51q-42 0 -66 -3l-242 331l3 3q48 -3 263 -3l97 -177l113 177l255 3l4 -3l-255 -331z" />
    <glyph glyph-name="Dcaron" unicode="&#x10e;" horiz-adv-x="1364" 
d="M496 -25q-162 0 -305 26v1338q132 16 306.5 16t316 -47.5t236.5 -135.5q192 -176 192 -493q0 -355 -214 -539q-192 -165 -532 -165zM451 219q65 -12 130 -12t140 25.5t130 79.5q118 114 118 332q0 358 -261 440q-86 27 -199 27h-27q-15 0 -31 -1v-891zM712 1369h-51
q-42 0 -66 -3l-242 331l3 3q48 -3 263 -3l97 -177l113 177l255 3l4 -3l-255 -331z" />
    <glyph glyph-name="dcaron" unicode="&#x10f;" horiz-adv-x="1427" 
d="M864 56q-127 -71 -254 -71t-222 40t-162 110q-138 144 -138 374q0 238 160 396q161 160 412 160q77 0 151 -20v445h245v-1069q0 -133 12.5 -174t28 -60t39.5 -36l-188 -166q-52 28 -84 71zM657 215q84 0 154 32v554q-70 29 -152 29t-140.5 -22t-100.5 -61
q-88 -82 -88 -213q0 -143 80 -228q86 -91 247 -91zM1417 1445q11 -105 11 -158.5t-3.5 -103.5t-9.5 -90q-15 -86 -36 -100q-25 -16 -84 -27l-111 -23l-6 6q16 28 16 180v99q0 102 -6 177z" />
    <glyph glyph-name="Dcroat" unicode="&#x110;" horiz-adv-x="1364" 
d="M496 -25q-162 0 -305 26v547h-99v236h99v555q132 16 306.5 16t316 -47.5t236.5 -135.5q192 -176 192 -493q0 -355 -214 -539q-192 -165 -532 -165zM451 219q65 -12 130 -12t140 25.5t130 79.5q118 114 118 332q0 358 -261 440q-86 27 -199 27h-27q-15 0 -31 -1v-326h300
v-236h-300v-329z" />
    <glyph glyph-name="dcroat" unicode="&#x111;" horiz-adv-x="1242" 
d="M864 56q-127 -71 -254 -71t-222 40t-162 110q-138 144 -138 374q0 238 160 396q161 160 412 160q77 0 151 -20v126h-72q-76 0 -124 -5l3 187q22 -6 132 -6h61v143h245v-143q94 0 115 6l3 -187q-47 5 -118 5v-750q0 -133 12.5 -174t28 -60t39.5 -36l-188 -166
q-52 28 -84 71zM657 215q84 0 154 32v554q-70 29 -152 29t-140.5 -22t-100.5 -61q-88 -82 -88 -213q0 -143 80 -228q86 -91 247 -91z" />
    <glyph glyph-name="Emacron" unicode="&#x112;" horiz-adv-x="1026" 
d="M841 240q62 0 86 12l4 -1l-10 -251h-749v1337q27 -2 60 -3l70 -2q70 -2 152 -2q229 0 453 8q-11 -88 -11 -235q0 -16 2 -24l-2 -3q-52 15 -148 15h-315v-255h237q110 0 132 6l3 -247q-48 5 -124 5h-248v-360h408zM880 1700q-4 -50 -4 -76v-34q0 -8 4 -60h-675l3 26
q5 33 5 60t-6 84h673z" />
    <glyph glyph-name="emacron" unicode="&#x113;" horiz-adv-x="1197" 
d="M97 514q0 117 40 217t113 175q156 159 408 159q213 0 342 -141q127 -136 127 -342q0 -79 -12 -108q-100 -28 -407 -28h-352q26 -107 121 -166.5t247 -59.5q159 0 273 57q30 15 45 28q-2 -42 -5 -86l-11 -156q-76 -52 -246 -72q-50 -6 -96 -6q-254 0 -420 148
q-167 149 -167 381zM861 640q-41 215 -234 215q-152 0 -231 -131q-24 -40 -37 -88q24 -1 59 -2h74q37 -1 71 -1h57q51 0 100 1l82 3q33 1 59 3zM950 1523q-4 -50 -4 -76v-34q0 -8 4 -60h-675l3 26q5 33 5 60t-6 84h673z" />
    <glyph glyph-name="Ebreve" unicode="&#x114;" horiz-adv-x="1026" 
d="M841 240q62 0 86 12l4 -1l-10 -251h-749v1337q27 -2 60 -3l70 -2q70 -2 152 -2q229 0 453 8q-11 -88 -11 -235q0 -16 2 -24l-2 -3q-52 15 -148 15h-315v-255h237q110 0 132 6l3 -247q-48 5 -124 5h-248v-360h408zM881 1806q10 -10 10 -68t-20.5 -114.5t-63.5 -101.5
q-97 -101 -271 -101t-271 101q-84 88 -84 215q0 59 10 69l133 -3q10 -79 37 -117q59 -84 175 -84t171 78q31 44 41 123z" />
    <glyph glyph-name="ebreve" unicode="&#x115;" horiz-adv-x="1197" 
d="M97 514q0 117 40 217t113 175q156 159 408 159q213 0 342 -141q127 -136 127 -342q0 -79 -12 -108q-100 -28 -407 -28h-352q26 -107 121 -166.5t247 -59.5q159 0 273 57q30 15 45 28q-2 -42 -5 -86l-11 -156q-76 -52 -246 -72q-50 -6 -96 -6q-254 0 -420 148
q-167 149 -167 381zM861 640q-41 215 -234 215q-152 0 -231 -131q-24 -40 -37 -88q24 -1 59 -2h74q37 -1 71 -1h57q51 0 100 1l82 3q33 1 59 3zM957 1610q10 -10 10 -68t-20.5 -114.5t-63.5 -101.5q-97 -101 -271 -101t-271 101q-84 88 -84 215q0 59 10 69l133 -3
q10 -79 37 -117q59 -84 175 -84t171 78q31 44 41 123z" />
    <glyph glyph-name="Edotaccent" unicode="&#x116;" horiz-adv-x="1026" 
d="M841 240q62 0 86 12l4 -1l-10 -251h-749v1337q27 -2 60 -3l70 -2q70 -2 152 -2q229 0 453 8q-11 -88 -11 -235q0 -16 2 -24l-2 -3q-52 15 -148 15h-315v-255h237q110 0 132 6l3 -247q-48 5 -124 5h-248v-360h408zM366 1618q65 104 149 196l191 -151q-50 -64 -68 -88
l-35 -49q-17 -23 -36 -52z" />
    <glyph glyph-name="edotaccent" unicode="&#x117;" horiz-adv-x="1197" 
d="M97 514q0 117 40 217t113 175q156 159 408 159q213 0 342 -141q127 -136 127 -342q0 -79 -12 -108q-100 -28 -407 -28h-352q26 -107 121 -166.5t247 -59.5q159 0 273 57q30 15 45 28q-2 -42 -5 -86l-11 -156q-76 -52 -246 -72q-50 -6 -96 -6q-254 0 -420 148
q-167 149 -167 381zM861 640q-41 215 -234 215q-152 0 -231 -131q-24 -40 -37 -88q24 -1 59 -2h74q37 -1 71 -1h57q51 0 100 1l82 3q33 1 59 3zM442 1336q65 104 149 196l191 -151q-50 -64 -68 -88l-35 -49q-17 -23 -36 -52z" />
    <glyph glyph-name="Eogonek" unicode="&#x118;" horiz-adv-x="1026" 
d="M863 -320q37 0 59 16l2 -5l-104 -243q-266 0 -359 162q-34 59 -34 147q0 82 63 172q26 36 67 71h-385v1337q27 -2 60 -3l70 -2q70 -2 152 -2q229 0 453 8q-11 -88 -11 -235q0 -16 2 -24l-2 -3q-52 15 -148 15h-315v-255h237q110 0 132 6l3 -247q-48 5 -124 5h-248v-360
h408q62 0 86 12l4 -1l-10 -237l10 -14h-11q-104 -4 -178 -72q-70 -65 -70 -143q0 -105 191 -105z" />
    <glyph glyph-name="eogonek" unicode="&#x119;" horiz-adv-x="1197" 
d="M542 -256q0 118 130 241q-249 4 -411 151q-164 149 -164 380q0 233 153 390q156 159 408 159q213 0 342 -141q127 -136 127 -342q0 -79 -12 -108q-100 -28 -407 -28h-352q26 -107 121 -166.5t247 -59.5q159 0 273 57q30 15 45 28q-2 -42 -5 -86l-11 -156l-18 -11
q-123 -75 -186 -164q-45 -63 -45 -98t16.5 -56t42.5 -34q47 -23 103 -23t78 16l2 -5l-104 -243q-373 0 -373 299zM861 640q-41 215 -234 215q-152 0 -231 -131q-24 -40 -37 -88q24 -1 59 -2h74q37 -1 71 -1h57q51 0 100 1l82 3q33 1 59 3z" />
    <glyph glyph-name="Ecaron" unicode="&#x11a;" horiz-adv-x="1026" 
d="M841 240q62 0 86 12l4 -1l-10 -251h-749v1337q27 -2 60 -3l70 -2q70 -2 152 -2q229 0 453 8q-11 -88 -11 -235q0 -16 2 -24l-2 -3q-52 15 -148 15h-315v-255h237q110 0 132 6l3 -247q-48 5 -124 5h-248v-360h408zM528 1369h-51q-42 0 -66 -3l-242 331l3 3q48 -3 263 -3
l97 -177l113 177l255 3l4 -3l-255 -331z" />
    <glyph glyph-name="ecaron" unicode="&#x11b;" horiz-adv-x="1197" 
d="M97 514q0 117 40 217t113 175q156 159 408 159q213 0 342 -141q127 -136 127 -342q0 -79 -12 -108q-100 -28 -407 -28h-352q26 -107 121 -166.5t247 -59.5q159 0 273 57q30 15 45 28q-2 -42 -5 -86l-11 -156q-76 -52 -246 -72q-50 -6 -96 -6q-254 0 -420 148
q-167 149 -167 381zM861 640q-41 215 -234 215q-152 0 -231 -131q-24 -40 -37 -88q24 -1 59 -2h74q37 -1 71 -1h57q51 0 100 1l82 3q33 1 59 3zM604 1188h-51q-42 0 -66 -3l-242 331l3 3q48 -3 263 -3l97 -177l113 177l255 3l4 -3l-255 -331z" />
    <glyph glyph-name="Gcircumflex" unicode="&#x11c;" horiz-adv-x="1364" 
d="M1268 802q-19 -34 -19 -163v-310q0 -141 -146 -245q-151 -109 -370 -109q-304 0 -485 191q-175 182 -175 464q0 300 178 500q199 225 548 225q233 0 369 -90l-16 -295l-8 -2q-35 61 -138 100q-98 37 -205.5 37t-188 -34t-136.5 -97q-118 -129 -118 -341q0 -185 104 -297
q104 -111 268 -111q181 0 244 94q20 30 20 68v166h-129q-104 0 -113 -18l-3 1l-9 261q28 -8 227 -8h118q110 0 180 15zM620 1473q-215 0 -263 -3l-3 3l242 331q24 -3 66 -3h51l121 3l255 -331l-4 -3l-255 3l-113 177z" />
    <glyph glyph-name="gcircumflex" unicode="&#x11d;" 
d="M422 278q-37 -49 -37 -77.5t9 -44t39 -29.5q66 -31 217 -54.5t236.5 -58.5t138.5 -86q99 -97 99 -275t-125 -273.5t-371 -95.5q-248 0 -400 108t-156 287q-6 208 163 301q-46 38 -61.5 89.5t-15.5 117.5q0 111 97 188q-113 107 -113 266q0 178 128 298q135 126 350 126
q113 0 212 -42q130 55 191 96.5t78 60.5l6 -1q9 -24 21 -68l18 -72q24 -89 29 -122q-44 -48 -155 -68q43 -83 43 -176t-32 -168.5t-91 -132.5q-131 -123 -334 -123q-99 0 -184 29zM396 728q-14 -36 -14 -73t15.5 -71t45.5 -61q67 -60 175 -60q82 0 142 55q63 60 63 144.5
t-57 136.5t-157 52q-165 0 -213 -123zM641 -504q246 0 246 172q0 82 -80 132q-90 57 -309 89l-52 9q-66 -35 -97 -90t-30.5 -104.5t23.5 -85.5t64 -63q91 -59 235 -59zM545 1188q-215 0 -263 -3l-3 3l242 331q24 -3 66 -3h51l121 3l255 -331l-4 -3l-255 3l-113 177z" />
    <glyph glyph-name="Gbreve" unicode="&#x11e;" horiz-adv-x="1364" 
d="M1268 802q-19 -34 -19 -163v-310q0 -141 -146 -245q-151 -109 -370 -109q-304 0 -485 191q-175 182 -175 464q0 300 178 500q199 225 548 225q233 0 369 -90l-16 -295l-8 -2q-35 61 -138 100q-98 37 -205.5 37t-188 -34t-136.5 -97q-118 -129 -118 -341q0 -185 104 -297
q104 -111 268 -111q181 0 244 94q20 30 20 68v166h-129q-104 0 -113 -18l-3 1l-9 261q28 -8 227 -8h118q110 0 180 15zM1066 1806q10 -10 10 -68t-20.5 -114.5t-63.5 -101.5q-97 -101 -271 -101t-271 101q-84 88 -84 215q0 59 10 69l133 -3q10 -79 37 -117q59 -84 175 -84
t171 78q31 44 41 123z" />
    <glyph glyph-name="gbreve" unicode="&#x11f;" 
d="M422 278q-37 -49 -37 -77.5t9 -44t39 -29.5q66 -31 217 -54.5t236.5 -58.5t138.5 -86q99 -97 99 -275t-125 -273.5t-371 -95.5q-248 0 -400 108t-156 287q-6 208 163 301q-46 38 -61.5 89.5t-15.5 117.5q0 111 97 188q-113 107 -113 266q0 178 128 298q135 126 350 126
q113 0 212 -42q130 55 191 96.5t78 60.5l6 -1q9 -24 21 -68l18 -72q24 -89 29 -122q-44 -48 -155 -68q43 -83 43 -176t-32 -168.5t-91 -132.5q-131 -123 -334 -123q-99 0 -184 29zM396 728q-14 -36 -14 -73t15.5 -71t45.5 -61q67 -60 175 -60q82 0 142 55q63 60 63 144.5
t-57 136.5t-157 52q-165 0 -213 -123zM641 -504q246 0 246 172q0 82 -80 132q-90 57 -309 89l-52 9q-66 -35 -97 -90t-30.5 -104.5t23.5 -85.5t64 -63q91 -59 235 -59zM991 1610q10 -10 10 -68t-20.5 -114.5t-63.5 -101.5q-97 -101 -271 -101t-271 101q-84 88 -84 215
q0 59 10 69l133 -3q10 -79 37 -117q59 -84 175 -84t171 78q31 44 41 123z" />
    <glyph glyph-name="Gdotaccent" unicode="&#x120;" horiz-adv-x="1364" 
d="M1268 802q-19 -34 -19 -163v-310q0 -141 -146 -245q-151 -109 -370 -109q-304 0 -485 191q-175 182 -175 464q0 300 178 500q199 225 548 225q233 0 369 -90l-16 -295l-8 -2q-35 61 -138 100q-98 37 -205.5 37t-188 -34t-136.5 -97q-118 -129 -118 -341q0 -185 104 -297
q104 -111 268 -111q181 0 244 94q20 30 20 68v166h-129q-104 0 -113 -18l-3 1l-9 261q28 -8 227 -8h118q110 0 180 15zM551 1618q65 104 149 196l191 -151q-50 -64 -68 -88l-35 -49q-17 -23 -36 -52z" />
    <glyph glyph-name="gdotaccent" unicode="&#x121;" 
d="M422 278q-37 -49 -37 -77.5t9 -44t39 -29.5q66 -31 217 -54.5t236.5 -58.5t138.5 -86q99 -97 99 -275t-125 -273.5t-371 -95.5q-248 0 -400 108t-156 287q-6 208 163 301q-46 38 -61.5 89.5t-15.5 117.5q0 111 97 188q-113 107 -113 266q0 178 128 298q135 126 350 126
q113 0 212 -42q130 55 191 96.5t78 60.5l6 -1q9 -24 21 -68l18 -72q24 -89 29 -122q-44 -48 -155 -68q43 -83 43 -176t-32 -168.5t-91 -132.5q-131 -123 -334 -123q-99 0 -184 29zM396 728q-14 -36 -14 -73t15.5 -71t45.5 -61q67 -60 175 -60q82 0 142 55q63 60 63 144.5
t-57 136.5t-157 52q-165 0 -213 -123zM641 -504q246 0 246 172q0 82 -80 132q-90 57 -309 89l-52 9q-66 -35 -97 -90t-30.5 -104.5t23.5 -85.5t64 -63q91 -59 235 -59zM476 1336q65 104 149 196l191 -151q-50 -64 -68 -88l-35 -49q-17 -23 -36 -52z" />
    <glyph glyph-name="Gcommaaccent" unicode="&#x122;" horiz-adv-x="1364" 
d="M1268 802q-19 -34 -19 -163v-310q0 -141 -146 -245q-151 -109 -370 -109q-304 0 -485 191q-175 182 -175 464q0 300 178 500q199 225 548 225q233 0 369 -90l-16 -295l-8 -2q-35 61 -138 100q-98 37 -205.5 37t-188 -34t-136.5 -97q-118 -129 -118 -341q0 -185 104 -297
q104 -111 268 -111q181 0 244 94q20 30 20 68v166h-129q-104 0 -113 -18l-3 1l-9 261q28 -8 227 -8h118q110 0 180 15zM539 -607q61 108 61 222t-11 194l249 40l8 -51q8 -56 8 -115.5t-6 -96t-16 -62.5q-24 -58 -82 -82q-64 -26 -205 -55z" />
    <glyph glyph-name="gcommaaccent" unicode="&#x123;" 
d="M422 278q-37 -49 -37 -77.5t9 -44t39 -29.5q66 -31 217 -54.5t236.5 -58.5t138.5 -86q99 -97 99 -275t-125 -273.5t-371 -95.5q-248 0 -400 108t-156 287q-6 208 163 301q-46 38 -61.5 89.5t-15.5 117.5q0 111 97 188q-113 107 -113 266q0 178 128 298q135 126 350 126
q113 0 212 -42q130 55 191 96.5t78 60.5l6 -1q9 -24 21 -68l18 -72q24 -89 29 -122q-44 -48 -155 -68q43 -83 43 -176t-32 -168.5t-91 -132.5q-131 -123 -334 -123q-99 0 -184 29zM396 728q-14 -36 -14 -73t15.5 -71t45.5 -61q67 -60 175 -60q82 0 142 55q63 60 63 144.5
t-57 136.5t-157 52q-165 0 -213 -123zM641 -504q246 0 246 172q0 82 -80 132q-90 57 -309 89l-52 9q-66 -35 -97 -90t-30.5 -104.5t23.5 -85.5t64 -63q91 -59 235 -59zM745 1766q-61 -108 -61 -222t11 -194l-249 -40l-8 51q-8 56 -8 115.5t6 96t16 62.5q24 58 82 82
q64 26 205 55z" />
    <glyph glyph-name="Hcircumflex" unicode="&#x124;" horiz-adv-x="1364" 
d="M442 -6q-96 6 -228 6h-32v1335q62 -5 88 -5h41q79 0 131 8v-533h470v530q83 -5 161.5 -5t98.5 8v-1344q-48 6 -190 6h-70v565h-470v-571zM581 1473q-215 0 -263 -3l-3 3l242 331q24 -3 66 -3h51l121 3l255 -331l-4 -3l-255 3l-113 177z" />
    <glyph glyph-name="hcircumflex" unicode="&#x125;" 
d="M418 112q0 -86 4 -112h-249v1430h245v-463q129 98 266 98q168 0 270 -111q100 -111 100 -294v-398q0 -169 5 -203t13.5 -44t14.5 -18l-2 -4q-81 7 -118 7h-71q-33 0 -87 -3v579q0 138 -61 204q-46 50 -125 50q-117 0 -205 -135v-583zM563 1473q-215 0 -263 -3l-3 3
l242 331q24 -3 66 -3h51l121 3l255 -331l-4 -3l-255 3l-113 177z" />
    <glyph glyph-name="Hbar" unicode="&#x126;" horiz-adv-x="1364" 
d="M442 -6q-96 6 -228 6h-32v975h-124l10 39q4 12 4 39t-10 67h120v215q62 -5 88 -5h41q79 0 131 8v-218h470v215q83 -5 161.5 -5t98.5 8v-218h127q-6 -32 -6 -59v-37q0 -16 6 -49h-127v-981q-48 6 -190 6h-70v565h-470v-571zM912 805v170h-470v-170h470z" />
    <glyph glyph-name="hbar" unicode="&#x127;" 
d="M418 112q0 -86 4 -112h-249v1140h-77l4 26q4 33 4 60t-6 84h75v120h245v-120h234q-4 -50 -4 -76v-36q0 -6 4 -58h-234v-173q129 98 266 98q168 0 270 -111q100 -111 100 -294v-398q0 -169 5 -203t13.5 -44t14.5 -18l-2 -4q-81 7 -118 7h-71q-33 0 -87 -3v579
q0 138 -61 204q-46 50 -125 50q-117 0 -205 -135v-583z" />
    <glyph glyph-name="Itilde" unicode="&#x128;" horiz-adv-x="684" 
d="M203 1334q100 -4 121 -4h72q53 0 85 8l-1 -1338h-277v1334zM167 1565q-94 0 -167 -75l-4 1l-4 199q68 80 185 80q92 0 171 -54.5t163 -54.5q119 0 156 84l2 -2l-10 -216q-17 -30 -61 -49.5t-92 -19.5t-77.5 8t-54.5 20t-46.5 25.5t-45.5 25.5q-56 28 -115 28z" />
    <glyph glyph-name="itilde" unicode="&#x129;" horiz-adv-x="513" 
d="M378 112q0 -86 4 -112h-254v1045h250v-933zM80 1280q-94 0 -167 -75l-4 1l-4 199q68 80 185 80q92 0 171 -54.5t163 -54.5q119 0 156 84l2 -2l-10 -216q-17 -30 -61 -49.5t-92 -19.5t-77.5 8t-54.5 20t-46.5 25.5t-45.5 25.5q-56 28 -115 28z" />
    <glyph glyph-name="Imacron" unicode="&#x12a;" horiz-adv-x="684" 
d="M203 1334q100 -4 121 -4h72q53 0 85 8l-1 -1338h-277v1334zM674 1700q-4 -50 -4 -76v-34q0 -8 4 -60h-675l3 26q5 33 5 60t-6 84h673z" />
    <glyph glyph-name="imacron" unicode="&#x12b;" horiz-adv-x="684" 
d="M461 112q0 -86 4 -112h-254v1045h250v-933zM664 1523q-4 -50 -4 -76v-34q0 -8 4 -60h-675l3 26q5 33 5 60t-6 84h673z" />
    <glyph glyph-name="Ibreve" unicode="&#x12c;" horiz-adv-x="684" 
d="M203 1334q100 -4 121 -4h72q53 0 85 8l-1 -1338h-277v1334zM676 1806q10 -10 10 -68t-20.5 -114.5t-63.5 -101.5q-97 -101 -271 -101t-271 101q-84 88 -84 215q0 59 10 69l133 -3q10 -79 37 -117q59 -84 175 -84t171 78q31 44 41 123z" />
    <glyph glyph-name="ibreve" unicode="&#x12d;" horiz-adv-x="684" 
d="M461 112q0 -86 4 -112h-254v1045h250v-933zM671 1610q10 -10 10 -68t-20.5 -114.5t-63.5 -101.5q-97 -101 -271 -101t-271 101q-84 88 -84 215q0 59 10 69l133 -3q10 -79 37 -117q59 -84 175 -84t171 78q31 44 41 123z" />
    <glyph glyph-name="Iogonek" unicode="&#x12e;" horiz-adv-x="684" 
d="M439 -318q32 -5 66 -5t56 16l2 -5l-104 -243q-177 0 -270 51q-123 69 -123 228q0 98 68 200q27 40 69 76v1334q100 -4 121 -4h41q84 0 116 8l-1 -1338h-22q-60 -36 -103 -116q-34 -62 -34 -95.5t16.5 -54.5t43 -34t58.5 -18z" />
    <glyph glyph-name="iogonek" unicode="&#x12f;" horiz-adv-x="513" 
d="M115 1343q80 125 167 220l215 -169q-43 -53 -80 -104l-77 -109zM354 -318q32 -5 66 -5t56 16l2 -5l-104 -243q-177 0 -270 51q-123 69 -123 228q0 98 69 200q26 40 68 76l10 3v1042h250v-933q0 -86 4 -112h-9q-60 -36 -103 -116q-34 -62 -34 -95.5t16.5 -54.5t43 -34
t58.5 -18z" />
    <glyph glyph-name="Idotaccent" unicode="&#x130;" horiz-adv-x="684" 
d="M203 1334q100 -4 121 -4h72q53 0 85 8l-1 -1338h-277v1334zM161 1618q65 104 149 196l191 -151q-50 -64 -68 -88l-35 -49q-17 -23 -36 -52z" />
    <glyph glyph-name="dotlessi" unicode="&#x131;" horiz-adv-x="513" 
d="M378 112q0 -86 4 -112h-254v1045h250v-933z" />
    <glyph glyph-name="IJ" unicode="&#x132;" horiz-adv-x="1544" 
d="M203 1334q100 -4 121 -4h72q53 0 85 8l-1 -1338h-277v1334zM1132 1335q62 -5 90 -5h78q49 0 97 8v-896q0 -220 -117 -346q-111 -121 -300 -121q-130 0 -218 52q-33 19 -66 46v289l7 2q42 -66 98.5 -108t140.5 -42q190 0 190 220v901z" />
    <glyph glyph-name="ij" unicode="&#x133;" horiz-adv-x="1026" 
d="M115 1343q80 125 167 220l215 -169q-43 -53 -80 -104l-77 -109zM378 112q0 -86 4 -112h-254v1045h250v-933zM608 1336q65 104 149 196l191 -151q-50 -64 -68 -88l-35 -49q-17 -23 -36 -52zM497 -155q148 0 148 220v980h243v-908q0 -420 -239 -497q-78 -25 -177 -25
l-104 263l2 5q57 -38 127 -38z" />
    <glyph glyph-name="Jcircumflex" unicode="&#x134;" horiz-adv-x="860" 
d="M448 1335q62 -5 90 -5h78q49 0 97 8v-896q0 -220 -117 -346q-111 -121 -300 -121q-130 0 -218 52q-33 19 -66 46v289l7 2q42 -66 98.5 -108t140.5 -42q190 0 190 220v901zM481 1473q-215 0 -263 -3l-3 3l242 331q24 -3 66 -3h51l121 3l255 -331l-4 -3l-255 3l-113 177z
" />
    <glyph glyph-name="jcircumflex" unicode="&#x135;" horiz-adv-x="515" 
d="M-14 -155q146 0 146 220v980h245v-908q0 -420 -239 -497q-78 -25 -177 -25l-104 263l2 5q57 -38 127 -38zM156 1188q-215 0 -263 -3l-3 3l242 331q24 -3 66 -3h51l121 3l255 -331l-4 -3l-255 3l-113 177z" />
    <glyph glyph-name="Kcommaaccent" unicode="&#x136;" 
d="M427 -6q-69 6 -176 6h-79v1334l40 -2q42 -2 63 -2h29q88 0 123 8v-565l405 561q64 -4 108 -4h55q103 0 147 8l-386 -504l380 -754q24 -55 45 -80h-61q-211 0 -263 -8q-11 67 -30 117l-255 486l-145 -190v-411zM530 -607q61 108 61 222t-11 194l249 40l8 -51
q8 -56 8 -115.5t-6 -96t-16 -62.5q-24 -58 -82 -82q-64 -26 -205 -55z" />
    <glyph glyph-name="kcommaaccent" unicode="&#x137;" 
d="M407 132q0 -86 7 -132h-252v1430h245v-876l457 491h297l-394 -415l225 -307q73 -116 110 -170l66 -93q30 -39 50 -60h-158q-88 0 -151 -15l-312 456l-190 -202v-107zM484 -607q61 108 61 222t-11 194l249 40l8 -51q8 -56 8 -115.5t-6 -96t-16 -62.5q-24 -58 -82 -82
q-64 -26 -205 -55z" />
    <glyph glyph-name="kgreenlandic" unicode="&#x138;" horiz-adv-x="1194" 
d="M407 132q0 -86 7 -132h-252v1045h245v-491l457 491h297l-394 -415l225 -307q73 -116 110 -170l66 -93q30 -39 50 -60h-158q-88 0 -151 -15l-312 456l-190 -202v-107z" />
    <glyph glyph-name="Lacute" unicode="&#x139;" horiz-adv-x="855" 
d="M367 0q-147 0 -195 -6v1342q24 -6 99.5 -6t175.5 4v-1094h207q90 0 144 6q-7 -234 -7 -243v-10q-98 7 -329 7h-95zM470 1788q150 0 320 17l-1 -7l-262 -323h-226z" />
    <glyph glyph-name="lacute" unicode="&#x13a;" horiz-adv-x="513" 
d="M379 112q0 -86 4 -112h-254v1355h250v-1243zM207 1788q150 0 320 17l-1 -7l-262 -323h-226z" />
    <glyph glyph-name="Lcommaaccent" unicode="&#x13b;" horiz-adv-x="855" 
d="M367 0q-147 0 -195 -6v1342q24 -6 99.5 -6t175.5 4v-1094h207q90 0 144 6q-7 -234 -7 -243v-10q-98 7 -329 7h-95zM379 -607q61 108 61 222t-11 194l249 40l8 -51q8 -56 8 -115.5t-6 -96t-16 -62.5q-24 -58 -82 -82q-64 -26 -205 -55z" />
    <glyph glyph-name="lcommaaccent" unicode="&#x13c;" horiz-adv-x="513" 
d="M379 112q0 -86 4 -112h-254v1490h250v-1378zM91 -607q61 108 61 222t-11 194l249 40l8 -51q8 -56 8 -115.5t-6 -96t-16 -62.5q-24 -58 -82 -82q-64 -26 -205 -55z" />
    <glyph glyph-name="Lcaron" unicode="&#x13d;" horiz-adv-x="980" 
d="M367 0q-147 0 -195 -6v1342q24 -6 99.5 -6t175.5 4v-1094h207q90 0 144 6q-7 -234 -7 -243v-10q-98 7 -329 7h-95zM861 1445q11 -105 11 -158.5t-3.5 -103.5t-9.5 -90q-15 -86 -36 -100q-25 -16 -84 -27l-111 -23l-6 6q16 28 16 180v99q0 102 -6 177z" />
    <glyph glyph-name="lcaron" unicode="&#x13e;" horiz-adv-x="679" 
d="M379 112q0 -86 4 -112h-254v1490h250v-1378zM728 1445q11 -105 11 -158.5t-3.5 -103.5t-9.5 -90q-15 -86 -36 -100q-25 -16 -84 -27l-111 -23l-6 6q16 28 16 180v99q0 102 -6 177z" />
    <glyph glyph-name="Ldot" unicode="&#x13f;" horiz-adv-x="1022" 
d="M367 0q-147 0 -195 -6v1342q24 -6 99.5 -6t175.5 4v-1094h207q90 0 144 6q-7 -234 -7 -243v-10q-98 7 -329 7h-95zM690 687q9 61 9 108t-0.5 64.5t-1.5 34.5t-2 32l-3 25h290q-3 -38 -3 -62l-2 -42v-71.5t5 -88.5h-292z" />
    <glyph glyph-name="ldot" unicode="&#x140;" horiz-adv-x="851" 
d="M562 605q8 51 8 131t-6 118h234q-5 -65 -5 -139.5t5 -109.5h-236zM427 112q0 -86 4 -112h-254v1490h250v-1378z" />
    <glyph glyph-name="Lslash" unicode="&#x141;" horiz-adv-x="895" 
d="M367 0q-147 0 -195 -6v575l-143 -49q1 19 1 40v74q-4 95 -5 111l147 51v540q24 -6 99.5 -6t175.5 4v-442l258 90l1 -112v-90q0 -15 1 -27l-260 -90v-423h207q90 0 144 6q-7 -234 -7 -243v-10q-98 7 -329 7h-95z" />
    <glyph glyph-name="lslash" unicode="&#x142;" horiz-adv-x="604" 
d="M427 112q0 -86 4 -112h-254v601l-147 -56q1 19 1 37v67l-2 51q-1 26 -3 50l151 56v624h250v-531l137 51q-2 -26 -2 -53v-49q0 -47 4 -97l-139 -54v-585z" />
    <glyph glyph-name="Nacute" unicode="&#x143;" horiz-adv-x="1359" 
d="M181 0q6 34 6 74v1256h200l530 -834v766q0 55 -10 68h270q-5 -40 -5 -88v-1242h-208l-522 801v-801h-261zM604 1788q150 0 320 17l-1 -7l-262 -323h-226z" />
    <glyph glyph-name="nacute" unicode="&#x144;" horiz-adv-x="1197" 
d="M410 128q0 -88 8 -128h-251v1045h243v-89q132 109 282 109q164 0 262 -111.5t98 -293.5v-398q0 -169 5 -203t13.5 -44t14.5 -18l-2 -4q-81 7 -118 7h-70q-32 0 -86 -3v545q0 293 -178 293q-132 0 -221 -136v-571zM631 1503q150 0 320 17l-1 -7l-262 -323h-226z" />
    <glyph glyph-name="Ncommaaccent" unicode="&#x145;" horiz-adv-x="1359" 
d="M181 0q6 34 6 74v1256h200l530 -834v766q0 55 -10 68h270q-5 -40 -5 -88v-1242h-208l-522 801v-801h-261zM513 -607q61 108 61 222t-11 194l249 40l8 -51q8 -56 8 -115.5t-6 -96t-16 -62.5q-24 -58 -82 -82q-64 -26 -205 -55z" />
    <glyph glyph-name="ncommaaccent" unicode="&#x146;" horiz-adv-x="1197" 
d="M410 128q0 -88 8 -128h-251v1045h243v-89q132 109 282 109q164 0 262 -111.5t98 -293.5v-398q0 -169 5 -203t13.5 -44t14.5 -18l-2 -4q-81 7 -118 7h-70q-32 0 -86 -3v545q0 293 -178 293q-132 0 -221 -136v-571zM480 -607q61 108 61 222t-11 194l249 40l8 -51
q8 -56 8 -115.5t-6 -96t-16 -62.5q-24 -58 -82 -82q-64 -26 -205 -55z" />
    <glyph glyph-name="Ncaron" unicode="&#x147;" horiz-adv-x="1359" 
d="M181 0q6 34 6 74v1256h200l530 -834v766q0 55 -10 68h270q-5 -40 -5 -88v-1242h-208l-522 801v-801h-261zM671 1369h-51q-42 0 -66 -3l-242 331l3 3q48 -3 263 -3l97 -177l113 177l255 3l4 -3l-255 -331z" />
    <glyph glyph-name="ncaron" unicode="&#x148;" horiz-adv-x="1197" 
d="M410 128q0 -88 8 -128h-251v1045h243v-89q132 109 282 109q164 0 262 -111.5t98 -293.5v-398q0 -169 5 -203t13.5 -44t14.5 -18l-2 -4q-81 7 -118 7h-70q-32 0 -86 -3v545q0 293 -178 293q-132 0 -221 -136v-571zM638 1188h-51q-42 0 -66 -3l-242 331l3 3q48 -3 263 -3
l97 -177l113 177l255 3l4 -3l-255 -331z" />
    <glyph glyph-name="Eng" unicode="&#x14a;" horiz-adv-x="1359" 
d="M181 0q6 34 6 74v1256h220l509 -829v761q0 55 -10 68h270q-5 -40 -5 -88l1 -1348q0 -217 -136 -346q-127 -121 -311.5 -121t-302.5 98v249l7 2q84 -87 182 -104q35 -6 82 -6t89 16t72 46q63 61 63 158v172l-475 731v-789h-261z" />
    <glyph glyph-name="eng" unicode="&#x14b;" horiz-adv-x="1197" 
d="M410 128q0 -88 8 -128h-251v1045h243v-89q132 109 283 109q164 0 262 -111.5t98 -293.5v-218q0 -471 -9 -576t-41.5 -178.5t-85.5 -117.5q-99 -82 -281 -82l-104 263l2 5q57 -38 109.5 -38t80 12t46.5 38q38 56 38 170l2 604q0 293 -178 293q-133 0 -222 -136v-571z" />
    <glyph glyph-name="Omacron" unicode="&#x14c;" horiz-adv-x="1535" 
d="M137.5 367q-52.5 122 -52.5 267.5t49 275.5t140 229t220 157.5t289 58.5q276 0 465 -174q202 -186 202 -502q0 -306 -208 -509q-128 -125 -305 -172q-87 -23 -203.5 -23t-239 48t-213.5 135t-143.5 209zM363 648q0 -93 31 -171t86 -134q117 -118 301 -118q175 0 281 113
q108 117 108 319q0 190 -103 317q-111 136 -304 136q-187 0 -297 -138q-103 -129 -103 -324zM1111 1700q-4 -50 -4 -76v-34q0 -8 4 -60h-675l3 26q5 33 5 60t-6 84h673z" />
    <glyph glyph-name="omacron" unicode="&#x14d;" horiz-adv-x="1197" 
d="M71 517q0 110 37.5 210.5t107.5 175.5q153 162 397 162q243 0 386 -153q137 -146 137 -379t-141 -386q-149 -162 -395 -162q-254 0 -398 159q-131 145 -131 373zM314 523q0 -63 21 -122t60 -101q83 -91 218 -91q125 0 197 89q70 86 70 224q0 140 -72 226q-77 92 -211 92
q-136 0 -213 -98q-70 -90 -70 -219zM936 1523q-4 -50 -4 -76v-34q0 -8 4 -60h-675l3 26q5 33 5 60t-6 84h673z" />
    <glyph glyph-name="Obreve" unicode="&#x14e;" horiz-adv-x="1535" 
d="M137.5 367q-52.5 122 -52.5 267.5t49 275.5t140 229t220 157.5t289 58.5q276 0 465 -174q202 -186 202 -502q0 -306 -208 -509q-128 -125 -305 -172q-87 -23 -203.5 -23t-239 48t-213.5 135t-143.5 209zM363 648q0 -93 31 -171t86 -134q117 -118 301 -118q175 0 281 113
q108 117 108 319q0 190 -103 317q-111 136 -304 136q-187 0 -297 -138q-103 -129 -103 -324zM1112 1806q10 -10 10 -68t-20.5 -114.5t-63.5 -101.5q-97 -101 -271 -101t-271 101q-84 88 -84 215q0 59 10 69l133 -3q10 -79 37 -117q59 -84 175 -84t171 78q31 44 41 123z" />
    <glyph glyph-name="obreve" unicode="&#x14f;" horiz-adv-x="1197" 
d="M71 517q0 110 37.5 210.5t107.5 175.5q153 162 397 162q243 0 386 -153q137 -146 137 -379t-141 -386q-149 -162 -395 -162q-254 0 -398 159q-131 145 -131 373zM314 523q0 -63 21 -122t60 -101q83 -91 218 -91q125 0 197 89q70 86 70 224q0 140 -72 226q-77 92 -211 92
q-136 0 -213 -98q-70 -90 -70 -219zM943 1610q10 -10 10 -68t-20.5 -114.5t-63.5 -101.5q-97 -101 -271 -101t-271 101q-84 88 -84 215q0 59 10 69l133 -3q10 -79 37 -117q59 -84 175 -84t171 78q31 44 41 123z" />
    <glyph glyph-name="Ohungarumlaut" unicode="&#x150;" horiz-adv-x="1535" 
d="M137.5 367q-52.5 122 -52.5 267.5t49 275.5t140 229t220 157.5t289 58.5q276 0 465 -174q202 -186 202 -502q0 -306 -208 -509q-128 -125 -305 -172q-87 -23 -203.5 -23t-239 48t-213.5 135t-143.5 209zM363 648q0 -93 31 -171t86 -134q117 -118 301 -118q175 0 281 113
q108 117 108 319q0 190 -103 317q-111 136 -304 136q-187 0 -297 -138q-103 -129 -103 -324zM999 1808q80 0 250 17l-1 -7l-262 -323h-156zM614 1808q52 0 90 4l140 13l-1 -7l-262 -323h-136z" />
    <glyph glyph-name="ohungarumlaut" unicode="&#x151;" horiz-adv-x="1197" 
d="M71 517q0 110 37.5 210.5t107.5 175.5q153 162 397 162q243 0 386 -153q137 -146 137 -379t-141 -386q-149 -162 -395 -162q-254 0 -398 159q-131 145 -131 373zM314 523q0 -63 21 -122t60 -101q83 -91 218 -91q125 0 197 89q70 86 70 224q0 140 -72 226q-77 92 -211 92
q-136 0 -213 -98q-70 -90 -70 -219zM830 1503q80 0 250 17l-1 -7l-262 -323h-156zM445 1503q52 0 90 3l140 14l-1 -7l-262 -323h-136z" />
    <glyph glyph-name="OE" unicode="&#x152;" horiz-adv-x="2043" 
d="M1181 143q-189 -168 -436 -168q-286 0 -477 183q-196 187 -196 479q0 296 190 502q200 216 510 216q236 0 409 -146v128q27 -2 59 -3l68 -2q68 -2 149 -2q245 0 469 8q-11 -88 -11 -235q0 -16 2 -24l-2 -3q-53 15 -148 15h-331v-255h292q110 0 132 6l3 -247q-48 5 -124 5
h-303v-360h424q62 0 86 12l4 -1l-10 -251h-759v143zM330 648q0 -93 34.5 -172.5t93.5 -137.5q125 -123 310 -123q175 0 291 119q122 126 122 323q0 195 -123 325q-123 128 -306 128q-189 0 -309 -138q-113 -131 -113 -324z" />
    <glyph glyph-name="oe" unicode="&#x153;" horiz-adv-x="2043" 
d="M1527 -15q-312 0 -477 192q-77 -90 -189 -141t-249.5 -51t-241.5 46.5t-172 121.5q-135 147 -135 359q0 239 155 394q159 159 424.5 159t414.5 -188q158 188 434 188q214 0 349 -130q140 -134 140 -353q0 -58 -12 -106q-111 -30 -417 -30h-143q-65 0 -119 2v222
q41 -7 119.5 -7t113 0.5t72.5 1.5l73 2q36 1 64 3q-37 114 -179 153q-44 12 -97.5 12t-104 -20t-88.5 -57q-80 -78 -88 -202l1 -36v-12q0 -5 2.5 -40t33.5 -86.5t82 -87.5q105 -74 283 -74t308 106q-5 -111 -15 -263q-80 -52 -245 -72q-49 -6 -97 -6zM307 526
q0 -60 24.5 -116.5t66.5 -99.5q90 -91 221 -91q132 0 219 79q92 83 92 218q0 136 -86 227q-86 92 -222 92q-142 0 -232 -96q-83 -88 -83 -213z" />
    <glyph glyph-name="Racute" unicode="&#x154;" 
d="M602 517q-30 -2 -64 -2t-101 5v-520h-265v1337q140 18 344 18q278 0 414.5 -102.5t136.5 -316.5q0 -166 -125 -284q-41 -38 -94 -66l204 -430q60 -133 92 -158l-5 -5q-97 16 -305 -1zM535 1119q-51 0 -98 -5v-382q49 -7 115 -7t111 11.5t78 35.5q71 53 71 159t-74 149
q-69 39 -203 39zM618 1788q150 0 320 17l-1 -7l-262 -323h-226z" />
    <glyph glyph-name="racute" unicode="&#x155;" horiz-adv-x="684" 
d="M383 112q0 -86 4 -112h-249v1045h245v-77q85 97 178.5 97t147.5 -23l-18 -269l-4 -3q-35 62 -145 62q-42 0 -85.5 -28.5t-73.5 -75.5v-616zM443 1503q150 0 320 17l-1 -7l-262 -323h-226z" />
    <glyph glyph-name="Rcommaaccent" unicode="&#x156;" 
d="M602 517q-30 -2 -64 -2t-101 5v-520h-265v1337q140 18 344 18q278 0 414.5 -102.5t136.5 -316.5q0 -166 -125 -284q-41 -38 -94 -66l204 -430q60 -133 92 -158l-5 -5q-97 16 -305 -1zM535 1119q-51 0 -98 -5v-382q49 -7 115 -7t111 11.5t78 35.5q71 53 71 159t-74 149
q-69 39 -203 39zM527 -607q61 108 61 222t-11 194l249 40l8 -51q8 -56 8 -115.5t-6 -96t-16 -62.5q-24 -58 -82 -82q-64 -26 -205 -55z" />
    <glyph glyph-name="rcommaaccent" unicode="&#x157;" horiz-adv-x="684" 
d="M383 112q0 -86 4 -112h-249v1045h245v-77q85 97 178.5 97t147.5 -23l-18 -269l-4 -3q-35 62 -145 62q-42 0 -85.5 -28.5t-73.5 -75.5v-616zM113 -607q61 108 61 222t-11 194l249 40l8 -51q8 -56 8 -115.5t-6 -96t-16 -62.5q-24 -58 -82 -82q-64 -26 -205 -55z" />
    <glyph glyph-name="Rcaron" unicode="&#x158;" 
d="M602 517q-30 -2 -64 -2t-101 5v-520h-265v1337q140 18 344 18q278 0 414.5 -102.5t136.5 -316.5q0 -166 -125 -284q-41 -38 -94 -66l204 -430q60 -133 92 -158l-5 -5q-97 16 -305 -1zM535 1119q-51 0 -98 -5v-382q49 -7 115 -7t111 11.5t78 35.5q71 53 71 159t-74 149
q-69 39 -203 39zM685 1369h-51q-42 0 -66 -3l-242 331l3 3q48 -3 263 -3l97 -177l113 177l255 3l4 -3l-255 -331z" />
    <glyph glyph-name="rcaron" unicode="&#x159;" horiz-adv-x="684" 
d="M383 112q0 -86 4 -112h-249v1045h245v-77q85 97 178.5 97t147.5 -23l-18 -269l-4 -3q-35 62 -145 62q-42 0 -85.5 -28.5t-73.5 -75.5v-616zM451 1188h-51q-42 0 -66 -3l-242 331l3 3q48 -3 263 -3l97 -177l113 177l255 3l4 -3l-255 -331z" />
    <glyph glyph-name="Sacute" unicode="&#x15a;" 
d="M975 1256l-19 -294l-7 -2q-74 111 -252 144q-56 11 -107.5 11t-88 -9t-62.5 -26q-55 -36 -55 -94q0 -76 48 -114q60 -46 199 -64.5t223 -50.5t138 -81q102 -92 102 -260q0 -220 -166 -339q-142 -102 -358 -102q-174 0 -344 66q-56 22 -98 51l11 334l4 3
q124 -214 407 -214q201 0 266 97q22 33 22 73.5t-13 67t-43 45.5q-58 38 -195 51t-224 49t-139 89q-94 96 -94 268q0 178 125 288q127 112 342.5 112t377.5 -99zM521 1788q150 0 320 17l-1 -7l-262 -323h-226z" />
    <glyph glyph-name="sacute" unicode="&#x15b;" horiz-adv-x="1026" 
d="M499 -15q-282 0 -425 103q2 30 6 68l9 72q8 71 10 88.5t3 19t16 -16t57 -42.5t97 -44q119 -41 248 -41q173 0 173 115q0 37 -33 55q-59 30 -173.5 45.5t-187.5 45.5t-119 72q-85 79 -85 207q0 156 120 245q119 88 329 88q208 0 355 -118q-7 -26 -15 -50q-23 -66 -34 -95
l-23 -59q-2 -8 -3 -8q-2 0 -16 21q-63 73 -196 96q-41 8 -84 8q-182 0 -182 -110q0 -38 38 -58q71 -38 194.5 -56t187.5 -48.5t103 -73.5q72 -78 72 -207q0 -141 -113 -229q-118 -93 -329 -93zM497 1503q150 0 320 17l-1 -7l-262 -323h-226z" />
    <glyph glyph-name="Scircumflex" unicode="&#x15c;" 
d="M975 1256l-19 -294l-7 -2q-74 111 -252 144q-56 11 -107.5 11t-88 -9t-62.5 -26q-55 -36 -55 -94q0 -76 48 -114q60 -46 199 -64.5t223 -50.5t138 -81q102 -92 102 -260q0 -220 -166 -339q-142 -102 -358 -102q-174 0 -344 66q-56 22 -98 51l11 334l4 3
q124 -214 407 -214q201 0 266 97q22 33 22 73.5t-13 67t-43 45.5q-58 38 -195 51t-224 49t-139 89q-94 96 -94 268q0 178 125 288q127 112 342.5 112t377.5 -99zM495 1473q-215 0 -263 -3l-3 3l242 331q24 -3 66 -3h51l121 3l255 -331l-4 -3l-255 3l-113 177z" />
    <glyph glyph-name="scircumflex" unicode="&#x15d;" horiz-adv-x="1026" 
d="M499 -15q-282 0 -425 103q2 30 6 68l9 72q8 71 10 88.5t3 19t16 -16t57 -42.5t97 -44q119 -41 248 -41q173 0 173 115q0 37 -33 55q-59 30 -173.5 45.5t-187.5 45.5t-119 72q-85 79 -85 207q0 156 120 245q119 88 329 88q208 0 355 -118q-7 -26 -15 -50q-23 -66 -34 -95
l-23 -59q-2 -8 -3 -8q-2 0 -16 21q-63 73 -196 96q-41 8 -84 8q-182 0 -182 -110q0 -38 38 -58q71 -38 194.5 -56t187.5 -48.5t103 -73.5q72 -78 72 -207q0 -141 -113 -229q-118 -93 -329 -93zM411 1188q-215 0 -263 -3l-3 3l242 331q24 -3 66 -3h51l121 3l255 -331l-4 -3
l-255 3l-113 177z" />
    <glyph glyph-name="Scedilla" unicode="&#x15e;" 
d="M715 -11q9 -63 9 -143.5t-22.5 -135.5t-51.5 -72q-59 -38 -215 -70l-6 6q49 70 65 294q5 60 5 111q-159 14 -292 70q-45 19 -79 43l11 334l4 3q124 -214 407 -214q201 0 266 97q22 33 22 73.5t-13 67t-43 45.5q-58 38 -195 51t-224 49t-139 89q-94 96 -94 268
q0 178 125 288q127 112 342.5 112t377.5 -99l-19 -294l-7 -2q-74 111 -252 144q-56 11 -107.5 11t-88 -9t-62.5 -26q-55 -36 -55 -94q0 -76 48 -114q60 -46 199 -64.5t223 -50.5t138 -81q102 -92 102 -260q0 -180 -113 -294q-98 -100 -266 -133z" />
    <glyph glyph-name="scedilla" unicode="&#x15f;" horiz-adv-x="1026" 
d="M415 -12q-220 13 -341 100q2 30 6 68l9 72q8 71 10 88.5t3 19t16 -16t57 -42.5t97 -44q119 -41 248 -41q173 0 173 115q0 37 -33 55q-59 30 -173.5 45.5t-187.5 45.5t-119 72q-85 79 -85 207q0 156 120 245q119 88 329 88q208 0 355 -118q-7 -26 -15 -50q-23 -66 -34 -95
l-23 -59q-2 -8 -3 -8q-2 0 -16 21q-63 73 -196 96q-41 8 -84 8q-182 0 -182 -110q0 -38 38 -58q71 -38 194.5 -56t187.5 -48.5t103 -73.5q72 -78 72 -207q0 -181 -176 -269q-58 -29 -134 -42q9 -68 9 -149.5t-22.5 -136.5t-51.5 -72q-59 -38 -215 -70l-6 6q48 70 65 302
q5 61 5 112z" />
    <glyph glyph-name="Scaron" unicode="&#x160;" 
d="M975 1256l-19 -294l-7 -2q-74 111 -252 144q-56 11 -107.5 11t-88 -9t-62.5 -26q-55 -36 -55 -94q0 -76 48 -114q60 -46 199 -64.5t223 -50.5t138 -81q102 -92 102 -260q0 -220 -166 -339q-142 -102 -358 -102q-174 0 -344 66q-56 22 -98 51l11 334l4 3
q124 -214 407 -214q201 0 266 97q22 33 22 73.5t-13 67t-43 45.5q-58 38 -195 51t-224 49t-139 89q-94 96 -94 268q0 178 125 288q127 112 342.5 112t377.5 -99zM588 1369h-51q-42 0 -66 -3l-242 331l3 3q48 -3 263 -3l97 -177l113 177l255 3l4 -3l-255 -331z" />
    <glyph glyph-name="scaron" unicode="&#x161;" horiz-adv-x="1026" 
d="M499 -15q-282 0 -425 103q2 30 6 68l9 72q8 71 10 88.5t3 19t16 -16t57 -42.5t97 -44q119 -41 248 -41q173 0 173 115q0 37 -33 55q-59 30 -173.5 45.5t-187.5 45.5t-119 72q-85 79 -85 207q0 156 120 245q119 88 329 88q208 0 355 -118q-7 -26 -15 -50q-23 -66 -34 -95
l-23 -59q-2 -8 -3 -8q-2 0 -16 21q-63 73 -196 96q-41 8 -84 8q-182 0 -182 -110q0 -38 38 -58q71 -38 194.5 -56t187.5 -48.5t103 -73.5q72 -78 72 -207q0 -141 -113 -229q-118 -93 -329 -93zM504 1188h-51q-42 0 -66 -3l-242 331l3 3q48 -3 263 -3l97 -177l113 177l255 3
l4 -3l-255 -331z" />
    <glyph glyph-name="Tcommaaccent" unicode="&#x162;" horiz-adv-x="1026" 
d="M652 -6q-48 6 -247 6h-32v1106h-198q-88 0 -104 -9t-25 -16l-3 1v256l3 3q33 -11 178 -11h627q88 0 104 9t25 16l3 -1v-256l-3 -3q-33 11 -178 11h-150v-1112zM347 -607q61 108 61 222t-11 194l249 40l8 -51q8 -56 8 -115.5t-6 -96t-16 -62.5q-24 -58 -82 -82
q-64 -26 -205 -55z" />
    <glyph glyph-name="tcommaaccent" unicode="&#x163;" horiz-adv-x="855" 
d="M611 220q129 0 177 67h8l3 -232q-49 -49 -182 -65q-36 -5 -89.5 -5t-116 20t-106.5 65q-91 93 -91 291v454h-151q-1 29 -1 59v154q0 17 1 17h151v285h245v-285h275v-230h-275v-408q0 -157 87 -179q28 -8 65 -8zM264 -607q61 108 61 222t-11 194l249 40l8 -51
q8 -56 8 -115.5t-6 -96t-16 -62.5q-24 -58 -82 -82q-64 -26 -205 -55z" />
    <glyph glyph-name="Tcaron" unicode="&#x164;" horiz-adv-x="1026" 
d="M652 -6q-48 6 -247 6h-32v1106h-198q-88 0 -104 -9t-25 -16l-3 1v256l3 3q33 -11 178 -11h627q88 0 104 9t25 16l3 -1v-256l-3 -3q-33 11 -178 11h-150v-1112zM505 1369h-51q-42 0 -66 -3l-242 331l3 3q48 -3 263 -3l97 -177l113 177l255 3l4 -3l-255 -331z" />
    <glyph glyph-name="tcaron" unicode="&#x165;" horiz-adv-x="1057" 
d="M611 220q129 0 177 67h8l3 -232q-49 -49 -182 -65q-36 -5 -89.5 -5t-116 20t-106.5 65q-91 93 -91 291v454h-151q-1 29 -1 59v154q0 17 1 17h151v285h245v-285h275v-230h-275v-408q0 -157 87 -179q28 -8 65 -8zM1061 1445q11 -105 11 -158.5t-3.5 -103.5t-9.5 -90
q-15 -86 -36 -100q-25 -16 -84 -27l-111 -23l-6 6q16 28 16 180v99q0 102 -6 177z" />
    <glyph glyph-name="Tbar" unicode="&#x166;" horiz-adv-x="1026" 
d="M652 -6q-48 6 -247 6h-32v649h-204l3 26q5 33 5 48.5t-0.5 33.5t-1.5 35l-2 32q-1 16 -2 25h202v257h-198q-88 0 -104 -9t-25 -16l-3 1v256l3 3q33 -11 178 -11h627q88 0 104 9t25 16l3 -1v-256l-3 -3q-33 11 -178 11h-150v-257h192q-4 -50 -4 -91v-51q0 -6 4 -58h-192
v-655z" />
    <glyph glyph-name="tbar" unicode="&#x167;" horiz-adv-x="855" 
d="M611 220q129 0 177 67h8l3 -232q-49 -49 -182 -65q-36 -5 -89.5 -5t-116 20t-106.5 65q-91 93 -91 291v116h-160l4 26q4 33 4 48.5t-0.5 33.5t-1.5 35l-2 32q-1 16 -2 25h158v138h-151q-1 29 -1 59v154q0 17 1 17h151v285h245v-285h275v-230h-275v-138h270q-4 -50 -4 -91
v-51q0 -6 4 -58h-270v-70q0 -157 87 -179q28 -8 65 -8z" />
    <glyph glyph-name="Utilde" unicode="&#x168;" horiz-adv-x="1368" 
d="M930 1335q62 -5 103 -5h83q42 0 88 8v-827q0 -246 -149 -395q-141 -141 -354 -141q-233 0 -377 121q-161 136 -161 392v847q83 -5 156.5 -5t121.5 8v-863q0 -126 77 -196q72 -64 180 -64q160 0 213 164q19 59 19 146v810zM520 1565q-94 0 -167 -75l-4 1l-4 199
q68 80 185 80q92 0 171 -54.5t163 -54.5q119 0 156 84l2 -2l-10 -216q-17 -30 -61 -49.5t-92 -19.5t-77.5 8t-54.5 20t-46.5 25.5t-45.5 25.5q-56 28 -115 28z" />
    <glyph glyph-name="utilde" unicode="&#x169;" 
d="M773 91q-128 -106 -279 -106q-162 0 -254 109q-88 106 -88 291v397q0 200 -8.5 229.5t-12.5 37.5q46 -4 96 -4h83q33 0 87 3v-579q0 -206 112 -239q34 -10 74 -10q118 0 190 86v739h248v-917q0 -88 8 -128h-256v91zM407 1280q-94 0 -167 -75l-4 1l-4 199q68 80 185 80
q92 0 171 -54.5t163 -54.5q119 0 156 84l2 -2l-10 -216q-17 -30 -61 -49.5t-92 -19.5t-77.5 8t-54.5 20t-46.5 25.5t-45.5 25.5q-56 28 -115 28z" />
    <glyph glyph-name="Umacron" unicode="&#x16a;" horiz-adv-x="1368" 
d="M930 1335q62 -5 103 -5h83q42 0 88 8v-827q0 -246 -149 -395q-141 -141 -354 -141q-233 0 -377 121q-161 136 -161 392v847q83 -5 156.5 -5t121.5 8v-863q0 -126 77 -196q72 -64 180 -64q160 0 213 164q19 59 19 146v810zM1027 1700q-4 -50 -4 -76v-34q0 -8 4 -60h-675
l3 26q5 33 5 60t-6 84h673z" />
    <glyph glyph-name="umacron" unicode="&#x16b;" 
d="M773 91q-128 -106 -279 -106q-162 0 -254 109q-88 106 -88 291v397q0 200 -8.5 229.5t-12.5 37.5q46 -4 96 -4h83q33 0 87 3v-579q0 -206 112 -239q34 -10 74 -10q118 0 190 86v739h248v-917q0 -88 8 -128h-256v91zM908 1523q-4 -50 -4 -76v-34q0 -8 4 -60h-675l3 26
q5 33 5 60t-6 84h673z" />
    <glyph glyph-name="Ubreve" unicode="&#x16c;" horiz-adv-x="1368" 
d="M930 1335q62 -5 103 -5h83q42 0 88 8v-827q0 -246 -149 -395q-141 -141 -354 -141q-233 0 -377 121q-161 136 -161 392v847q83 -5 156.5 -5t121.5 8v-863q0 -126 77 -196q72 -64 180 -64q160 0 213 164q19 59 19 146v810zM1028 1806q10 -10 10 -68t-20.5 -114.5
t-63.5 -101.5q-97 -101 -271 -101t-271 101q-84 88 -84 215q0 59 10 69l133 -3q10 -79 37 -117q59 -84 175 -84t171 78q31 44 41 123z" />
    <glyph glyph-name="ubreve" unicode="&#x16d;" 
d="M773 91q-128 -106 -279 -106q-162 0 -254 109q-88 106 -88 291v397q0 200 -8.5 229.5t-12.5 37.5q46 -4 96 -4h83q33 0 87 3v-579q0 -206 112 -239q34 -10 74 -10q118 0 190 86v739h248v-917q0 -88 8 -128h-256v91zM915 1610q10 -10 10 -68t-20.5 -114.5t-63.5 -101.5
q-97 -101 -271 -101t-271 101q-84 88 -84 215q0 59 10 69l133 -3q10 -79 37 -117q59 -84 175 -84t171 78q31 44 41 123z" />
    <glyph glyph-name="Uring" unicode="&#x16e;" horiz-adv-x="1368" 
d="M930 1335q62 -5 103 -5h83q42 0 88 8v-827q0 -246 -149 -395q-141 -141 -354 -141q-233 0 -377 121q-161 136 -161 392v847q83 -5 156.5 -5t121.5 8v-863q0 -126 77 -196q72 -64 180 -64q160 0 213 164q19 59 19 146v810zM677 1367q-61 0 -111 16t-86 46q-76 63 -76 172
q0 107 75 173q76 69 212 69q120 0 196 -69q75 -67 75 -168q0 -110 -80 -175q-78 -64 -205 -64zM631 1516q23 -8 49.5 -8t47.5 7.5t37 20.5q35 30 35 59.5t-7.5 47t-22.5 31.5q-34 33 -77.5 33t-65.5 -9t-36 -24q-28 -27 -28 -57t7.5 -48t22.5 -31.5t38 -21.5z" />
    <glyph glyph-name="uring" unicode="&#x16f;" 
d="M773 91q-128 -106 -279 -106q-162 0 -254 109q-88 106 -88 291v397q0 200 -8.5 229.5t-12.5 37.5q46 -4 96 -4h83q33 0 87 3v-579q0 -206 112 -239q34 -10 74 -10q118 0 190 86v739h248v-917q0 -88 8 -128h-256v91zM564 1180q-61 0 -111 16t-86 46q-76 63 -76 172
q0 107 75 174q76 68 212 68q120 0 196 -69q75 -67 75 -168q0 -110 -80 -175q-78 -64 -205 -64zM518 1329q23 -8 49.5 -8t47.5 7.5t37 21.5q35 29 35 58.5t-7.5 47t-22.5 32.5q-34 32 -77.5 32t-65.5 -9t-36 -23q-28 -28 -28 -58t7.5 -48t22.5 -31.5t38 -21.5z" />
    <glyph glyph-name="Uhungarumlaut" unicode="&#x170;" horiz-adv-x="1368" 
d="M930 1335q62 -5 103 -5h83q42 0 88 8v-827q0 -246 -149 -395q-141 -141 -354 -141q-233 0 -377 121q-161 136 -161 392v847q83 -5 156.5 -5t121.5 8v-863q0 -126 77 -196q72 -64 180 -64q160 0 213 164q19 59 19 146v810zM915 1808q80 0 250 17l-1 -7l-262 -323h-156z
M530 1808q52 0 90 4l140 13l-1 -7l-262 -323h-136z" />
    <glyph glyph-name="uhungarumlaut" unicode="&#x171;" 
d="M773 91q-128 -106 -279 -106q-162 0 -254 109q-88 106 -88 291v397q0 200 -8.5 229.5t-12.5 37.5q46 -4 96 -4h83q33 0 87 3v-579q0 -206 112 -239q34 -10 74 -10q118 0 190 86v739h248v-917q0 -88 8 -128h-256v91zM802 1503q80 0 250 17l-1 -7l-262 -323h-156zM417 1503
q52 0 90 3l140 14l-1 -7l-262 -323h-136z" />
    <glyph glyph-name="Uogonek" unicode="&#x172;" horiz-adv-x="1368" 
d="M893 -323q37 0 59 16l2 -5l-54 -243q-174 0 -300 67q-153 82 -153 242q0 127 110 235q-276 57 -363 301q-31 86 -31 198v847q83 -5 156.5 -5t121.5 8v-863q0 -126 77 -196q72 -64 180 -64q160 0 213 164q19 59 19 146v810q62 -5 103 -5h61q64 0 110 8v-827
q0 -249 -151 -397q-47 -46 -76.5 -62.5t-36.5 -19.5l-20 -10q-13 -7 -40 -20t-63.5 -39t-64.5 -55q-60 -65 -60 -126q0 -105 201 -105z" />
    <glyph glyph-name="uogonek" unicode="&#x173;" 
d="M652 15q-71 -30 -155.5 -30t-148.5 28.5t-108 80.5q-88 106 -88 291v397q0 200 -8.5 229.5t-12.5 37.5q46 -4 96 -4h83q33 0 87 3v-579q0 -206 112 -239q34 -10 74 -10q118 0 190 86v739h248v-917q0 -88 8 -128h-14l2 -3q-108 0 -187 -69q-72 -65 -72 -146
q0 -105 201 -105q37 0 59 16l2 -5l-74 -243q-283 0 -393 162q-40 59 -40 133q0 158 139 275z" />
    <glyph glyph-name="Wcircumflex" unicode="&#x174;" horiz-adv-x="1710" 
d="M648 -4q-30 4 -102 4h-116q-34 0 -56 -2l-1 2q4 7 4 16t-1.5 19t-8 36t-19.5 75l-340 1188q64 -4 155 -4t118 8l236 -905l230 901q15 -1 27 -2h22q33 -2 83 -2t103 8l234 -905l201 901q60 -4 157 -4t118 8l-288 -1055q-55 -182 -58 -216t-3 -47t4 -21l-2 -3q-32 4 -101 4
h-109t-71 -2l-1 2q4 7 4 16t-1 18t-5.5 34.5t-14.5 75.5l-27 136l-164 623l-156 -620q-48 -191 -50 -220q-4 -55 1 -64zM754 1473q-215 0 -263 -3l-3 3l242 331q24 -3 66 -3h51l121 3l255 -331l-4 -3l-255 3l-113 177z" />
    <glyph glyph-name="wcircumflex" unicode="&#x175;" horiz-adv-x="1535" 
d="M7 1045h269l186 -751l200 751h230l207 -767l186 767h242l-308 -1045h-259l-198 685l-184 -685h-257zM666 1188q-215 0 -263 -3l-3 3l242 331q24 -3 66 -3h51l121 3l255 -331l-4 -3l-255 3l-113 177z" />
    <glyph glyph-name="Ycircumflex" unicode="&#x176;" 
d="M451 0q13 39 13 182v278q-173 381 -221 475.5t-81 149.5q-104 176 -125.5 202t-43.5 43h345q11 -20 30 -59l242 -511q17 42 40 94q218 469 221 476h330q-51 -41 -125 -172q-23 -39 -46 -89l-226 -471q-38 -85 -65 -153v-287q0 -100 12 -158h-300zM495 1473
q-215 0 -263 -3l-3 3l242 331q24 -3 66 -3h51l121 3l255 -331l-4 -3l-255 3l-113 177z" />
    <glyph glyph-name="ycircumflex" unicode="&#x177;" horiz-adv-x="1025" 
d="M51 -348l66 53q149 121 247 357l46 111l-383 872h280l240 -604l223 604h288q-52 -72 -127 -268l-150 -371q-301 -708 -472 -844zM468 1188q-215 0 -263 -3l-3 3l242 331q24 -3 66 -3h51l121 3l255 -331l-4 -3l-255 3l-113 177z" />
    <glyph glyph-name="Ydieresis" unicode="&#x178;" 
d="M451 0q13 39 13 182v278q-173 381 -221 475.5t-81 149.5q-104 176 -125.5 202t-43.5 43h345q11 -20 30 -59l242 -511q17 42 40 94q218 469 221 476h330q-51 -41 -125 -172q-23 -39 -46 -89l-226 -471q-38 -85 -65 -153v-287q0 -100 12 -158h-300zM944 1715
q-4 -50 -4 -127.5t4 -112.5h-265q8 62 8 122.5t-6 117.5h263zM514 1715q-4 -50 -4 -127.5t4 -112.5h-265q8 62 8 122.5t-6 117.5h263z" />
    <glyph glyph-name="Zacute" unicode="&#x179;" horiz-adv-x="1189" 
d="M143 1240q0 33 -3 90h948l-582 -1090h363q142 0 167.5 8.5t40.5 15.5v-279q-43 4 -71 7t-59 5q-47 3 -182 3h-673l602 1090h-315q-195 0 -248 -21q12 50 12 141v30zM515 1788q150 0 320 17l-1 -7l-262 -323h-226z" />
    <glyph glyph-name="zacute" unicode="&#x17a;" horiz-adv-x="1024" 
d="M145 998l-2 47h845l-510 -845h393q88 0 119 25l-66 -240q-44 3 -106 5l-124 6q-115 4 -217 4q-226 0 -421 -15l523 864h-248q-116 0 -190 -26q4 78 4 121v54zM497 1503q150 0 320 17l-1 -7l-262 -323h-226z" />
    <glyph glyph-name="Zdotaccent" unicode="&#x17b;" horiz-adv-x="1189" 
d="M143 1240q0 33 -3 90h948l-582 -1090h363q142 0 167.5 8.5t40.5 15.5v-279q-43 4 -71 7t-59 5q-47 3 -182 3h-673l602 1090h-315q-195 0 -248 -21q12 50 12 141v30zM420 1618q65 104 149 196l191 -151q-50 -64 -68 -88l-35 -49q-17 -23 -36 -52z" />
    <glyph glyph-name="zdotaccent" unicode="&#x17c;" horiz-adv-x="1024" 
d="M145 998l-2 47h845l-510 -845h393q88 0 119 25l-66 -240q-44 3 -106 5l-124 6q-115 4 -217 4q-226 0 -421 -15l523 864h-248q-116 0 -190 -26q4 78 4 121v54zM342 1336q65 104 149 196l191 -151q-50 -64 -68 -88l-35 -49q-17 -23 -36 -52z" />
    <glyph glyph-name="Zcaron" unicode="&#x17d;" horiz-adv-x="1189" 
d="M143 1240q0 33 -3 90h948l-582 -1090h363q142 0 167.5 8.5t40.5 15.5v-279q-43 4 -71 7t-59 5q-47 3 -182 3h-673l602 1090h-315q-195 0 -248 -21q12 50 12 141v30zM582 1369h-51q-42 0 -66 -3l-242 331l3 3q48 -3 263 -3l97 -177l113 177l255 3l4 -3l-255 -331z" />
    <glyph glyph-name="zcaron" unicode="&#x17e;" horiz-adv-x="1024" 
d="M145 998l-2 47h845l-510 -845h393q88 0 119 25l-66 -240q-44 3 -106 5l-124 6q-115 4 -217 4q-226 0 -421 -15l523 864h-248q-116 0 -190 -26q4 78 4 121v54zM504 1188h-51q-42 0 -66 -3l-242 331l3 3q48 -3 263 -3l97 -177l113 177l255 3l4 -3l-255 -331z" />
    <glyph glyph-name="florin" unicode="&#x192;" horiz-adv-x="860" 
d="M846 1217q-33 38 -95.5 38t-106 -19.5t-76.5 -55.5q-67 -73 -79 -197l-6 -53h276q-10 -21 -23 -146l-9 -88h-270l-96 -866h-245l97 866h-124l24 234h126q44 394 317 515q91 40 190 40t127 -12l-25 -251z" />
    <glyph glyph-name="AEacute" unicode="&#x1fc;" horiz-adv-x="1706" 
d="M279 -8q-108 8 -215 8h-79l702 1219l33 55q17 26 17 38.5t-2 18.5l1 2q64 -3 138 -3h209h119l119 2q131 1 267 6q-11 -88 -11 -235q0 -16 2 -24l-2 -3q-53 15 -148 15h-331v-255h262q110 0 132 6l3 -247q-48 5 -124 5h-273v-360h424q62 0 86 12l4 -1l-10 -251h-759l2 288
h-407zM847 528l4 529l-284 -529h280zM1030 1788q150 0 320 17l-1 -7l-262 -323h-226z" />
    <glyph glyph-name="aeacute" unicode="&#x1fd;" horiz-adv-x="1877" 
d="M892 104q-154 -119 -369 -119q-183 0 -292 99q-106 97 -106 248q0 165 149 276q152 113 380 113q30 0 47 -3q-37 141 -211 141q-117 0 -216 -83q-31 -26 -54 -57l-3 2l-30 231q143 113 354.5 113t329.5 -149q153 149 407 149q202 0 340 -135q139 -135 139 -348
q0 -58 -12 -106q-111 -30 -417 -30h-166.5t-121 0.5t-81.5 0.5q26 -108 123 -167.5t273 -59.5t306 106q-5 -111 -15 -263q-80 -52 -244 -72q-50 -6 -98 -6q-257 0 -412 119zM978 666q27 -1 64 -2h73q37 -1 71 -1h54q56 0 112 1l92 3q36 1 64 3q-34 114 -170 153
q-43 12 -89.5 12t-87 -12t-75.5 -33q-71 -44 -108 -124zM765 271q-58 98 -58 241q-20 3 -68 3t-101.5 -12t-91.5 -33q-76 -44 -76 -115t48.5 -113.5t122.5 -42.5q138 0 224 72zM905 1503q150 0 320 17l-1 -7l-262 -323h-226z" />
    <glyph glyph-name="Scommaaccent" unicode="&#x218;" 
d="M975 1256l-19 -294l-7 -2q-74 111 -252 144q-56 11 -107.5 11t-88 -9t-62.5 -26q-55 -36 -55 -94q0 -76 48 -114q60 -46 199 -64.5t223 -50.5t138 -81q102 -92 102 -260q0 -220 -166 -339q-142 -102 -358 -102q-174 0 -344 66q-56 22 -98 51l11 334l4 3
q124 -214 407 -214q201 0 266 97q22 33 22 73.5t-13 67t-43 45.5q-58 38 -195 51t-224 49t-139 89q-94 96 -94 268q0 178 125 288q127 112 342.5 112t377.5 -99zM430 -607q61 108 61 222t-11 194l249 40l8 -51q8 -56 8 -115.5t-6 -96t-16 -62.5q-24 -58 -82 -82
q-64 -26 -205 -55z" />
    <glyph glyph-name="scommaaccent" unicode="&#x219;" horiz-adv-x="1026" 
d="M499 -15q-282 0 -425 103q2 30 6 68l9 72q8 71 10 88.5t3 19t16 -16t57 -42.5t97 -44q119 -41 248 -41q173 0 173 115q0 37 -33 55q-59 30 -173.5 45.5t-187.5 45.5t-119 72q-85 79 -85 207q0 156 120 245q119 88 329 88q208 0 355 -118q-7 -26 -15 -50q-23 -66 -34 -95
l-23 -59q-2 -8 -3 -8q-2 0 -16 21q-63 73 -196 96q-41 8 -84 8q-182 0 -182 -110q0 -38 38 -58q71 -38 194.5 -56t187.5 -48.5t103 -73.5q72 -78 72 -207q0 -141 -113 -229q-118 -93 -329 -93zM346 -607q61 108 61 222t-11 194l249 40l8 -51q8 -56 8 -115.5t-6 -96
t-16 -62.5q-24 -58 -82 -82q-64 -26 -205 -55z" />
    <glyph glyph-name="dotlessj" unicode="&#x237;" horiz-adv-x="515" 
d="M-14 -155q146 0 146 220v980h245v-908q0 -420 -239 -497q-78 -25 -177 -25l-104 263l2 5q57 -38 127 -38z" />
    <glyph glyph-name="circumflex" unicode="&#x2c6;" horiz-adv-x="944" 
d="M363 1188q-215 0 -263 -3l-3 3l242 331q24 -3 66 -3h51l121 3l255 -331l-4 -3l-255 3l-113 177z" />
    <glyph glyph-name="caron" unicode="&#x2c7;" horiz-adv-x="1013" 
d="M498 1188h-51q-42 0 -66 -3l-242 331l3 3q48 -3 263 -3l97 -177l113 177l255 3l4 -3l-255 -331z" />
    <glyph glyph-name="breve" unicode="&#x2d8;" horiz-adv-x="1223" 
d="M852 1610q10 -10 10 -68t-20.5 -114.5t-63.5 -101.5q-97 -101 -271 -101t-271 101q-84 88 -84 215q0 59 10 69l133 -3q10 -79 37 -117q59 -84 175 -84t171 78q31 44 41 123z" />
    <glyph glyph-name="dotaccent" unicode="&#x2d9;" horiz-adv-x="676" 
d="M169 1336q65 104 149 196l191 -151q-50 -64 -68 -88l-35 -49q-17 -23 -36 -52z" />
    <glyph glyph-name="ring" unicode="&#x2da;" horiz-adv-x="752" 
d="M370 1180q-61 0 -111 16t-86 46q-76 63 -76 172q0 107 75 174q76 68 212 68q120 0 196 -69q75 -67 75 -168q0 -110 -80 -175q-78 -64 -205 -64zM324 1329q23 -8 49.5 -8t47.5 7.5t37 21.5q35 29 35 58.5t-7.5 47t-22.5 32.5q-34 32 -77.5 32t-65.5 -9t-36 -23
q-28 -28 -28 -58t7.5 -48t22.5 -31.5t38 -21.5z" />
    <glyph glyph-name="ogonek" unicode="&#x2db;" horiz-adv-x="845" 
d="M505 -318q32 -5 66 -5t56 16l2 -5l-104 -243q-177 0 -270 51q-123 69 -123 228q0 98 68 200q27 40 69 76l116 40l139 -40q-60 -36 -103 -116q-34 -62 -34 -95.5t16.5 -54.5t43 -34t58.5 -18z" />
    <glyph glyph-name="tilde" unicode="&#x2dc;" horiz-adv-x="891" 
d="M291 1280q-94 0 -167 -75l-4 1l-4 199q68 80 185 80q92 0 171 -54.5t163 -54.5q119 0 156 84l2 -2l-10 -216q-17 -30 -61 -49.5t-92 -19.5t-77.5 8t-54.5 20t-46.5 25.5t-45.5 25.5q-56 28 -115 28z" />
    <glyph glyph-name="hungarumlaut" unicode="&#x2dd;" horiz-adv-x="1013" 
d="M756 1503q80 0 250 17l-1 -7l-262 -323h-156zM371 1503q52 0 90 3l140 14l-1 -7l-262 -323h-136z" />
    <glyph glyph-name="Delta" unicode="&#x394;" horiz-adv-x="1524" 
d="M615 1415h214l548 -1415h-1230zM499 238h508l-281 762z" />
    <glyph glyph-name="Delta" unicode="&#x2206;" horiz-adv-x="1524" 
d="M615 1415h214l548 -1415h-1230zM499 238h508l-281 762z" />
    <glyph glyph-name="Omega" unicode="&#x3a9;" horiz-adv-x="1535" 
d="M651 104q0 -59 -28 -119h-463l3 237q23 -6 132 -6h80q-23 46 -58.5 93.5t-68.5 108.5q-82 150 -82 345q0 267 154 422q151 153 414 153q242 0 392.5 -160t150.5 -415q0 -246 -123 -455q-28 -46 -43 -92h146.5t103.5 6l3 -237h-477q-30 76 -30 144t11.5 116.5t28 95
t36.5 92t37 91.5q39 112 39 209t-21 170t-59 117q-69 78 -208 78q-310 0 -310 -378q0 -115 120 -306q72 -116 96 -183.5t24 -126.5z" />
    <glyph glyph-name="Omega" unicode="&#x2126;" horiz-adv-x="1535" 
d="M651 104q0 -59 -28 -119h-463l3 237q23 -6 132 -6h80q-23 46 -58.5 93.5t-68.5 108.5q-82 150 -82 345q0 267 154 422q151 153 414 153q242 0 392.5 -160t150.5 -415q0 -246 -123 -455q-28 -46 -43 -92h146.5t103.5 6l3 -237h-477q-30 76 -30 144t11.5 116.5t28 95
t36.5 92t37 91.5q39 112 39 209t-21 170t-59 117q-69 78 -208 78q-310 0 -310 -378q0 -115 120 -306q72 -116 96 -183.5t24 -126.5z" />
    <glyph glyph-name="pi" unicode="&#x3c0;" horiz-adv-x="1368" 
d="M1062 112q0 -86 4 -112h-249v834h-262q-21 -561 -129 -776q-15 -31 -25 -42.5t-10 -15.5h-248q133 302 157 622q7 100 10 212h-177l3 26q5 33 5 81.5t-6 102.5h1110q-4 -50 -4 -96v-56q0 -6 4 -58h-183v-722z" />
    <glyph glyph-name="uni1E02" unicode="&#x1e02;" horiz-adv-x="1197" 
d="M822 7q-117 -32 -287.5 -32t-362.5 31v1318q194 31 336.5 31t234 -27t149.5 -73q114 -89 114 -230.5t-103 -234.5q122 -38 189 -144q61 -95 61 -210.5t-33.5 -197.5t-107 -140.5t-190.5 -90.5zM437 827q42 -7 105 -7t103.5 16.5t62.5 41.5q36 41 36 114q0 153 -180 153
q-76 0 -127 -6v-312zM585 613q-84 0 -148 -11v-393q70 -18 147 -18t135.5 18.5t98.5 50.5q81 66 81 168q0 185 -314 185zM517 1618q65 104 149 196l191 -151q-50 -64 -68 -88l-35 -49q-17 -23 -36 -52z" />
    <glyph glyph-name="uni1E03" unicode="&#x1e03;" horiz-adv-x="1187" 
d="M397 1007q112 58 229 58t201.5 -36.5t148.5 -104.5q139 -151 139 -382q0 -253 -151 -408q-145 -149 -361 -149q-190 0 -313 99q-138 112 -138 309v1095h245v-481zM397 396q0 -176 219 -176q107 0 180 94q74 96 74 239q0 144 -78 217q-70 65 -188 65q-71 0 -157 -48
q-27 -15 -50 -33v-358zM533 1336q65 104 149 196l191 -151q-50 -64 -68 -88l-35 -49q-17 -23 -36 -52z" />
    <glyph glyph-name="uni1E0A" unicode="&#x1e0a;" horiz-adv-x="1364" 
d="M496 -25q-162 0 -305 26v1338q132 16 306.5 16t316 -47.5t236.5 -135.5q192 -176 192 -493q0 -355 -214 -539q-192 -165 -532 -165zM451 219q65 -12 130 -12t140 25.5t130 79.5q118 114 118 332q0 358 -261 440q-86 27 -199 27h-27q-15 0 -31 -1v-891zM550 1618
q65 104 149 196l191 -151q-50 -64 -68 -88l-35 -49q-17 -23 -36 -52z" />
    <glyph glyph-name="uni1E0B" unicode="&#x1e0b;" horiz-adv-x="1197" 
d="M864 56q-127 -71 -254 -71t-222 40t-162 110q-138 144 -138 374q0 238 160 396q161 160 412 160q77 0 151 -20v445h245v-1069q0 -133 12.5 -174t28 -60t39.5 -36l-188 -166q-52 28 -84 71zM657 215q84 0 154 32v554q-70 29 -152 29t-140.5 -22t-100.5 -61
q-88 -82 -88 -213q0 -143 80 -228q86 -91 247 -91zM340 1336q65 104 149 196l191 -151q-50 -64 -68 -88l-35 -49q-17 -23 -36 -52z" />
    <glyph glyph-name="uni1E1E" unicode="&#x1e1e;" horiz-adv-x="1022" 
d="M873 575q-48 5 -124 5h-303v-580h-274v1337q27 -2 62 -3l74 -2q76 -2 158 -2q246 0 470 8q-11 -88 -11 -235q0 -16 2 -24l-2 -3q-53 15 -148 15h-331v-275h292q110 0 132 6zM404 1618q65 104 149 196l191 -151q-50 -64 -68 -88l-35 -49q-17 -23 -36 -52z" />
    <glyph glyph-name="uni1E1F" unicode="&#x1e1f;" horiz-adv-x="684" 
d="M646 930q-8 -29 -8 -146v-88h-241v-696h-245v696h-147q1 66 2 117l2 107v10h143v62q0 240 112 386q117 151 322 151q87 0 115 -12l1 -251l-2 -5q-38 38 -96.5 38t-94.5 -19.5t-61 -55.5q-51 -72 -51 -197v-97h249zM34 1633q65 104 149 196l191 -151q-50 -64 -68 -88
l-35 -49q-17 -23 -36 -52z" />
    <glyph glyph-name="uni1E40" unicode="&#x1e40;" horiz-adv-x="1539" 
d="M442 -6q-48 6 -185 6h-80v1334q64 -4 141 -4t109 8l336 -571l323 571q32 -8 122 -8t154 4v-1334h-80q-137 0 -185 -6v896l-327 -585l-328 538v-849zM599 1618q65 104 149 196l191 -151q-50 -64 -68 -88l-35 -49q-17 -23 -36 -52z" />
    <glyph glyph-name="uni1E41" unicode="&#x1e41;" horiz-adv-x="1710" 
d="M417 289q0 -225 8 -289h-261v1045h253v-90q137 110 281 110q170 0 247 -147q77 79 128 104q85 43 170.5 43t145.5 -29t99 -82q79 -107 79 -294v-398q0 -169 5 -203t13.5 -44t14.5 -18l-2 -4q-80 7 -118 7h-75q-37 0 -91 -3v541q0 234 -72 278q-24 14 -56.5 14t-57.5 -7.5
t-47 -24.5q-37 -27 -84 -106q1 -8 1 -16v-264t12 -412h-144.5t-113.5 -3v542q0 163 -19.5 212t-41.5 64t-54 15q-132 0 -220 -127v-414zM735 1336q65 104 149 196l191 -151q-50 -64 -68 -88l-35 -49q-17 -23 -36 -52z" />
    <glyph glyph-name="uni1E56" unicode="&#x1e56;" horiz-adv-x="1026" 
d="M153 1337q139 18 285 18q272 0 413.5 -127.5t141.5 -381.5q0 -227 -155 -359q-145 -124 -373 -124q-26 0 -57 3v-366h-255v1337zM468 1114q-30 0 -60 -2v-526q32 -4 78 -4t96 19.5t84 54.5q71 73 71 192q0 266 -269 266zM343 1618q65 104 149 196l191 -151
q-50 -64 -68 -88l-35 -49q-17 -23 -36 -52z" />
    <glyph glyph-name="uni1E57" unicode="&#x1e57;" 
d="M407 21v-294q0 -86 4 -112h-249v1430h245v-65q121 85 232 85t197 -31t151 -96q143 -141 143 -402q0 -173 -81 -309q-69 -115 -191 -184q-108 -61 -234 -61t-217 39zM407 273q76 -64 197 -64q198 0 256 191q20 65 20 139.5t-14 119t-36.5 77t-50.5 54t-57 34.5
q-51 23 -105 23t-112 -25t-98 -67v-482zM476 1336q65 104 149 196l191 -151q-50 -64 -68 -88l-35 -49q-17 -23 -36 -52z" />
    <glyph glyph-name="uni1E60" unicode="&#x1e60;" 
d="M975 1256l-19 -294l-7 -2q-74 111 -252 144q-56 11 -107.5 11t-88 -9t-62.5 -26q-55 -36 -55 -94q0 -76 48 -114q60 -46 199 -64.5t223 -50.5t138 -81q102 -92 102 -260q0 -220 -166 -339q-142 -102 -358 -102q-174 0 -344 66q-56 22 -98 51l11 334l4 3
q124 -214 407 -214q201 0 266 97q22 33 22 73.5t-13 67t-43 45.5q-58 38 -195 51t-224 49t-139 89q-94 96 -94 268q0 178 125 288q127 112 342.5 112t377.5 -99zM426 1618q65 104 149 196l191 -151q-50 -64 -68 -88l-35 -49q-17 -23 -36 -52z" />
    <glyph glyph-name="uni1E61" unicode="&#x1e61;" horiz-adv-x="1026" 
d="M499 -15q-282 0 -425 103q2 30 6 68l9 72q8 71 10 88.5t3 19t16 -16t57 -42.5t97 -44q119 -41 248 -41q173 0 173 115q0 37 -33 55q-59 30 -173.5 45.5t-187.5 45.5t-119 72q-85 79 -85 207q0 156 120 245q119 88 329 88q208 0 355 -118q-7 -26 -15 -50q-23 -66 -34 -95
l-23 -59q-2 -8 -3 -8q-2 0 -16 21q-63 73 -196 96q-41 8 -84 8q-182 0 -182 -110q0 -38 38 -58q71 -38 194.5 -56t187.5 -48.5t103 -73.5q72 -78 72 -207q0 -141 -113 -229q-118 -93 -329 -93zM342 1336q65 104 149 196l191 -151q-50 -64 -68 -88l-35 -49q-17 -23 -36 -52z
" />
    <glyph glyph-name="uni1E6A" unicode="&#x1e6a;" horiz-adv-x="1026" 
d="M652 -6q-48 6 -247 6h-32v1106h-198q-88 0 -104 -9t-25 -16l-3 1v256l3 3q33 -11 178 -11h627q88 0 104 9t25 16l3 -1v-256l-3 -3q-33 11 -178 11h-150v-1112zM343 1618q65 104 149 196l191 -151q-50 -64 -68 -88l-35 -49q-17 -23 -36 -52z" />
    <glyph glyph-name="uni1E6B" unicode="&#x1e6b;" horiz-adv-x="855" 
d="M611 220q129 0 177 67h8l3 -232q-49 -49 -182 -65q-36 -5 -89.5 -5t-116 20t-106.5 65q-91 93 -91 291v454h-151q-1 29 -1 59v154q0 17 1 17h151v285h245v-285h275v-230h-275v-408q0 -157 87 -179q28 -8 65 -8zM162 1506q65 104 149 196l191 -151q-50 -64 -68 -88
l-35 -49q-17 -23 -36 -52z" />
    <glyph glyph-name="Wgrave" unicode="&#x1e80;" horiz-adv-x="1710" 
d="M648 -4q-30 4 -102 4h-116q-34 0 -56 -2l-1 2q4 7 4 16t-1.5 19t-8 36t-19.5 75l-340 1188q64 -4 155 -4t118 8l236 -905l230 901q15 -1 27 -2h22q33 -2 83 -2t103 8l234 -905l201 901q60 -4 157 -4t118 8l-288 -1055q-55 -182 -58 -216t-3 -47t4 -21l-2 -3q-32 4 -101 4
h-109t-71 -2l-1 2q4 7 4 16t-1 18t-5.5 34.5t-14.5 75.5l-27 136l-164 623l-156 -620q-48 -191 -50 -220q-4 -55 1 -64zM611 1805q170 -17 320 -17l169 -313h-226l-262 323z" />
    <glyph glyph-name="wgrave" unicode="&#x1e81;" horiz-adv-x="1535" 
d="M7 1045h269l186 -751l200 751h230l207 -767l186 767h242l-308 -1045h-259l-198 685l-184 -685h-257zM463 1520q170 -17 320 -17l169 -313h-226l-262 323z" />
    <glyph glyph-name="Wacute" unicode="&#x1e82;" horiz-adv-x="1710" 
d="M648 -4q-30 4 -102 4h-116q-34 0 -56 -2l-1 2q4 7 4 16t-1.5 19t-8 36t-19.5 75l-340 1188q64 -4 155 -4t118 8l236 -905l230 901q15 -1 27 -2h22q33 -2 83 -2t103 8l234 -905l201 901q60 -4 157 -4t118 8l-288 -1055q-55 -182 -58 -216t-3 -47t4 -21l-2 -3q-32 4 -101 4
h-109t-71 -2l-1 2q4 7 4 16t-1 18t-5.5 34.5t-14.5 75.5l-27 136l-164 623l-156 -620q-48 -191 -50 -220q-4 -55 1 -64zM780 1788q150 0 320 17l-1 -7l-262 -323h-226z" />
    <glyph glyph-name="wacute" unicode="&#x1e83;" horiz-adv-x="1535" 
d="M7 1045h269l186 -751l200 751h230l207 -767l186 767h242l-308 -1045h-259l-198 685l-184 -685h-257zM752 1503q150 0 320 17l-1 -7l-262 -323h-226z" />
    <glyph glyph-name="Wdieresis" unicode="&#x1e84;" horiz-adv-x="1710" 
d="M648 -4q-30 4 -102 4h-116q-34 0 -56 -2l-1 2q4 7 4 16t-1.5 19t-8 36t-19.5 75l-340 1188q64 -4 155 -4t118 8l236 -905l230 901q15 -1 27 -2h22q33 -2 83 -2t103 8l234 -905l201 901q60 -4 157 -4t118 8l-288 -1055q-55 -182 -58 -216t-3 -47t4 -21l-2 -3q-32 4 -101 4
h-109t-71 -2l-1 2q4 7 4 16t-1 18t-5.5 34.5t-14.5 75.5l-27 136l-164 623l-156 -620q-48 -191 -50 -220q-4 -55 1 -64zM1203 1715q-4 -50 -4 -127.5t4 -112.5h-265q8 62 8 122.5t-6 117.5h263zM773 1715q-4 -50 -4 -127.5t4 -112.5h-265q8 62 8 122.5t-6 117.5h263z" />
    <glyph glyph-name="wdieresis" unicode="&#x1e85;" horiz-adv-x="1535" 
d="M7 1045h269l186 -751l200 751h230l207 -767l186 767h242l-308 -1045h-259l-198 685l-184 -685h-257zM1115 1430q-4 -50 -4 -127.5t4 -112.5h-265q8 62 8 122.5t-6 117.5h263zM685 1430q-4 -50 -4 -127.5t4 -112.5h-265q8 62 8 122.5t-6 117.5h263z" />
    <glyph glyph-name="Ygrave" unicode="&#x1ef2;" 
d="M451 0q13 39 13 182v278q-173 381 -221 475.5t-81 149.5q-104 176 -125.5 202t-43.5 43h345q11 -20 30 -59l242 -511q17 42 40 94q218 469 221 476h330q-51 -41 -125 -172q-23 -39 -46 -89l-226 -471q-38 -85 -65 -153v-287q0 -100 12 -158h-300zM352 1805
q170 -17 320 -17l169 -313h-226l-262 323z" />
    <glyph glyph-name="ygrave" unicode="&#x1ef3;" horiz-adv-x="1025" 
d="M51 -348l66 53q149 121 247 357l46 111l-383 872h280l240 -604l223 604h288q-52 -72 -127 -268l-150 -371q-301 -708 -472 -844zM265 1520q170 -17 320 -17l169 -313h-226l-262 323z" />
    <glyph glyph-name="endash" unicode="&#x2013;" horiz-adv-x="1353" 
d="M283 500q-76 0 -124 -5l3 247q22 -6 132 -6h761q109 0 132 6l3 -247q-48 5 -124 5h-783z" />
    <glyph glyph-name="emdash" unicode="&#x2014;" horiz-adv-x="1695" 
d="M286 500q-76 0 -124 -5l3 247q23 -6 132 -6h1098q109 0 132 6l3 -247q-48 5 -124 5h-1120z" />
    <glyph glyph-name="quoteleft" unicode="&#x2018;" horiz-adv-x="684" 
d="M208 913q-11 105 -11 158.5t3.5 103.5t9.5 90q15 86 36 100q49 31 235 70l6 -6q-36 -59 -36 -299q0 -102 6 -177z" />
    <glyph glyph-name="quoteright" unicode="&#x2019;" horiz-adv-x="684" 
d="M476 1445q11 -105 11 -158.5t-3.5 -103.5t-9.5 -90q-15 -86 -36 -100q-50 -32 -235 -70l-6 6q36 67 36 299q0 102 -6 177z" />
    <glyph glyph-name="quotesinglbase" unicode="&#x201a;" horiz-adv-x="684" 
d="M476 220q11 -104 11 -158t-3.5 -104t-9.5 -90q-15 -86 -36 -100q-49 -31 -235 -70l-6 6q36 67 36 299q0 102 -6 177z" />
    <glyph glyph-name="quotedblleft" unicode="&#x201c;" horiz-adv-x="1026" 
d="M847 1114q0 -76 6 -151l-249 -40q-11 105 -11 158.5t3.5 103.5t9.5 90q15 86 36 100q50 31 235 70l6 -6q-36 -59 -36 -325zM397 1114q0 -76 6 -151l-249 -40q-11 105 -11 158.5t3.5 103.5t9.5 90q15 86 36 100q49 31 235 70l6 -6q-36 -59 -36 -325z" />
    <glyph glyph-name="quotedblright" unicode="&#x201d;" horiz-adv-x="1026" 
d="M178 1254q0 76 -6 151l249 40q11 -105 11 -158.5t-3.5 -103.5t-9.5 -90q-15 -86 -36 -100q-50 -31 -235 -70l-6 6q36 59 36 325zM628 1254q0 76 -6 151l249 40q11 -105 11 -158.5t-3.5 -103.5t-9.5 -90q-15 -86 -36 -100q-49 -31 -235 -70l-6 6q36 59 36 325z" />
    <glyph glyph-name="quotedblbase" unicode="&#x201e;" horiz-adv-x="1026" 
d="M448 221q11 -105 11 -158.5t-3.5 -103.5t-9.5 -90q-15 -86 -36 -100q-50 -32 -235 -70l-6 6q36 67 36 299q0 102 -6 177zM846 221q11 -105 11 -158.5t-3.5 -103.5t-9.5 -90q-15 -86 -36 -100q-50 -32 -235 -70l-6 6q36 67 36 299q0 102 -6 177z" />
    <glyph glyph-name="dagger" unicode="&#x2020;" horiz-adv-x="855" 
d="M296 -250q4 64 4 119v940h-43q-76 0 -124 -5l3 247q22 -6 132 -6h32v263q0 22 -5 122h265q-5 -100 -5 -183v-202h32q109 0 132 6l3 -247q-48 5 -124 5h-43v-947q0 -86 4 -112h-263z" />
    <glyph glyph-name="daggerdbl" unicode="&#x2021;" horiz-adv-x="855" 
d="M257 273q-76 0 -124 -5l3 247q22 -6 132 -6h32v300h-43q-76 0 -124 -5l3 247q22 -6 132 -6h32v263q0 22 -5 122h265q-5 -100 -5 -183v-202h32q109 0 132 6l3 -247q-48 5 -124 5h-43v-300h32q109 0 132 6l3 -247q-48 5 -124 5h-43v-411q0 -86 4 -112h-263q4 64 4 119v404
h-43z" />
    <glyph glyph-name="bullet" unicode="&#x2022;" horiz-adv-x="860" 
d="M433 479q-54 0 -103 16.5t-86 46.5q-82 67 -82 169q0 95 72 163q75 71 192 71q119 0 198 -73q74 -69 74 -159q0 -106 -79 -172q-74 -62 -186 -62z" />
    <glyph glyph-name="ellipsis" unicode="&#x2026;" horiz-adv-x="1530" 
d="M1416 160v-71.5t5 -88.5h-292q9 61 9 108t-0.5 64.5t-1.5 34.5t-2 32l-3 25h290q-3 -38 -3 -62zM906 160v-71.5t5 -88.5h-292q9 61 9 108t-0.5 64.5t-1.5 34.5t-2 32l-3 25h290q-3 -38 -3 -62zM396 160v-71.5t5 -88.5h-292q9 61 9 108t-0.5 64.5t-1.5 34.5t-2 32l-3 25
h290q-3 -38 -3 -62z" />
    <glyph glyph-name="perthousand" unicode="&#x2030;" horiz-adv-x="3236" 
d="M565 612q-90 0 -163 27t-126 75q-114 105 -114 263q0 150 103 257q117 121 316 121q182 0 294 -113q104 -106 104 -257q0 -154 -115 -261q-119 -112 -299 -112zM1360 1330h245l-750 -1330h-245zM576 816q47 0 83 14t61 38q53 48 53 120q0 67 -53 116q-56 53 -149 53
q-91 0 -147 -52q-51 -48 -51 -120q0 -70 53 -117q57 -52 150 -52zM2239 334q0 74 25.5 141.5t77.5 121.5q117 121 316 121q182 0 294 -114q104 -105 104 -256q0 -154 -114 -261q-120 -112 -306 -112q-171 0 -283 103q-114 104 -114 256zM1263 334q0 74 25.5 141.5
t77.5 121.5q117 121 316 121q182 0 294 -114q104 -105 104 -256q0 -154 -114 -261q-120 -112 -306 -112q-171 0 -283 103q-114 104 -114 256zM2451 348q0 -34 13.5 -64.5t39.5 -53.5q57 -52 152 -52q87 0 142 52q53 48 53 120q0 67 -53 116q-56 53 -149 53q-91 0 -147 -52
q-51 -48 -51 -119zM1475 348q0 -34 13.5 -64.5t39.5 -53.5q57 -52 152 -52q87 0 142 52q53 48 53 120q0 67 -53 116q-56 53 -149 53q-91 0 -147 -52q-51 -48 -51 -119z" />
    <glyph glyph-name="guilsinglleft" unicode="&#x2039;" horiz-adv-x="855" 
d="M210 449q-28 49 -28 68q0 34 23 78l201 320h255l-227 -388l233 -387h-255z" />
    <glyph glyph-name="guilsinglright" unicode="&#x203a;" horiz-adv-x="851" 
d="M648 606q28 -49 28 -68q0 -34 -23 -78l-201 -320h-255l227 388l-233 387h255z" />
    <glyph glyph-name="fraction" unicode="&#x2044;" horiz-adv-x="1353" 
d="M929 1330h245l-750 -1330h-245z" />
    <glyph glyph-name="Euro" unicode="&#x20ac;" horiz-adv-x="1535" 
d="M1336 112q-165 -137 -420 -137q-251 0 -422 127q-169 125 -226 338h-187l61 196h100v13q0 33 5 91h-165l63 196h152q83 195 265 307q184 112 417 112q184 0 336 -75l-70 -258h-4q-91 93 -268 93q-132 0 -232 -48t-161 -131h401q109 0 132 6l-57 -207q-48 5 -124 5h-430
q-5 -30 -5 -56v-32q0 -8 1 -16h402q110 0 132 6l-67 -207q-48 5 -124 5h-296q85 -171 287 -213q58 -12 112.5 -12t111 12.5t108.5 36.5q110 51 169 135l3 -2v-285z" />
    <glyph glyph-name="trademark" unicode="&#x2122;" horiz-adv-x="2219" 
d="M609 487l-196 3h-12v675h-197q-108 0 -130 -22q-1 0 0.5 38.5t1.5 75.5t-0.5 52.5t-0.5 32.5q33 -11 175 -11h529q89 0 103 8t20 14v-13l1 -33q0 -70 -2 -154q-12 12 -168 12h-124v-678zM1264 481q-32 4 -204 4v848q30 -2 43 -2h31q83 0 135 5l330 -528l315 528
q30 -5 79 -5h94t60 2v-848q-154 0 -204 -4v529l-339 -549l-340 513v-493z" />
    <glyph glyph-name="partialdiff" unicode="&#x2202;" 
d="M159 1340q112 19 241 19t240.5 -43t187 -113.5t120.5 -161.5t68 -186q38 -152 38 -309.5t-39.5 -253t-106.5 -164.5q-142 -143 -345 -143q-205 0 -341 136q-133 133 -133 322q0 226 144 355q129 117 324 117q98 0 197 -67q-45 143 -130 215q-103 86 -266 86
q-64 0 -158 -17zM800 496q-6 37 -37 82.5t-61 65.5q-54 36 -155 36q-85 0 -139 -62t-54 -164q0 -100 60 -166q63 -69 169 -69q147 0 201 151q18 52 16 126z" />
    <glyph glyph-name="product" unicode="&#x220f;" horiz-adv-x="1368" 
d="M457 -170q-48 6 -223 6h-32v1257h-2l2 221v19h941l2 -240h-3v-1263q-48 6 -185 6h-70v1257h-430v-1263z" />
    <glyph glyph-name="summation" unicode="&#x2211;" horiz-adv-x="1368" 
d="M210 -173q4 64 4 106t-8 74l470 572l-470 557q8 32 8 82t-4 114h930q0 -167 6 -215h-589l442 -527l-421 -548h568q-6 -48 -6 -215h-930z" />
    <glyph glyph-name="minus" unicode="&#x2212;" horiz-adv-x="1016" 
d="M302 500q-76 0 -124 -5l3 247q23 -6 132 -6h389q110 0 132 6l3 -247q-48 5 -124 5h-411z" />
    <glyph glyph-name="radical" unicode="&#x221a;" horiz-adv-x="1359" 
d="M314 1039q110 0 132 6l251 -682l410 1479h277l-584 -1842h-206l-340 803h-87q-76 0 -124 -5l3 247q22 -6 132 -6h136z" />
    <glyph glyph-name="infinity" unicode="&#x221e;" horiz-adv-x="1866" 
d="M1262 201q-239 0 -355 189q-76 -126 -200 -167q-36 -12 -68 -12q-202 0 -319 160q-100 139 -100 339q0 241 137 372q112 108 241 108q127 0 185.5 -29t98 -66t81.5 -96q75 140 211 179q43 12 101 12t127 -27t123 -85q120 -127 120 -359q0 -241 -113 -384
q-107 -134 -270 -134zM1054 787q80 -331 192 -331q63 0 106 64t43 183.5t-42.5 187t-114.5 65.5q-104 -4 -184 -169zM470 721q0 -256 203 -256q47 0 80.5 26.5t62.5 86.5q-10 33 -20 71.5t-26 82.5l-29 82q-28 81 -59 104t-62.5 23t-58 -16t-47.5 -45q-44 -65 -44 -159z" />
    <glyph glyph-name="integral" unicode="&#x222b;" horiz-adv-x="860" 
d="M100 -242q61 -38 131 -38q128 0 128 166q0 25 -3 54l-118 1342q-7 63 -7 153t26 165t83 120q106 84 369 84l24 -263l-2 -5q-61 38 -130 38q-128 0 -128 -166q0 -26 3 -54l118 -1342q7 -63 7 -153t-25.5 -165t-82.5 -120q-106 -84 -367 -84l-28 263z" />
    <glyph glyph-name="approxequal" unicode="&#x2248;" horiz-adv-x="1364" 
d="M1013 849q212 0 283 205l6 -3l19 -273q-87 -159 -338 -159q-136 0 -319 133q-113 82 -176 107t-114 25t-93 -9t-79 -31q-74 -43 -134 -145l-6 3l-8 276q122 142 347 142q121 0 319 -135.5t293 -135.5zM1004 264q212 0 283 205l6 -3l19 -273q-87 -159 -338 -159
q-136 0 -319 133q-113 82 -176 107t-114 25t-93 -9t-79 -31q-74 -43 -134 -145l-6 3l-8 276q122 142 347 142q121 0 319 -135.5t293 -135.5z" />
    <glyph glyph-name="notequal" unicode="&#x2260;" horiz-adv-x="1364" 
d="M1136 295q-48 5 -124 5h-323l-93 -326h-226l93 326h-112q-76 0 -124 -5l3 247q22 -6 132 -6h168l53 184h-232q-76 0 -124 -5l3 247q22 -6 132 -6h288l100 348h226l-100 -348h125q109 0 132 6l3 -247q-48 5 -124 5h-203l-53 -184h245q109 0 132 6z" />
    <glyph glyph-name="lessequal" unicode="&#x2264;" horiz-adv-x="860" 
d="M85 933l675 417v-281l-440 -248l440 -271v-280l-675 449v214zM213 -25q-76 0 -124 -5l3 237q22 -6 132 -6h389q109 0 132 6l3 -237q-48 5 -124 5h-411z" />
    <glyph glyph-name="greaterequal" unicode="&#x2265;" horiz-adv-x="860" 
d="M765 933l-675 417v-281l440 -248l-440 -271v-280l675 449v214zM637 -25q76 0 124 -5l-3 237q-22 -6 -132 -6h-389q-109 0 -132 6l-3 -237q48 5 124 5h411z" />
    <glyph glyph-name="lozenge" unicode="&#x25ca;" horiz-adv-x="1353" 
d="M161 678h1l399 850h214l417 -850h-1l-399 -850h-214zM910 678l-240 562l-227 -562l239 -563z" />
    <glyph glyph-name="ff" unicode="&#xfb00;" horiz-adv-x="1368" 
d="M646 930q-8 -29 -8 -146v-88h-241v-696h-245v696h-147q1 66 2 117l2 107v10h143v62q0 240 112 386q117 151 322 151q87 0 115 -12l1 -251l-2 -5q-38 38 -96.5 38t-94.5 -19.5t-61 -55.5q-51 -72 -51 -197v-97h249zM1330 930q-8 -29 -8 -146v-88h-241v-696h-245v696h-147
q1 66 2 117l2 107v10h143v62q0 240 112 386q117 151 322 151q87 0 115 -12l1 -251l-2 -5q-38 38 -96.5 38t-94.5 -19.5t-61 -55.5q-51 -72 -51 -197v-97h249z" />
    <glyph glyph-name="fi" unicode="&#xfb01;" horiz-adv-x="1197" 
d="M646 930q-8 -29 -8 -146v-88h-241v-696h-245v696h-147q1 66 2 117l2 107v10h143v62q0 240 112 386q117 151 322 151q87 0 115 -12l1 -251l-2 -5q-38 38 -96.5 38t-94.5 -19.5t-61 -55.5q-51 -72 -51 -197v-97h249zM799 1343q80 125 167 220l215 -169q-43 -53 -80 -104
l-77 -109zM1062 112q0 -86 4 -112h-254v1045h250v-933z" />
    <glyph glyph-name="fl" unicode="&#xfb02;" horiz-adv-x="1197" 
d="M646 930q-8 -29 -8 -146v-88h-241v-696h-245v696h-147q1 66 2 117l2 107v10h143v62q0 240 112 386q117 151 322 151q87 0 115 -12l1 -251l-2 -5q-38 38 -96.5 38t-94.5 -19.5t-61 -55.5q-51 -72 -51 -197v-97h249zM1063 112q0 -86 4 -112h-254v1490h250v-1378z" />
    <glyph glyph-name="commaaccent" horiz-adv-x="484" 
d="M99 -607q61 108 61 222t-11 194l249 40l8 -51q8 -56 8 -115.5t-6 -96t-16 -62.5q-24 -58 -82 -82q-64 -26 -205 -55z" />
    <glyph glyph-name="caron.cap" horiz-adv-x="1013" 
d="M498 1369h-51q-42 0 -66 -3l-242 331l3 3q48 -3 263 -3l97 -177l113 177l255 3l4 -3l-255 -331z" />
    <glyph glyph-name="grave.cap" horiz-adv-x="524" 
d="M18 1805q170 -17 320 -17l169 -313h-226l-262 323z" />
    <glyph glyph-name="acute.cap" horiz-adv-x="524" 
d="M187 1788q150 0 320 17l-1 -7l-262 -323h-226z" />
    <glyph glyph-name="circumflex.cap" horiz-adv-x="524" 
d="M161 1473q-215 0 -263 -3l-3 3l242 331q24 -3 66 -3h51l121 3l255 -331l-4 -3l-255 3l-113 177z" />
    <glyph glyph-name="dieresis.cap" horiz-adv-x="524" 
d="M610 1715q-4 -50 -4 -127.5t4 -112.5h-265q8 62 8 122.5t-6 117.5h263zM180 1715q-4 -50 -4 -127.5t4 -112.5h-265q8 62 8 122.5t-6 117.5h263z" />
    <glyph glyph-name="ring.cap" horiz-adv-x="524" 
d="M256 1367q-61 0 -111 16t-86 46q-76 63 -76 172q0 107 75 173q76 69 212 69q120 0 196 -69q75 -67 75 -168q0 -110 -80 -175q-78 -64 -205 -64zM210 1516q23 -8 49.5 -8t47.5 7.5t37 20.5q35 30 35 59.5t-7.5 47t-22.5 31.5q-34 33 -77.5 33t-65.5 -9t-36 -24
q-28 -27 -28 -57t7.5 -48t22.5 -31.5t38 -21.5z" />
    <glyph glyph-name="tilde.cap" horiz-adv-x="524" 
d="M99 1565q-94 0 -167 -75l-4 1l-4 199q68 80 185 80q92 0 171 -54.5t163 -54.5q119 0 156 84l2 -2l-10 -216q-17 -30 -61 -49.5t-92 -19.5t-77.5 8t-54.5 20t-46.5 25.5t-45.5 25.5q-56 28 -115 28z" />
    <glyph glyph-name="breve.cap" horiz-adv-x="1223" 
d="M852 1806q10 -10 10 -68t-20.5 -114.5t-63.5 -101.5q-97 -101 -271 -101t-271 101q-84 88 -84 215q0 59 10 69l133 -3q10 -79 37 -117q59 -84 175 -84t171 78q31 44 41 123z" />
    <glyph glyph-name="hungarumlaut.cap" horiz-adv-x="1013" 
d="M756 1808q80 0 250 17l-1 -7l-262 -323h-156zM371 1808q52 0 90 4l140 13l-1 -7l-262 -323h-136z" />
    <glyph glyph-name="macron.cap" horiz-adv-x="524" 
d="M606 1700q-4 -50 -4 -76v-34q0 -8 4 -60h-675l3 26q5 33 5 60t-6 84h673z" />
    <glyph glyph-name="dotaccent.cap" horiz-adv-x="676" 
d="M169 1618q65 104 149 196l191 -151q-50 -64 -68 -88l-35 -49q-17 -23 -36 -52z" />
    <glyph glyph-name="caronvertical" horiz-adv-x="502" 
d="M368 1445q11 -105 11 -158.5t-3.5 -103.5t-9.5 -90q-15 -86 -36 -100q-25 -16 -84 -27l-111 -23l-6 6q16 28 16 180v99q0 102 -6 177z" />
  </font>
</defs>
</svg>
